G04 #@! TF.GenerationSoftware,KiCad,Pcbnew,5.1.5*
G04 #@! TF.CreationDate,2020-02-13T13:25:46+01:00*
G04 #@! TF.ProjectId,lora_fence_monitor,6c6f7261-5f66-4656-9e63-655f6d6f6e69,rev?*
G04 #@! TF.SameCoordinates,Original*
G04 #@! TF.FileFunction,Legend,Bot*
G04 #@! TF.FilePolarity,Positive*
%FSLAX46Y46*%
G04 Gerber Fmt 4.6, Leading zero omitted, Abs format (unit mm)*
G04 Created by KiCad (PCBNEW 5.1.5) date 2020-02-13 13:25:46*
%MOMM*%
%LPD*%
G04 APERTURE LIST*
%ADD10C,0.300000*%
%ADD11C,0.120000*%
%ADD12C,0.150000*%
G04 APERTURE END LIST*
D10*
X87792857Y-111692857D02*
X88292857Y-111692857D01*
X88292857Y-112478571D02*
X88292857Y-110978571D01*
X87578571Y-110978571D01*
X86435714Y-112407142D02*
X86578571Y-112478571D01*
X86864285Y-112478571D01*
X87007142Y-112407142D01*
X87078571Y-112264285D01*
X87078571Y-111692857D01*
X87007142Y-111550000D01*
X86864285Y-111478571D01*
X86578571Y-111478571D01*
X86435714Y-111550000D01*
X86364285Y-111692857D01*
X86364285Y-111835714D01*
X87078571Y-111978571D01*
X85721428Y-111478571D02*
X85721428Y-112478571D01*
X85721428Y-111621428D02*
X85650000Y-111550000D01*
X85507142Y-111478571D01*
X85292857Y-111478571D01*
X85150000Y-111550000D01*
X85078571Y-111692857D01*
X85078571Y-112478571D01*
X83721428Y-112407142D02*
X83864285Y-112478571D01*
X84150000Y-112478571D01*
X84292857Y-112407142D01*
X84364285Y-112335714D01*
X84435714Y-112192857D01*
X84435714Y-111764285D01*
X84364285Y-111621428D01*
X84292857Y-111550000D01*
X84150000Y-111478571D01*
X83864285Y-111478571D01*
X83721428Y-111550000D01*
X82507142Y-112407142D02*
X82650000Y-112478571D01*
X82935714Y-112478571D01*
X83078571Y-112407142D01*
X83150000Y-112264285D01*
X83150000Y-111692857D01*
X83078571Y-111550000D01*
X82935714Y-111478571D01*
X82650000Y-111478571D01*
X82507142Y-111550000D01*
X82435714Y-111692857D01*
X82435714Y-111835714D01*
X83150000Y-111978571D01*
X139771428Y-109292857D02*
X139271428Y-109292857D01*
X139057142Y-110078571D02*
X139771428Y-110078571D01*
X139771428Y-108578571D01*
X139057142Y-108578571D01*
X137771428Y-110078571D02*
X137771428Y-109292857D01*
X137842857Y-109150000D01*
X137985714Y-109078571D01*
X138271428Y-109078571D01*
X138414285Y-109150000D01*
X137771428Y-110007142D02*
X137914285Y-110078571D01*
X138271428Y-110078571D01*
X138414285Y-110007142D01*
X138485714Y-109864285D01*
X138485714Y-109721428D01*
X138414285Y-109578571D01*
X138271428Y-109507142D01*
X137914285Y-109507142D01*
X137771428Y-109435714D01*
X137057142Y-110078571D02*
X137057142Y-109078571D01*
X137057142Y-109364285D02*
X136985714Y-109221428D01*
X136914285Y-109150000D01*
X136771428Y-109078571D01*
X136628571Y-109078571D01*
X136342857Y-109078571D02*
X135771428Y-109078571D01*
X136128571Y-108578571D02*
X136128571Y-109864285D01*
X136057142Y-110007142D01*
X135914285Y-110078571D01*
X135771428Y-110078571D01*
X135271428Y-110078571D02*
X135271428Y-108578571D01*
X134628571Y-110078571D02*
X134628571Y-109292857D01*
X134700000Y-109150000D01*
X134842857Y-109078571D01*
X135057142Y-109078571D01*
X135200000Y-109150000D01*
X135271428Y-109221428D01*
X141521428Y-64878571D02*
X142235714Y-64878571D01*
X142235714Y-63378571D01*
X140807142Y-64878571D02*
X140950000Y-64807142D01*
X141021428Y-64735714D01*
X141092857Y-64592857D01*
X141092857Y-64164285D01*
X141021428Y-64021428D01*
X140950000Y-63950000D01*
X140807142Y-63878571D01*
X140592857Y-63878571D01*
X140450000Y-63950000D01*
X140378571Y-64021428D01*
X140307142Y-64164285D01*
X140307142Y-64592857D01*
X140378571Y-64735714D01*
X140450000Y-64807142D01*
X140592857Y-64878571D01*
X140807142Y-64878571D01*
X138807142Y-64878571D02*
X139307142Y-64164285D01*
X139664285Y-64878571D02*
X139664285Y-63378571D01*
X139092857Y-63378571D01*
X138950000Y-63450000D01*
X138878571Y-63521428D01*
X138807142Y-63664285D01*
X138807142Y-63878571D01*
X138878571Y-64021428D01*
X138950000Y-64092857D01*
X139092857Y-64164285D01*
X139664285Y-64164285D01*
X137521428Y-64878571D02*
X137521428Y-64092857D01*
X137592857Y-63950000D01*
X137735714Y-63878571D01*
X138021428Y-63878571D01*
X138164285Y-63950000D01*
X137521428Y-64807142D02*
X137664285Y-64878571D01*
X138021428Y-64878571D01*
X138164285Y-64807142D01*
X138235714Y-64664285D01*
X138235714Y-64521428D01*
X138164285Y-64378571D01*
X138021428Y-64307142D01*
X137664285Y-64307142D01*
X137521428Y-64235714D01*
X136950000Y-63378571D02*
X136592857Y-64878571D01*
X136307142Y-63807142D01*
X136021428Y-64878571D01*
X135664285Y-63378571D01*
X135164285Y-64450000D02*
X134450000Y-64450000D01*
X135307142Y-64878571D02*
X134807142Y-63378571D01*
X134307142Y-64878571D01*
X133807142Y-64878571D02*
X133807142Y-63378571D01*
X132950000Y-64878571D01*
X132950000Y-63378571D01*
X131307142Y-63878571D02*
X130735714Y-63878571D01*
X131092857Y-64878571D02*
X131092857Y-63592857D01*
X131021428Y-63450000D01*
X130878571Y-63378571D01*
X130735714Y-63378571D01*
X129664285Y-64807142D02*
X129807142Y-64878571D01*
X130092857Y-64878571D01*
X130235714Y-64807142D01*
X130307142Y-64664285D01*
X130307142Y-64092857D01*
X130235714Y-63950000D01*
X130092857Y-63878571D01*
X129807142Y-63878571D01*
X129664285Y-63950000D01*
X129592857Y-64092857D01*
X129592857Y-64235714D01*
X130307142Y-64378571D01*
X128950000Y-63878571D02*
X128950000Y-64878571D01*
X128950000Y-64021428D02*
X128878571Y-63950000D01*
X128735714Y-63878571D01*
X128521428Y-63878571D01*
X128378571Y-63950000D01*
X128307142Y-64092857D01*
X128307142Y-64878571D01*
X126950000Y-64807142D02*
X127092857Y-64878571D01*
X127378571Y-64878571D01*
X127521428Y-64807142D01*
X127592857Y-64735714D01*
X127664285Y-64592857D01*
X127664285Y-64164285D01*
X127592857Y-64021428D01*
X127521428Y-63950000D01*
X127378571Y-63878571D01*
X127092857Y-63878571D01*
X126950000Y-63950000D01*
X125735714Y-64807142D02*
X125878571Y-64878571D01*
X126164285Y-64878571D01*
X126307142Y-64807142D01*
X126378571Y-64664285D01*
X126378571Y-64092857D01*
X126307142Y-63950000D01*
X126164285Y-63878571D01*
X125878571Y-63878571D01*
X125735714Y-63950000D01*
X125664285Y-64092857D01*
X125664285Y-64235714D01*
X126378571Y-64378571D01*
X123878571Y-64878571D02*
X123878571Y-63878571D01*
X123878571Y-64021428D02*
X123807142Y-63950000D01*
X123664285Y-63878571D01*
X123450000Y-63878571D01*
X123307142Y-63950000D01*
X123235714Y-64092857D01*
X123235714Y-64878571D01*
X123235714Y-64092857D02*
X123164285Y-63950000D01*
X123021428Y-63878571D01*
X122807142Y-63878571D01*
X122664285Y-63950000D01*
X122592857Y-64092857D01*
X122592857Y-64878571D01*
X121664285Y-64878571D02*
X121807142Y-64807142D01*
X121878571Y-64735714D01*
X121950000Y-64592857D01*
X121950000Y-64164285D01*
X121878571Y-64021428D01*
X121807142Y-63950000D01*
X121664285Y-63878571D01*
X121450000Y-63878571D01*
X121307142Y-63950000D01*
X121235714Y-64021428D01*
X121164285Y-64164285D01*
X121164285Y-64592857D01*
X121235714Y-64735714D01*
X121307142Y-64807142D01*
X121450000Y-64878571D01*
X121664285Y-64878571D01*
X120521428Y-63878571D02*
X120521428Y-64878571D01*
X120521428Y-64021428D02*
X120450000Y-63950000D01*
X120307142Y-63878571D01*
X120092857Y-63878571D01*
X119950000Y-63950000D01*
X119878571Y-64092857D01*
X119878571Y-64878571D01*
X119164285Y-64878571D02*
X119164285Y-63878571D01*
X119164285Y-63378571D02*
X119235714Y-63450000D01*
X119164285Y-63521428D01*
X119092857Y-63450000D01*
X119164285Y-63378571D01*
X119164285Y-63521428D01*
X118664285Y-63878571D02*
X118092857Y-63878571D01*
X118450000Y-63378571D02*
X118450000Y-64664285D01*
X118378571Y-64807142D01*
X118235714Y-64878571D01*
X118092857Y-64878571D01*
X117378571Y-64878571D02*
X117521428Y-64807142D01*
X117592857Y-64735714D01*
X117664285Y-64592857D01*
X117664285Y-64164285D01*
X117592857Y-64021428D01*
X117521428Y-63950000D01*
X117378571Y-63878571D01*
X117164285Y-63878571D01*
X117021428Y-63950000D01*
X116950000Y-64021428D01*
X116878571Y-64164285D01*
X116878571Y-64592857D01*
X116950000Y-64735714D01*
X117021428Y-64807142D01*
X117164285Y-64878571D01*
X117378571Y-64878571D01*
X116235714Y-64878571D02*
X116235714Y-63878571D01*
X116235714Y-64164285D02*
X116164285Y-64021428D01*
X116092857Y-63950000D01*
X115950000Y-63878571D01*
X115807142Y-63878571D01*
X114307142Y-63878571D02*
X113950000Y-64878571D01*
X113592857Y-63878571D01*
X112235714Y-64878571D02*
X113092857Y-64878571D01*
X112664285Y-64878571D02*
X112664285Y-63378571D01*
X112807142Y-63592857D01*
X112950000Y-63735714D01*
X113092857Y-63807142D01*
X111592857Y-64735714D02*
X111521428Y-64807142D01*
X111592857Y-64878571D01*
X111664285Y-64807142D01*
X111592857Y-64735714D01*
X111592857Y-64878571D01*
X110592857Y-63378571D02*
X110450000Y-63378571D01*
X110307142Y-63450000D01*
X110235714Y-63521428D01*
X110164285Y-63664285D01*
X110092857Y-63950000D01*
X110092857Y-64307142D01*
X110164285Y-64592857D01*
X110235714Y-64735714D01*
X110307142Y-64807142D01*
X110450000Y-64878571D01*
X110592857Y-64878571D01*
X110735714Y-64807142D01*
X110807142Y-64735714D01*
X110878571Y-64592857D01*
X110950000Y-64307142D01*
X110950000Y-63950000D01*
X110878571Y-63664285D01*
X110807142Y-63521428D01*
X110735714Y-63450000D01*
X110592857Y-63378571D01*
D11*
X125070000Y-102055000D02*
X126400000Y-102055000D01*
X125070000Y-100725000D02*
X125070000Y-102055000D01*
X125070000Y-99455000D02*
X127730000Y-99455000D01*
X127730000Y-99455000D02*
X127730000Y-99395000D01*
X125070000Y-99455000D02*
X125070000Y-99395000D01*
X125070000Y-99395000D02*
X127730000Y-99395000D01*
X84070000Y-79730000D02*
X85400000Y-79730000D01*
X84070000Y-78400000D02*
X84070000Y-79730000D01*
X84070000Y-77130000D02*
X86730000Y-77130000D01*
X86730000Y-77130000D02*
X86730000Y-77070000D01*
X84070000Y-77130000D02*
X84070000Y-77070000D01*
X84070000Y-77070000D02*
X86730000Y-77070000D01*
X84070000Y-91730000D02*
X85400000Y-91730000D01*
X84070000Y-90400000D02*
X84070000Y-91730000D01*
X84070000Y-89130000D02*
X86730000Y-89130000D01*
X86730000Y-89130000D02*
X86730000Y-89070000D01*
X84070000Y-89130000D02*
X84070000Y-89070000D01*
X84070000Y-89070000D02*
X86730000Y-89070000D01*
X84070000Y-87730000D02*
X85400000Y-87730000D01*
X84070000Y-86400000D02*
X84070000Y-87730000D01*
X84070000Y-85130000D02*
X86730000Y-85130000D01*
X86730000Y-85130000D02*
X86730000Y-85070000D01*
X84070000Y-85130000D02*
X84070000Y-85070000D01*
X84070000Y-85070000D02*
X86730000Y-85070000D01*
X84070000Y-83730000D02*
X85400000Y-83730000D01*
X84070000Y-82400000D02*
X84070000Y-83730000D01*
X84070000Y-81130000D02*
X86730000Y-81130000D01*
X86730000Y-81130000D02*
X86730000Y-81070000D01*
X84070000Y-81130000D02*
X84070000Y-81070000D01*
X84070000Y-81070000D02*
X86730000Y-81070000D01*
X134620000Y-72945000D02*
X134620000Y-106065000D01*
X74910000Y-72945000D02*
X134620000Y-72945000D01*
X74910000Y-106065000D02*
X74910000Y-72945000D01*
X134620000Y-106065000D02*
X74910000Y-106065000D01*
X95225000Y-79470000D02*
X95225000Y-84550000D01*
X95225000Y-84550000D02*
X113005000Y-84550000D01*
X113005000Y-84550000D02*
X113005000Y-83280000D01*
X113005000Y-83280000D02*
X114275000Y-83280000D01*
X114275000Y-83280000D02*
X114275000Y-80740000D01*
X114275000Y-80740000D02*
X113005000Y-80740000D01*
X113005000Y-80740000D02*
X113005000Y-79470000D01*
X113005000Y-79470000D02*
X95225000Y-79470000D01*
X114275000Y-98270000D02*
X114275000Y-94460000D01*
X114275000Y-94460000D02*
X96495000Y-94460000D01*
X96495000Y-94460000D02*
X96495000Y-95730000D01*
X96495000Y-95730000D02*
X95225000Y-95730000D01*
X95225000Y-95730000D02*
X95225000Y-98270000D01*
X95225000Y-98270000D02*
X96495000Y-98270000D01*
X96495000Y-98270000D02*
X96495000Y-99540000D01*
X96495000Y-99540000D02*
X114275000Y-99540000D01*
X114275000Y-99540000D02*
X114275000Y-98270000D01*
X76180000Y-89759000D02*
X133350000Y-89759000D01*
X133350000Y-89251000D02*
X76180000Y-89251000D01*
X95225000Y-76755000D02*
X95225000Y-74215000D01*
X95225000Y-74215000D02*
X114275000Y-74215000D01*
X114275000Y-74215000D02*
X114275000Y-76755000D01*
X126975000Y-102255000D02*
X114275000Y-102255000D01*
X114275000Y-102255000D02*
X114275000Y-104795000D01*
X114275000Y-104795000D02*
X95225000Y-104795000D01*
X95225000Y-104795000D02*
X95225000Y-102255000D01*
X126975000Y-76755000D02*
X114275000Y-76755000D01*
X82525000Y-102255000D02*
X95225000Y-102255000D01*
X82525000Y-102255000D02*
X82525000Y-104795000D01*
X82525000Y-104795000D02*
X76180000Y-104795000D01*
X76180000Y-104795000D02*
X76180000Y-74215000D01*
X76180000Y-74215000D02*
X82525000Y-74215000D01*
X82525000Y-74215000D02*
X82525000Y-76755000D01*
X82525000Y-76755000D02*
X95225000Y-76755000D01*
X133350000Y-104795000D02*
X126975000Y-104795000D01*
X126975000Y-104795000D02*
X126975000Y-102255000D01*
X133350000Y-104795000D02*
X133350000Y-74215000D01*
X133350000Y-74215000D02*
X126975000Y-74215000D01*
X126975000Y-74215000D02*
X126975000Y-76755000D01*
X136670000Y-74510000D02*
X139330000Y-74510000D01*
X136670000Y-84730000D02*
X136670000Y-74510000D01*
X139330000Y-84730000D02*
X139330000Y-74510000D01*
X136670000Y-84730000D02*
X139330000Y-84730000D01*
X136670000Y-86000000D02*
X136670000Y-87330000D01*
X136670000Y-87330000D02*
X138000000Y-87330000D01*
X136670000Y-91050000D02*
X139330000Y-91050000D01*
X136670000Y-98730000D02*
X136670000Y-91050000D01*
X139330000Y-98730000D02*
X139330000Y-91050000D01*
X136670000Y-98730000D02*
X139330000Y-98730000D01*
X136670000Y-100000000D02*
X136670000Y-101330000D01*
X136670000Y-101330000D02*
X138000000Y-101330000D01*
X124249177Y-109448687D02*
X127409443Y-118131446D01*
X127409443Y-118131446D02*
X110269450Y-124369894D01*
X110269450Y-124369894D02*
X107109184Y-115687134D01*
X107109184Y-115687134D02*
X124249177Y-109448687D01*
X126646843Y-113492509D02*
X125829310Y-113790067D01*
X107871784Y-120326071D02*
X108689317Y-120028514D01*
X84871784Y-120326071D02*
X85689317Y-120028514D01*
X103646843Y-113492509D02*
X102829310Y-113790067D01*
X84109184Y-115687134D02*
X101249177Y-109448687D01*
X87269450Y-124369894D02*
X84109184Y-115687134D01*
X104409443Y-118131446D02*
X87269450Y-124369894D01*
X101249177Y-109448687D02*
X104409443Y-118131446D01*
D12*
X135933333Y-112452380D02*
X135933333Y-113166666D01*
X135980952Y-113309523D01*
X136076190Y-113404761D01*
X136219047Y-113452380D01*
X136314285Y-113452380D01*
X135028571Y-112785714D02*
X135028571Y-113452380D01*
X135266666Y-112404761D02*
X135504761Y-113119047D01*
X134885714Y-113119047D01*
X77733333Y-112652380D02*
X77733333Y-113366666D01*
X77780952Y-113509523D01*
X77876190Y-113604761D01*
X78019047Y-113652380D01*
X78114285Y-113652380D01*
X77352380Y-112652380D02*
X76733333Y-112652380D01*
X77066666Y-113033333D01*
X76923809Y-113033333D01*
X76828571Y-113080952D01*
X76780952Y-113128571D01*
X76733333Y-113223809D01*
X76733333Y-113461904D01*
X76780952Y-113557142D01*
X76828571Y-113604761D01*
X76923809Y-113652380D01*
X77209523Y-113652380D01*
X77304761Y-113604761D01*
X77352380Y-113557142D01*
X128138095Y-102507380D02*
X127566666Y-102507380D01*
X127852380Y-103507380D02*
X127852380Y-102507380D01*
X127233333Y-103507380D02*
X127233333Y-102507380D01*
X126852380Y-102507380D01*
X126757142Y-102555000D01*
X126709523Y-102602619D01*
X126661904Y-102697857D01*
X126661904Y-102840714D01*
X126709523Y-102935952D01*
X126757142Y-102983571D01*
X126852380Y-103031190D01*
X127233333Y-103031190D01*
X125709523Y-103507380D02*
X126280952Y-103507380D01*
X125995238Y-103507380D02*
X125995238Y-102507380D01*
X126090476Y-102650238D01*
X126185714Y-102745476D01*
X126280952Y-102793095D01*
X124757142Y-103507380D02*
X125328571Y-103507380D01*
X125042857Y-103507380D02*
X125042857Y-102507380D01*
X125138095Y-102650238D01*
X125233333Y-102745476D01*
X125328571Y-102793095D01*
X87138095Y-80182380D02*
X86566666Y-80182380D01*
X86852380Y-81182380D02*
X86852380Y-80182380D01*
X86233333Y-81182380D02*
X86233333Y-80182380D01*
X85852380Y-80182380D01*
X85757142Y-80230000D01*
X85709523Y-80277619D01*
X85661904Y-80372857D01*
X85661904Y-80515714D01*
X85709523Y-80610952D01*
X85757142Y-80658571D01*
X85852380Y-80706190D01*
X86233333Y-80706190D01*
X84709523Y-81182380D02*
X85280952Y-81182380D01*
X84995238Y-81182380D02*
X84995238Y-80182380D01*
X85090476Y-80325238D01*
X85185714Y-80420476D01*
X85280952Y-80468095D01*
X84090476Y-80182380D02*
X83995238Y-80182380D01*
X83900000Y-80230000D01*
X83852380Y-80277619D01*
X83804761Y-80372857D01*
X83757142Y-80563333D01*
X83757142Y-80801428D01*
X83804761Y-80991904D01*
X83852380Y-81087142D01*
X83900000Y-81134761D01*
X83995238Y-81182380D01*
X84090476Y-81182380D01*
X84185714Y-81134761D01*
X84233333Y-81087142D01*
X84280952Y-80991904D01*
X84328571Y-80801428D01*
X84328571Y-80563333D01*
X84280952Y-80372857D01*
X84233333Y-80277619D01*
X84185714Y-80230000D01*
X84090476Y-80182380D01*
X86661904Y-92182380D02*
X86090476Y-92182380D01*
X86376190Y-93182380D02*
X86376190Y-92182380D01*
X85757142Y-93182380D02*
X85757142Y-92182380D01*
X85376190Y-92182380D01*
X85280952Y-92230000D01*
X85233333Y-92277619D01*
X85185714Y-92372857D01*
X85185714Y-92515714D01*
X85233333Y-92610952D01*
X85280952Y-92658571D01*
X85376190Y-92706190D01*
X85757142Y-92706190D01*
X84709523Y-93182380D02*
X84519047Y-93182380D01*
X84423809Y-93134761D01*
X84376190Y-93087142D01*
X84280952Y-92944285D01*
X84233333Y-92753809D01*
X84233333Y-92372857D01*
X84280952Y-92277619D01*
X84328571Y-92230000D01*
X84423809Y-92182380D01*
X84614285Y-92182380D01*
X84709523Y-92230000D01*
X84757142Y-92277619D01*
X84804761Y-92372857D01*
X84804761Y-92610952D01*
X84757142Y-92706190D01*
X84709523Y-92753809D01*
X84614285Y-92801428D01*
X84423809Y-92801428D01*
X84328571Y-92753809D01*
X84280952Y-92706190D01*
X84233333Y-92610952D01*
X86661904Y-88182380D02*
X86090476Y-88182380D01*
X86376190Y-89182380D02*
X86376190Y-88182380D01*
X85757142Y-89182380D02*
X85757142Y-88182380D01*
X85376190Y-88182380D01*
X85280952Y-88230000D01*
X85233333Y-88277619D01*
X85185714Y-88372857D01*
X85185714Y-88515714D01*
X85233333Y-88610952D01*
X85280952Y-88658571D01*
X85376190Y-88706190D01*
X85757142Y-88706190D01*
X84614285Y-88610952D02*
X84709523Y-88563333D01*
X84757142Y-88515714D01*
X84804761Y-88420476D01*
X84804761Y-88372857D01*
X84757142Y-88277619D01*
X84709523Y-88230000D01*
X84614285Y-88182380D01*
X84423809Y-88182380D01*
X84328571Y-88230000D01*
X84280952Y-88277619D01*
X84233333Y-88372857D01*
X84233333Y-88420476D01*
X84280952Y-88515714D01*
X84328571Y-88563333D01*
X84423809Y-88610952D01*
X84614285Y-88610952D01*
X84709523Y-88658571D01*
X84757142Y-88706190D01*
X84804761Y-88801428D01*
X84804761Y-88991904D01*
X84757142Y-89087142D01*
X84709523Y-89134761D01*
X84614285Y-89182380D01*
X84423809Y-89182380D01*
X84328571Y-89134761D01*
X84280952Y-89087142D01*
X84233333Y-88991904D01*
X84233333Y-88801428D01*
X84280952Y-88706190D01*
X84328571Y-88658571D01*
X84423809Y-88610952D01*
X86661904Y-84182380D02*
X86090476Y-84182380D01*
X86376190Y-85182380D02*
X86376190Y-84182380D01*
X85757142Y-85182380D02*
X85757142Y-84182380D01*
X85376190Y-84182380D01*
X85280952Y-84230000D01*
X85233333Y-84277619D01*
X85185714Y-84372857D01*
X85185714Y-84515714D01*
X85233333Y-84610952D01*
X85280952Y-84658571D01*
X85376190Y-84706190D01*
X85757142Y-84706190D01*
X84852380Y-84182380D02*
X84185714Y-84182380D01*
X84614285Y-85182380D01*
X78385714Y-107088571D02*
X78242857Y-107136190D01*
X78195238Y-107183809D01*
X78147619Y-107279047D01*
X78147619Y-107421904D01*
X78195238Y-107517142D01*
X78242857Y-107564761D01*
X78338095Y-107612380D01*
X78719047Y-107612380D01*
X78719047Y-106612380D01*
X78385714Y-106612380D01*
X78290476Y-106660000D01*
X78242857Y-106707619D01*
X78195238Y-106802857D01*
X78195238Y-106898095D01*
X78242857Y-106993333D01*
X78290476Y-107040952D01*
X78385714Y-107088571D01*
X78719047Y-107088571D01*
X77861904Y-106612380D02*
X77290476Y-106612380D01*
X77576190Y-107612380D02*
X77576190Y-106612380D01*
X76433333Y-107612380D02*
X77004761Y-107612380D01*
X76719047Y-107612380D02*
X76719047Y-106612380D01*
X76814285Y-106755238D01*
X76909523Y-106850476D01*
X77004761Y-106898095D01*
X116116428Y-97107142D02*
X114973571Y-97107142D01*
X94526428Y-97107142D02*
X93383571Y-97107142D01*
X93955000Y-97678571D02*
X93955000Y-96535714D01*
X116116428Y-82117142D02*
X114973571Y-82117142D01*
X115545000Y-82688571D02*
X115545000Y-81545714D01*
X94526428Y-82117142D02*
X93383571Y-82117142D01*
X74361428Y-97107142D02*
X73218571Y-97107142D01*
X73790000Y-97678571D02*
X73790000Y-96535714D01*
X74361428Y-82117142D02*
X73218571Y-82117142D01*
X138333333Y-87782380D02*
X138333333Y-88496666D01*
X138380952Y-88639523D01*
X138476190Y-88734761D01*
X138619047Y-88782380D01*
X138714285Y-88782380D01*
X137333333Y-88782380D02*
X137904761Y-88782380D01*
X137619047Y-88782380D02*
X137619047Y-87782380D01*
X137714285Y-87925238D01*
X137809523Y-88020476D01*
X137904761Y-88068095D01*
X138333333Y-101782380D02*
X138333333Y-102496666D01*
X138380952Y-102639523D01*
X138476190Y-102734761D01*
X138619047Y-102782380D01*
X138714285Y-102782380D01*
X137904761Y-101877619D02*
X137857142Y-101830000D01*
X137761904Y-101782380D01*
X137523809Y-101782380D01*
X137428571Y-101830000D01*
X137380952Y-101877619D01*
X137333333Y-101972857D01*
X137333333Y-102068095D01*
X137380952Y-102210952D01*
X137952380Y-102782380D01*
X137333333Y-102782380D01*
X116095971Y-111833446D02*
X116246335Y-111271967D01*
X116632938Y-111638006D02*
X116290918Y-110698314D01*
X115932940Y-110828607D01*
X115859732Y-110905928D01*
X115831271Y-110966962D01*
X115819098Y-111072743D01*
X115867958Y-111206985D01*
X115945278Y-111280193D01*
X116006312Y-111308653D01*
X116112093Y-111320827D01*
X116470071Y-111190534D01*
X115201026Y-112159180D02*
X115737993Y-111963740D01*
X115469509Y-112061460D02*
X115127489Y-111121767D01*
X115265844Y-111223436D01*
X115387912Y-111280357D01*
X115493693Y-111292531D01*
X114533601Y-111439275D02*
X114472567Y-111410815D01*
X114366786Y-111398641D01*
X114143049Y-111480074D01*
X114069841Y-111557395D01*
X114041381Y-111618429D01*
X114029207Y-111724210D01*
X114061780Y-111813704D01*
X114155387Y-111931660D01*
X114887795Y-112273187D01*
X114306080Y-112484913D01*
X93095971Y-111833446D02*
X93246335Y-111271967D01*
X93632938Y-111638006D02*
X93290918Y-110698314D01*
X92932940Y-110828607D01*
X92859732Y-110905928D01*
X92831271Y-110966962D01*
X92819098Y-111072743D01*
X92867958Y-111206985D01*
X92945278Y-111280193D01*
X93006312Y-111308653D01*
X93112093Y-111320827D01*
X93470071Y-111190534D01*
X92201026Y-112159180D02*
X92737993Y-111963740D01*
X92469509Y-112061460D02*
X92127489Y-111121767D01*
X92265844Y-111223436D01*
X92387912Y-111280357D01*
X92493693Y-111292531D01*
X91545775Y-111333494D02*
X90964060Y-111545221D01*
X91407584Y-111789192D01*
X91273343Y-111838052D01*
X91200135Y-111915373D01*
X91171674Y-111976407D01*
X91159500Y-112082188D01*
X91240934Y-112305924D01*
X91318254Y-112379132D01*
X91379288Y-112407593D01*
X91485069Y-112419767D01*
X91753553Y-112322047D01*
X91826761Y-112244726D01*
X91855221Y-112183692D01*
M02*
