G04 #@! TF.GenerationSoftware,KiCad,Pcbnew,5.1.5*
G04 #@! TF.CreationDate,2020-02-13T13:25:46+01:00*
G04 #@! TF.ProjectId,lora_fence_monitor,6c6f7261-5f66-4656-9e63-655f6d6f6e69,rev?*
G04 #@! TF.SameCoordinates,Original*
G04 #@! TF.FileFunction,Soldermask,Top*
G04 #@! TF.FilePolarity,Negative*
%FSLAX46Y46*%
G04 Gerber Fmt 4.6, Leading zero omitted, Abs format (unit mm)*
G04 Created by KiCad (PCBNEW 5.1.5) date 2020-02-13 13:25:46*
%MOMM*%
%LPD*%
G04 APERTURE LIST*
%ADD10C,0.100000*%
G04 APERTURE END LIST*
D10*
G36*
X139858523Y-119327194D02*
G01*
X140142008Y-119383583D01*
X140542565Y-119549499D01*
X140542567Y-119549500D01*
X140641575Y-119615655D01*
X140903056Y-119790371D01*
X141209629Y-120096944D01*
X141209630Y-120096946D01*
X141447992Y-120453679D01*
X141450501Y-120457435D01*
X141616417Y-120857992D01*
X141701000Y-121283220D01*
X141701000Y-121716780D01*
X141616417Y-122142008D01*
X141450501Y-122542565D01*
X141209629Y-122903056D01*
X140903056Y-123209629D01*
X140722811Y-123330065D01*
X140542567Y-123450500D01*
X140542566Y-123450501D01*
X140542565Y-123450501D01*
X140142008Y-123616417D01*
X139858523Y-123672806D01*
X139716781Y-123701000D01*
X139283219Y-123701000D01*
X139141477Y-123672806D01*
X138857992Y-123616417D01*
X138457435Y-123450501D01*
X138457434Y-123450501D01*
X138457433Y-123450500D01*
X138277190Y-123330065D01*
X138096944Y-123209629D01*
X137790371Y-122903056D01*
X137549499Y-122542565D01*
X137383583Y-122142008D01*
X137299000Y-121716780D01*
X137299000Y-121283220D01*
X137383583Y-120857992D01*
X137549499Y-120457435D01*
X137552009Y-120453679D01*
X137790370Y-120096946D01*
X137790371Y-120096944D01*
X138096944Y-119790371D01*
X138358425Y-119615655D01*
X138457433Y-119549500D01*
X138457435Y-119549499D01*
X138857992Y-119383583D01*
X139141477Y-119327194D01*
X139283219Y-119299000D01*
X139716781Y-119299000D01*
X139858523Y-119327194D01*
G37*
G36*
X71858523Y-119327194D02*
G01*
X72142008Y-119383583D01*
X72542565Y-119549499D01*
X72542567Y-119549500D01*
X72641575Y-119615655D01*
X72903056Y-119790371D01*
X73209629Y-120096944D01*
X73209630Y-120096946D01*
X73447992Y-120453679D01*
X73450501Y-120457435D01*
X73616417Y-120857992D01*
X73701000Y-121283220D01*
X73701000Y-121716780D01*
X73616417Y-122142008D01*
X73450501Y-122542565D01*
X73209629Y-122903056D01*
X72903056Y-123209629D01*
X72722810Y-123330065D01*
X72542567Y-123450500D01*
X72542566Y-123450501D01*
X72542565Y-123450501D01*
X72142008Y-123616417D01*
X71858523Y-123672806D01*
X71716781Y-123701000D01*
X71283219Y-123701000D01*
X71141477Y-123672806D01*
X70857992Y-123616417D01*
X70457435Y-123450501D01*
X70457434Y-123450501D01*
X70457433Y-123450500D01*
X70277190Y-123330065D01*
X70096944Y-123209629D01*
X69790371Y-122903056D01*
X69549499Y-122542565D01*
X69383583Y-122142008D01*
X69299000Y-121716780D01*
X69299000Y-121283220D01*
X69383583Y-120857992D01*
X69549499Y-120457435D01*
X69552009Y-120453679D01*
X69790370Y-120096946D01*
X69790371Y-120096944D01*
X70096944Y-119790371D01*
X70358425Y-119615655D01*
X70457433Y-119549500D01*
X70457435Y-119549499D01*
X70857992Y-119383583D01*
X71141477Y-119327194D01*
X71283219Y-119299000D01*
X71716781Y-119299000D01*
X71858523Y-119327194D01*
G37*
G36*
X83722403Y-119583605D02*
G01*
X83883530Y-119615655D01*
X84111198Y-119709958D01*
X84316093Y-119846865D01*
X84490342Y-120021114D01*
X84627249Y-120226009D01*
X84721552Y-120453677D01*
X84769627Y-120695367D01*
X84769627Y-120941793D01*
X84721552Y-121183483D01*
X84627249Y-121411151D01*
X84490342Y-121616046D01*
X84316093Y-121790295D01*
X84111198Y-121927202D01*
X83883530Y-122021505D01*
X83722403Y-122053555D01*
X83641841Y-122069580D01*
X83395413Y-122069580D01*
X83314851Y-122053555D01*
X83153724Y-122021505D01*
X82926056Y-121927202D01*
X82721161Y-121790295D01*
X82546912Y-121616046D01*
X82410005Y-121411151D01*
X82315702Y-121183483D01*
X82267627Y-120941793D01*
X82267627Y-120695367D01*
X82315702Y-120453677D01*
X82410005Y-120226009D01*
X82546912Y-120021114D01*
X82721161Y-119846865D01*
X82926056Y-119709958D01*
X83153724Y-119615655D01*
X83314851Y-119583605D01*
X83395413Y-119567580D01*
X83641841Y-119567580D01*
X83722403Y-119583605D01*
G37*
G36*
X106722403Y-119583605D02*
G01*
X106883530Y-119615655D01*
X107111198Y-119709958D01*
X107316093Y-119846865D01*
X107490342Y-120021114D01*
X107627249Y-120226009D01*
X107721552Y-120453677D01*
X107769627Y-120695367D01*
X107769627Y-120941793D01*
X107721552Y-121183483D01*
X107627249Y-121411151D01*
X107490342Y-121616046D01*
X107316093Y-121790295D01*
X107111198Y-121927202D01*
X106883530Y-122021505D01*
X106722403Y-122053555D01*
X106641841Y-122069580D01*
X106395413Y-122069580D01*
X106314851Y-122053555D01*
X106153724Y-122021505D01*
X105926056Y-121927202D01*
X105721161Y-121790295D01*
X105546912Y-121616046D01*
X105410005Y-121411151D01*
X105315702Y-121183483D01*
X105267627Y-120941793D01*
X105267627Y-120695367D01*
X105315702Y-120453677D01*
X105410005Y-120226009D01*
X105546912Y-120021114D01*
X105721161Y-119846865D01*
X105926056Y-119709958D01*
X106153724Y-119615655D01*
X106314851Y-119583605D01*
X106395413Y-119567580D01*
X106641841Y-119567580D01*
X106722403Y-119583605D01*
G37*
G36*
X138206031Y-111164207D02*
G01*
X138301874Y-111193281D01*
X138404146Y-111224305D01*
X138514949Y-111283530D01*
X138586729Y-111321897D01*
X138746765Y-111453235D01*
X138878103Y-111613271D01*
X138878104Y-111613273D01*
X138975695Y-111795853D01*
X139001864Y-111882120D01*
X139035793Y-111993968D01*
X139051000Y-112148370D01*
X139051000Y-113851630D01*
X139035793Y-114006032D01*
X139035792Y-114006034D01*
X138975695Y-114204147D01*
X138889264Y-114365848D01*
X138878103Y-114386729D01*
X138746765Y-114546765D01*
X138586729Y-114678103D01*
X138586727Y-114678104D01*
X138404147Y-114775695D01*
X138366823Y-114787017D01*
X138206032Y-114835793D01*
X138000000Y-114856085D01*
X137793969Y-114835793D01*
X137633178Y-114787017D01*
X137595854Y-114775695D01*
X137413274Y-114678104D01*
X137413272Y-114678103D01*
X137253236Y-114546765D01*
X137121898Y-114386729D01*
X137110737Y-114365848D01*
X137024306Y-114204147D01*
X136964208Y-114006034D01*
X136949000Y-113851626D01*
X136949000Y-112148370D01*
X136964207Y-111993969D01*
X137024305Y-111795855D01*
X137024305Y-111795854D01*
X137121896Y-111613273D01*
X137121897Y-111613271D01*
X137253235Y-111453235D01*
X137413271Y-111321897D01*
X137518270Y-111265774D01*
X137595853Y-111224305D01*
X137698125Y-111193281D01*
X137793968Y-111164207D01*
X138000000Y-111143915D01*
X138206031Y-111164207D01*
G37*
G36*
X75206032Y-111164207D02*
G01*
X75301875Y-111193281D01*
X75404147Y-111224305D01*
X75481730Y-111265774D01*
X75586729Y-111321897D01*
X75746765Y-111453235D01*
X75878103Y-111613271D01*
X75878104Y-111613273D01*
X75975695Y-111795853D01*
X76001864Y-111882120D01*
X76035793Y-111993968D01*
X76051000Y-112148370D01*
X76051000Y-113851630D01*
X76035793Y-114006032D01*
X76035792Y-114006034D01*
X75975695Y-114204147D01*
X75889264Y-114365848D01*
X75878103Y-114386729D01*
X75746765Y-114546765D01*
X75586729Y-114678103D01*
X75586727Y-114678104D01*
X75404146Y-114775695D01*
X75366822Y-114787017D01*
X75206031Y-114835793D01*
X75000000Y-114856085D01*
X74793968Y-114835793D01*
X74633177Y-114787017D01*
X74595853Y-114775695D01*
X74413273Y-114678104D01*
X74413271Y-114678103D01*
X74253235Y-114546765D01*
X74121897Y-114386729D01*
X74024306Y-114204147D01*
X74024305Y-114204146D01*
X73964208Y-114006033D01*
X73964207Y-114006031D01*
X73949000Y-113851629D01*
X73949000Y-112148370D01*
X73964208Y-111993968D01*
X73964208Y-111993966D01*
X74024306Y-111795853D01*
X74121897Y-111613273D01*
X74121898Y-111613271D01*
X74253236Y-111453235D01*
X74413272Y-111321897D01*
X74518271Y-111265774D01*
X74595854Y-111224305D01*
X74698126Y-111193281D01*
X74793969Y-111164207D01*
X75000000Y-111143915D01*
X75206032Y-111164207D01*
G37*
G36*
X133875673Y-111153469D02*
G01*
X133916470Y-111165844D01*
X133954063Y-111185938D01*
X133987017Y-111212983D01*
X134014062Y-111245937D01*
X134034156Y-111283530D01*
X134046531Y-111324327D01*
X134051000Y-111369697D01*
X134051000Y-114630303D01*
X134046531Y-114675673D01*
X134034156Y-114716470D01*
X134014062Y-114754063D01*
X133987017Y-114787017D01*
X133954063Y-114814062D01*
X133916470Y-114834156D01*
X133875673Y-114846531D01*
X133830303Y-114851000D01*
X132169697Y-114851000D01*
X132124327Y-114846531D01*
X132083530Y-114834156D01*
X132045937Y-114814062D01*
X132012983Y-114787017D01*
X131985938Y-114754063D01*
X131965844Y-114716470D01*
X131953469Y-114675673D01*
X131949000Y-114630303D01*
X131949000Y-111369697D01*
X131953469Y-111324327D01*
X131965844Y-111283530D01*
X131985938Y-111245937D01*
X132012983Y-111212983D01*
X132045937Y-111185938D01*
X132083530Y-111165844D01*
X132124327Y-111153469D01*
X132169697Y-111149000D01*
X133830303Y-111149000D01*
X133875673Y-111153469D01*
G37*
G36*
X80875673Y-111153469D02*
G01*
X80916470Y-111165844D01*
X80954063Y-111185938D01*
X80987017Y-111212983D01*
X81014062Y-111245937D01*
X81034156Y-111283530D01*
X81046531Y-111324327D01*
X81051000Y-111369697D01*
X81051000Y-114630303D01*
X81046531Y-114675673D01*
X81034156Y-114716470D01*
X81014062Y-114754063D01*
X80987017Y-114787017D01*
X80954063Y-114814062D01*
X80916470Y-114834156D01*
X80875673Y-114846531D01*
X80830303Y-114851000D01*
X79169697Y-114851000D01*
X79124327Y-114846531D01*
X79083530Y-114834156D01*
X79045937Y-114814062D01*
X79012983Y-114787017D01*
X78985938Y-114754063D01*
X78965844Y-114716470D01*
X78953469Y-114675673D01*
X78949000Y-114630303D01*
X78949000Y-111369697D01*
X78953469Y-111324327D01*
X78965844Y-111283530D01*
X78985938Y-111245937D01*
X79012983Y-111212983D01*
X79045937Y-111185938D01*
X79083530Y-111165844D01*
X79124327Y-111153469D01*
X79169697Y-111149000D01*
X80830303Y-111149000D01*
X80875673Y-111153469D01*
G37*
G36*
X105203776Y-111765025D02*
G01*
X105364903Y-111797075D01*
X105592571Y-111891378D01*
X105797466Y-112028285D01*
X105971715Y-112202534D01*
X106108622Y-112407429D01*
X106202925Y-112635097D01*
X106251000Y-112876787D01*
X106251000Y-113123213D01*
X106202925Y-113364903D01*
X106108622Y-113592571D01*
X105971715Y-113797466D01*
X105797466Y-113971715D01*
X105592571Y-114108622D01*
X105364903Y-114202925D01*
X105203776Y-114234975D01*
X105123214Y-114251000D01*
X104876786Y-114251000D01*
X104796224Y-114234975D01*
X104635097Y-114202925D01*
X104407429Y-114108622D01*
X104202534Y-113971715D01*
X104028285Y-113797466D01*
X103891378Y-113592571D01*
X103797075Y-113364903D01*
X103749000Y-113123213D01*
X103749000Y-112876787D01*
X103797075Y-112635097D01*
X103891378Y-112407429D01*
X104028285Y-112202534D01*
X104202534Y-112028285D01*
X104407429Y-111891378D01*
X104635097Y-111797075D01*
X104796224Y-111765025D01*
X104876786Y-111749000D01*
X105123214Y-111749000D01*
X105203776Y-111765025D01*
G37*
G36*
X128203776Y-111765025D02*
G01*
X128364903Y-111797075D01*
X128592571Y-111891378D01*
X128797466Y-112028285D01*
X128971715Y-112202534D01*
X129108622Y-112407429D01*
X129202925Y-112635097D01*
X129251000Y-112876787D01*
X129251000Y-113123213D01*
X129202925Y-113364903D01*
X129108622Y-113592571D01*
X128971715Y-113797466D01*
X128797466Y-113971715D01*
X128592571Y-114108622D01*
X128364903Y-114202925D01*
X128203776Y-114234975D01*
X128123214Y-114251000D01*
X127876786Y-114251000D01*
X127796224Y-114234975D01*
X127635097Y-114202925D01*
X127407429Y-114108622D01*
X127202534Y-113971715D01*
X127028285Y-113797466D01*
X126891378Y-113592571D01*
X126797075Y-113364903D01*
X126749000Y-113123213D01*
X126749000Y-112876787D01*
X126797075Y-112635097D01*
X126891378Y-112407429D01*
X127028285Y-112202534D01*
X127202534Y-112028285D01*
X127407429Y-111891378D01*
X127635097Y-111797075D01*
X127796224Y-111765025D01*
X127876786Y-111749000D01*
X128123214Y-111749000D01*
X128203776Y-111765025D01*
G37*
G36*
X132070871Y-107853882D02*
G01*
X132115694Y-107867479D01*
X132157008Y-107889562D01*
X132193220Y-107919280D01*
X132222938Y-107955492D01*
X132245021Y-107996806D01*
X132258618Y-108041629D01*
X132263500Y-108091197D01*
X132263500Y-109108803D01*
X132258618Y-109158371D01*
X132245021Y-109203194D01*
X132222938Y-109244508D01*
X132193220Y-109280720D01*
X132157008Y-109310438D01*
X132115694Y-109332521D01*
X132070871Y-109346118D01*
X132021303Y-109351000D01*
X131428697Y-109351000D01*
X131379129Y-109346118D01*
X131334306Y-109332521D01*
X131292992Y-109310438D01*
X131256780Y-109280720D01*
X131227062Y-109244508D01*
X131204979Y-109203194D01*
X131191382Y-109158371D01*
X131186500Y-109108803D01*
X131186500Y-108091197D01*
X131191382Y-108041629D01*
X131204979Y-107996806D01*
X131227062Y-107955492D01*
X131256780Y-107919280D01*
X131292992Y-107889562D01*
X131334306Y-107867479D01*
X131379129Y-107853882D01*
X131428697Y-107849000D01*
X132021303Y-107849000D01*
X132070871Y-107853882D01*
G37*
G36*
X133945871Y-107853882D02*
G01*
X133990694Y-107867479D01*
X134032008Y-107889562D01*
X134068220Y-107919280D01*
X134097938Y-107955492D01*
X134120021Y-107996806D01*
X134133618Y-108041629D01*
X134138500Y-108091197D01*
X134138500Y-109108803D01*
X134133618Y-109158371D01*
X134120021Y-109203194D01*
X134097938Y-109244508D01*
X134068220Y-109280720D01*
X134032008Y-109310438D01*
X133990694Y-109332521D01*
X133945871Y-109346118D01*
X133896303Y-109351000D01*
X133303697Y-109351000D01*
X133254129Y-109346118D01*
X133209306Y-109332521D01*
X133167992Y-109310438D01*
X133131780Y-109280720D01*
X133102062Y-109244508D01*
X133079979Y-109203194D01*
X133066382Y-109158371D01*
X133061500Y-109108803D01*
X133061500Y-108091197D01*
X133066382Y-108041629D01*
X133079979Y-107996806D01*
X133102062Y-107955492D01*
X133131780Y-107919280D01*
X133167992Y-107889562D01*
X133209306Y-107867479D01*
X133254129Y-107853882D01*
X133303697Y-107849000D01*
X133896303Y-107849000D01*
X133945871Y-107853882D01*
G37*
G36*
X130083371Y-107853882D02*
G01*
X130128194Y-107867479D01*
X130169508Y-107889562D01*
X130205720Y-107919280D01*
X130235438Y-107955492D01*
X130257521Y-107996806D01*
X130271118Y-108041629D01*
X130276000Y-108091197D01*
X130276000Y-109108803D01*
X130271118Y-109158371D01*
X130257521Y-109203194D01*
X130235438Y-109244508D01*
X130205720Y-109280720D01*
X130169508Y-109310438D01*
X130128194Y-109332521D01*
X130083371Y-109346118D01*
X130033803Y-109351000D01*
X129441197Y-109351000D01*
X129391629Y-109346118D01*
X129346806Y-109332521D01*
X129305492Y-109310438D01*
X129269280Y-109280720D01*
X129239562Y-109244508D01*
X129217479Y-109203194D01*
X129203882Y-109158371D01*
X129199000Y-109108803D01*
X129199000Y-108091197D01*
X129203882Y-108041629D01*
X129217479Y-107996806D01*
X129239562Y-107955492D01*
X129269280Y-107919280D01*
X129305492Y-107889562D01*
X129346806Y-107867479D01*
X129391629Y-107853882D01*
X129441197Y-107849000D01*
X130033803Y-107849000D01*
X130083371Y-107853882D01*
G37*
G36*
X128208371Y-107853882D02*
G01*
X128253194Y-107867479D01*
X128294508Y-107889562D01*
X128330720Y-107919280D01*
X128360438Y-107955492D01*
X128382521Y-107996806D01*
X128396118Y-108041629D01*
X128401000Y-108091197D01*
X128401000Y-109108803D01*
X128396118Y-109158371D01*
X128382521Y-109203194D01*
X128360438Y-109244508D01*
X128330720Y-109280720D01*
X128294508Y-109310438D01*
X128253194Y-109332521D01*
X128208371Y-109346118D01*
X128158803Y-109351000D01*
X127566197Y-109351000D01*
X127516629Y-109346118D01*
X127471806Y-109332521D01*
X127430492Y-109310438D01*
X127394280Y-109280720D01*
X127364562Y-109244508D01*
X127342479Y-109203194D01*
X127328882Y-109158371D01*
X127324000Y-109108803D01*
X127324000Y-108091197D01*
X127328882Y-108041629D01*
X127342479Y-107996806D01*
X127364562Y-107955492D01*
X127394280Y-107919280D01*
X127430492Y-107889562D01*
X127471806Y-107867479D01*
X127516629Y-107853882D01*
X127566197Y-107849000D01*
X128158803Y-107849000D01*
X128208371Y-107853882D01*
G37*
G36*
X109167099Y-102706750D02*
G01*
X109379488Y-102748997D01*
X109616255Y-102847069D01*
X109616257Y-102847070D01*
X109691190Y-102897139D01*
X109829339Y-102989447D01*
X110010553Y-103170661D01*
X110152931Y-103383745D01*
X110251003Y-103620512D01*
X110301000Y-103871863D01*
X110301000Y-104128137D01*
X110251003Y-104379488D01*
X110152931Y-104616255D01*
X110010553Y-104829339D01*
X109829339Y-105010553D01*
X109722797Y-105081742D01*
X109616257Y-105152930D01*
X109616256Y-105152931D01*
X109616255Y-105152931D01*
X109379488Y-105251003D01*
X109211921Y-105284334D01*
X109128138Y-105301000D01*
X108871862Y-105301000D01*
X108788079Y-105284334D01*
X108620512Y-105251003D01*
X108383745Y-105152931D01*
X108383744Y-105152931D01*
X108383743Y-105152930D01*
X108277203Y-105081742D01*
X108170661Y-105010553D01*
X107989447Y-104829339D01*
X107847069Y-104616255D01*
X107748997Y-104379488D01*
X107699000Y-104128137D01*
X107699000Y-103871863D01*
X107748997Y-103620512D01*
X107847069Y-103383745D01*
X107989447Y-103170661D01*
X108170661Y-102989447D01*
X108308810Y-102897139D01*
X108383743Y-102847070D01*
X108383745Y-102847069D01*
X108620512Y-102748997D01*
X108832901Y-102706750D01*
X108871862Y-102699000D01*
X109128138Y-102699000D01*
X109167099Y-102706750D01*
G37*
G36*
X83845871Y-101828882D02*
G01*
X83890694Y-101842479D01*
X83932008Y-101864562D01*
X83968220Y-101894280D01*
X83997938Y-101930492D01*
X84020021Y-101971806D01*
X84033618Y-102016629D01*
X84038500Y-102066197D01*
X84038500Y-103083803D01*
X84033618Y-103133371D01*
X84020021Y-103178194D01*
X83997938Y-103219508D01*
X83968220Y-103255720D01*
X83932008Y-103285438D01*
X83890694Y-103307521D01*
X83845871Y-103321118D01*
X83796303Y-103326000D01*
X83203697Y-103326000D01*
X83154129Y-103321118D01*
X83109306Y-103307521D01*
X83067992Y-103285438D01*
X83031780Y-103255720D01*
X83002062Y-103219508D01*
X82979979Y-103178194D01*
X82966382Y-103133371D01*
X82961500Y-103083803D01*
X82961500Y-102066197D01*
X82966382Y-102016629D01*
X82979979Y-101971806D01*
X83002062Y-101930492D01*
X83031780Y-101894280D01*
X83067992Y-101864562D01*
X83109306Y-101842479D01*
X83154129Y-101828882D01*
X83203697Y-101824000D01*
X83796303Y-101824000D01*
X83845871Y-101828882D01*
G37*
G36*
X85720871Y-101828882D02*
G01*
X85765694Y-101842479D01*
X85807008Y-101864562D01*
X85843220Y-101894280D01*
X85872938Y-101930492D01*
X85895021Y-101971806D01*
X85908618Y-102016629D01*
X85913500Y-102066197D01*
X85913500Y-103083803D01*
X85908618Y-103133371D01*
X85895021Y-103178194D01*
X85872938Y-103219508D01*
X85843220Y-103255720D01*
X85807008Y-103285438D01*
X85765694Y-103307521D01*
X85720871Y-103321118D01*
X85671303Y-103326000D01*
X85078697Y-103326000D01*
X85029129Y-103321118D01*
X84984306Y-103307521D01*
X84942992Y-103285438D01*
X84906780Y-103255720D01*
X84877062Y-103219508D01*
X84854979Y-103178194D01*
X84841382Y-103133371D01*
X84836500Y-103083803D01*
X84836500Y-102066197D01*
X84841382Y-102016629D01*
X84854979Y-101971806D01*
X84877062Y-101930492D01*
X84906780Y-101894280D01*
X84942992Y-101864562D01*
X84984306Y-101842479D01*
X85029129Y-101828882D01*
X85078697Y-101824000D01*
X85671303Y-101824000D01*
X85720871Y-101828882D01*
G37*
G36*
X124045871Y-101478882D02*
G01*
X124090694Y-101492479D01*
X124132008Y-101514562D01*
X124168220Y-101544280D01*
X124197938Y-101580492D01*
X124220021Y-101621806D01*
X124233618Y-101666629D01*
X124238500Y-101716197D01*
X124238500Y-102733803D01*
X124233618Y-102783371D01*
X124220021Y-102828194D01*
X124197938Y-102869508D01*
X124168220Y-102905720D01*
X124132008Y-102935438D01*
X124090694Y-102957521D01*
X124045871Y-102971118D01*
X123996303Y-102976000D01*
X123403697Y-102976000D01*
X123354129Y-102971118D01*
X123309306Y-102957521D01*
X123267992Y-102935438D01*
X123231780Y-102905720D01*
X123202062Y-102869508D01*
X123179979Y-102828194D01*
X123166382Y-102783371D01*
X123161500Y-102733803D01*
X123161500Y-101716197D01*
X123166382Y-101666629D01*
X123179979Y-101621806D01*
X123202062Y-101580492D01*
X123231780Y-101544280D01*
X123267992Y-101514562D01*
X123309306Y-101492479D01*
X123354129Y-101478882D01*
X123403697Y-101474000D01*
X123996303Y-101474000D01*
X124045871Y-101478882D01*
G37*
G36*
X122170871Y-101478882D02*
G01*
X122215694Y-101492479D01*
X122257008Y-101514562D01*
X122293220Y-101544280D01*
X122322938Y-101580492D01*
X122345021Y-101621806D01*
X122358618Y-101666629D01*
X122363500Y-101716197D01*
X122363500Y-102733803D01*
X122358618Y-102783371D01*
X122345021Y-102828194D01*
X122322938Y-102869508D01*
X122293220Y-102905720D01*
X122257008Y-102935438D01*
X122215694Y-102957521D01*
X122170871Y-102971118D01*
X122121303Y-102976000D01*
X121528697Y-102976000D01*
X121479129Y-102971118D01*
X121434306Y-102957521D01*
X121392992Y-102935438D01*
X121356780Y-102905720D01*
X121327062Y-102869508D01*
X121304979Y-102828194D01*
X121291382Y-102783371D01*
X121286500Y-102733803D01*
X121286500Y-101716197D01*
X121291382Y-101666629D01*
X121304979Y-101621806D01*
X121327062Y-101580492D01*
X121356780Y-101544280D01*
X121392992Y-101514562D01*
X121434306Y-101492479D01*
X121479129Y-101478882D01*
X121528697Y-101474000D01*
X122121303Y-101474000D01*
X122170871Y-101478882D01*
G37*
G36*
X127301000Y-101626000D02*
G01*
X125499000Y-101626000D01*
X125499000Y-99824000D01*
X127301000Y-99824000D01*
X127301000Y-101626000D01*
G37*
G36*
X138901000Y-100901000D02*
G01*
X137099000Y-100901000D01*
X137099000Y-99099000D01*
X138901000Y-99099000D01*
X138901000Y-100901000D01*
G37*
G36*
X85876000Y-100776000D02*
G01*
X84874000Y-100776000D01*
X84874000Y-99874000D01*
X85876000Y-99874000D01*
X85876000Y-100776000D01*
G37*
G36*
X123690989Y-99453402D02*
G01*
X123731129Y-99465577D01*
X123768121Y-99485350D01*
X123800542Y-99511958D01*
X123827150Y-99544379D01*
X123846923Y-99581371D01*
X123859098Y-99621511D01*
X123863500Y-99666197D01*
X123863500Y-100283803D01*
X123859098Y-100328489D01*
X123846923Y-100368629D01*
X123827150Y-100405621D01*
X123800542Y-100438042D01*
X123768121Y-100464650D01*
X123731129Y-100484423D01*
X123690989Y-100496598D01*
X123646303Y-100501000D01*
X123103697Y-100501000D01*
X123059011Y-100496598D01*
X123018871Y-100484423D01*
X122981879Y-100464650D01*
X122949458Y-100438042D01*
X122922850Y-100405621D01*
X122903077Y-100368629D01*
X122890902Y-100328489D01*
X122886500Y-100283803D01*
X122886500Y-99666197D01*
X122890902Y-99621511D01*
X122903077Y-99581371D01*
X122922850Y-99544379D01*
X122949458Y-99511958D01*
X122981879Y-99485350D01*
X123018871Y-99465577D01*
X123059011Y-99453402D01*
X123103697Y-99449000D01*
X123646303Y-99449000D01*
X123690989Y-99453402D01*
G37*
G36*
X122115989Y-99453402D02*
G01*
X122156129Y-99465577D01*
X122193121Y-99485350D01*
X122225542Y-99511958D01*
X122252150Y-99544379D01*
X122271923Y-99581371D01*
X122284098Y-99621511D01*
X122288500Y-99666197D01*
X122288500Y-100283803D01*
X122284098Y-100328489D01*
X122271923Y-100368629D01*
X122252150Y-100405621D01*
X122225542Y-100438042D01*
X122193121Y-100464650D01*
X122156129Y-100484423D01*
X122115989Y-100496598D01*
X122071303Y-100501000D01*
X121528697Y-100501000D01*
X121484011Y-100496598D01*
X121443871Y-100484423D01*
X121406879Y-100464650D01*
X121374458Y-100438042D01*
X121347850Y-100405621D01*
X121328077Y-100368629D01*
X121315902Y-100328489D01*
X121311500Y-100283803D01*
X121311500Y-99666197D01*
X121315902Y-99621511D01*
X121328077Y-99581371D01*
X121347850Y-99544379D01*
X121374458Y-99511958D01*
X121406879Y-99485350D01*
X121443871Y-99465577D01*
X121484011Y-99453402D01*
X121528697Y-99449000D01*
X122071303Y-99449000D01*
X122115989Y-99453402D01*
G37*
G36*
X87528489Y-99515902D02*
G01*
X87568629Y-99528077D01*
X87605621Y-99547850D01*
X87638042Y-99574458D01*
X87664650Y-99606879D01*
X87684423Y-99643871D01*
X87696598Y-99684011D01*
X87701000Y-99728697D01*
X87701000Y-100271303D01*
X87696598Y-100315989D01*
X87684423Y-100356129D01*
X87664650Y-100393121D01*
X87638042Y-100425542D01*
X87605621Y-100452150D01*
X87568629Y-100471923D01*
X87528489Y-100484098D01*
X87483803Y-100488500D01*
X86866197Y-100488500D01*
X86821511Y-100484098D01*
X86781371Y-100471923D01*
X86744379Y-100452150D01*
X86711958Y-100425542D01*
X86685350Y-100393121D01*
X86665577Y-100356129D01*
X86653402Y-100315989D01*
X86649000Y-100271303D01*
X86649000Y-99728697D01*
X86653402Y-99684011D01*
X86665577Y-99643871D01*
X86685350Y-99606879D01*
X86711958Y-99574458D01*
X86744379Y-99547850D01*
X86781371Y-99528077D01*
X86821511Y-99515902D01*
X86866197Y-99511500D01*
X87483803Y-99511500D01*
X87528489Y-99515902D01*
G37*
G36*
X83876000Y-99826000D02*
G01*
X82874000Y-99826000D01*
X82874000Y-98924000D01*
X83876000Y-98924000D01*
X83876000Y-99826000D01*
G37*
G36*
X87528489Y-97940902D02*
G01*
X87568629Y-97953077D01*
X87605621Y-97972850D01*
X87638042Y-97999458D01*
X87664650Y-98031879D01*
X87684423Y-98068871D01*
X87696598Y-98109011D01*
X87701000Y-98153697D01*
X87701000Y-98696303D01*
X87696598Y-98740989D01*
X87684423Y-98781129D01*
X87664650Y-98818121D01*
X87638042Y-98850542D01*
X87605621Y-98877150D01*
X87568629Y-98896923D01*
X87528489Y-98909098D01*
X87483803Y-98913500D01*
X86866197Y-98913500D01*
X86821511Y-98909098D01*
X86781371Y-98896923D01*
X86744379Y-98877150D01*
X86711958Y-98850542D01*
X86685350Y-98818121D01*
X86665577Y-98781129D01*
X86653402Y-98740989D01*
X86649000Y-98696303D01*
X86649000Y-98153697D01*
X86653402Y-98109011D01*
X86665577Y-98068871D01*
X86685350Y-98031879D01*
X86711958Y-97999458D01*
X86744379Y-97972850D01*
X86781371Y-97953077D01*
X86821511Y-97940902D01*
X86866197Y-97936500D01*
X87483803Y-97936500D01*
X87528489Y-97940902D01*
G37*
G36*
X85876000Y-98876000D02*
G01*
X84874000Y-98876000D01*
X84874000Y-97974000D01*
X85876000Y-97974000D01*
X85876000Y-98876000D01*
G37*
G36*
X132158371Y-97741382D02*
G01*
X132203194Y-97754979D01*
X132244508Y-97777062D01*
X132280720Y-97806780D01*
X132310438Y-97842992D01*
X132332521Y-97884306D01*
X132346118Y-97929129D01*
X132351000Y-97978697D01*
X132351000Y-98571303D01*
X132346118Y-98620871D01*
X132332521Y-98665694D01*
X132310438Y-98707008D01*
X132280720Y-98743220D01*
X132244508Y-98772938D01*
X132203194Y-98795021D01*
X132158371Y-98808618D01*
X132108803Y-98813500D01*
X131091197Y-98813500D01*
X131041629Y-98808618D01*
X130996806Y-98795021D01*
X130955492Y-98772938D01*
X130919280Y-98743220D01*
X130889562Y-98707008D01*
X130867479Y-98665694D01*
X130853882Y-98620871D01*
X130849000Y-98571303D01*
X130849000Y-97978697D01*
X130853882Y-97929129D01*
X130867479Y-97884306D01*
X130889562Y-97842992D01*
X130919280Y-97806780D01*
X130955492Y-97777062D01*
X130996806Y-97754979D01*
X131041629Y-97741382D01*
X131091197Y-97736500D01*
X132108803Y-97736500D01*
X132158371Y-97741382D01*
G37*
G36*
X129758371Y-97741382D02*
G01*
X129803194Y-97754979D01*
X129844508Y-97777062D01*
X129880720Y-97806780D01*
X129910438Y-97842992D01*
X129932521Y-97884306D01*
X129946118Y-97929129D01*
X129951000Y-97978697D01*
X129951000Y-98571303D01*
X129946118Y-98620871D01*
X129932521Y-98665694D01*
X129910438Y-98707008D01*
X129880720Y-98743220D01*
X129844508Y-98772938D01*
X129803194Y-98795021D01*
X129758371Y-98808618D01*
X129708803Y-98813500D01*
X128691197Y-98813500D01*
X128641629Y-98808618D01*
X128596806Y-98795021D01*
X128555492Y-98772938D01*
X128519280Y-98743220D01*
X128489562Y-98707008D01*
X128467479Y-98665694D01*
X128453882Y-98620871D01*
X128449000Y-98571303D01*
X128449000Y-97978697D01*
X128453882Y-97929129D01*
X128467479Y-97884306D01*
X128489562Y-97842992D01*
X128519280Y-97806780D01*
X128555492Y-97777062D01*
X128596806Y-97754979D01*
X128641629Y-97741382D01*
X128691197Y-97736500D01*
X129708803Y-97736500D01*
X129758371Y-97741382D01*
G37*
G36*
X105261162Y-95364368D02*
G01*
X105570727Y-95492594D01*
X105849323Y-95678746D01*
X106086254Y-95915677D01*
X106272406Y-96194273D01*
X106400632Y-96503838D01*
X106466000Y-96832465D01*
X106466000Y-97167535D01*
X106400632Y-97496162D01*
X106272406Y-97805727D01*
X106086254Y-98084323D01*
X105849323Y-98321254D01*
X105570727Y-98507406D01*
X105261162Y-98635632D01*
X104932535Y-98701000D01*
X104597465Y-98701000D01*
X104268838Y-98635632D01*
X103959273Y-98507406D01*
X103680677Y-98321254D01*
X103443746Y-98084323D01*
X103257594Y-97805727D01*
X103129368Y-97496162D01*
X103064000Y-97167535D01*
X103064000Y-96832465D01*
X103129368Y-96503838D01*
X103257594Y-96194273D01*
X103443746Y-95915677D01*
X103680677Y-95678746D01*
X103959273Y-95492594D01*
X104268838Y-95364368D01*
X104597465Y-95299000D01*
X104932535Y-95299000D01*
X105261162Y-95364368D01*
G37*
G36*
X138262812Y-96593624D02*
G01*
X138426784Y-96661544D01*
X138426786Y-96661545D01*
X138438317Y-96669250D01*
X138574354Y-96760147D01*
X138699853Y-96885646D01*
X138798456Y-97033216D01*
X138866376Y-97197188D01*
X138901000Y-97371259D01*
X138901000Y-97548741D01*
X138866376Y-97722812D01*
X138799482Y-97884306D01*
X138798455Y-97886786D01*
X138754064Y-97953222D01*
X138699853Y-98034354D01*
X138574354Y-98159853D01*
X138543079Y-98180750D01*
X138426786Y-98258455D01*
X138426785Y-98258456D01*
X138426784Y-98258456D01*
X138262812Y-98326376D01*
X138088741Y-98361000D01*
X137911259Y-98361000D01*
X137737188Y-98326376D01*
X137573216Y-98258456D01*
X137573215Y-98258456D01*
X137573214Y-98258455D01*
X137456921Y-98180750D01*
X137425646Y-98159853D01*
X137300147Y-98034354D01*
X137245936Y-97953222D01*
X137201545Y-97886786D01*
X137200518Y-97884306D01*
X137133624Y-97722812D01*
X137099000Y-97548741D01*
X137099000Y-97371259D01*
X137133624Y-97197188D01*
X137201544Y-97033216D01*
X137300147Y-96885646D01*
X137425646Y-96760147D01*
X137561683Y-96669250D01*
X137573214Y-96661545D01*
X137573216Y-96661544D01*
X137737188Y-96593624D01*
X137911259Y-96559000D01*
X138088741Y-96559000D01*
X138262812Y-96593624D01*
G37*
G36*
X123983371Y-97266382D02*
G01*
X124028194Y-97279979D01*
X124069508Y-97302062D01*
X124105720Y-97331780D01*
X124135438Y-97367992D01*
X124157521Y-97409306D01*
X124171118Y-97454129D01*
X124176000Y-97503697D01*
X124176000Y-98096303D01*
X124171118Y-98145871D01*
X124157521Y-98190694D01*
X124135438Y-98232008D01*
X124105720Y-98268220D01*
X124069508Y-98297938D01*
X124028194Y-98320021D01*
X123983371Y-98333618D01*
X123933803Y-98338500D01*
X122916197Y-98338500D01*
X122866629Y-98333618D01*
X122821806Y-98320021D01*
X122780492Y-98297938D01*
X122744280Y-98268220D01*
X122714562Y-98232008D01*
X122692479Y-98190694D01*
X122678882Y-98145871D01*
X122674000Y-98096303D01*
X122674000Y-97503697D01*
X122678882Y-97454129D01*
X122692479Y-97409306D01*
X122714562Y-97367992D01*
X122744280Y-97331780D01*
X122780492Y-97302062D01*
X122821806Y-97279979D01*
X122866629Y-97266382D01*
X122916197Y-97261500D01*
X123933803Y-97261500D01*
X123983371Y-97266382D01*
G37*
G36*
X126258371Y-97241382D02*
G01*
X126303194Y-97254979D01*
X126344508Y-97277062D01*
X126380720Y-97306780D01*
X126410438Y-97342992D01*
X126432521Y-97384306D01*
X126446118Y-97429129D01*
X126451000Y-97478697D01*
X126451000Y-98071303D01*
X126446118Y-98120871D01*
X126432521Y-98165694D01*
X126410438Y-98207008D01*
X126380720Y-98243220D01*
X126344508Y-98272938D01*
X126303194Y-98295021D01*
X126258371Y-98308618D01*
X126208803Y-98313500D01*
X125191197Y-98313500D01*
X125141629Y-98308618D01*
X125096806Y-98295021D01*
X125055492Y-98272938D01*
X125019280Y-98243220D01*
X124989562Y-98207008D01*
X124967479Y-98165694D01*
X124953882Y-98120871D01*
X124949000Y-98071303D01*
X124949000Y-97478697D01*
X124953882Y-97429129D01*
X124967479Y-97384306D01*
X124989562Y-97342992D01*
X125019280Y-97306780D01*
X125055492Y-97277062D01*
X125096806Y-97254979D01*
X125141629Y-97241382D01*
X125191197Y-97236500D01*
X126208803Y-97236500D01*
X126258371Y-97241382D01*
G37*
G36*
X78651000Y-98051000D02*
G01*
X76549000Y-98051000D01*
X76549000Y-95949000D01*
X78651000Y-95949000D01*
X78651000Y-98051000D01*
G37*
G36*
X129758371Y-95866382D02*
G01*
X129803194Y-95879979D01*
X129844508Y-95902062D01*
X129880720Y-95931780D01*
X129910438Y-95967992D01*
X129932521Y-96009306D01*
X129946118Y-96054129D01*
X129951000Y-96103697D01*
X129951000Y-96696303D01*
X129946118Y-96745871D01*
X129932521Y-96790694D01*
X129910438Y-96832008D01*
X129880720Y-96868220D01*
X129844508Y-96897938D01*
X129803194Y-96920021D01*
X129758371Y-96933618D01*
X129708803Y-96938500D01*
X128691197Y-96938500D01*
X128641629Y-96933618D01*
X128596806Y-96920021D01*
X128555492Y-96897938D01*
X128519280Y-96868220D01*
X128489562Y-96832008D01*
X128467479Y-96790694D01*
X128453882Y-96745871D01*
X128449000Y-96696303D01*
X128449000Y-96103697D01*
X128453882Y-96054129D01*
X128467479Y-96009306D01*
X128489562Y-95967992D01*
X128519280Y-95931780D01*
X128555492Y-95902062D01*
X128596806Y-95879979D01*
X128641629Y-95866382D01*
X128691197Y-95861500D01*
X129708803Y-95861500D01*
X129758371Y-95866382D01*
G37*
G36*
X132158371Y-95866382D02*
G01*
X132203194Y-95879979D01*
X132244508Y-95902062D01*
X132280720Y-95931780D01*
X132310438Y-95967992D01*
X132332521Y-96009306D01*
X132346118Y-96054129D01*
X132351000Y-96103697D01*
X132351000Y-96696303D01*
X132346118Y-96745871D01*
X132332521Y-96790694D01*
X132310438Y-96832008D01*
X132280720Y-96868220D01*
X132244508Y-96897938D01*
X132203194Y-96920021D01*
X132158371Y-96933618D01*
X132108803Y-96938500D01*
X131091197Y-96938500D01*
X131041629Y-96933618D01*
X130996806Y-96920021D01*
X130955492Y-96897938D01*
X130919280Y-96868220D01*
X130889562Y-96832008D01*
X130867479Y-96790694D01*
X130853882Y-96745871D01*
X130849000Y-96696303D01*
X130849000Y-96103697D01*
X130853882Y-96054129D01*
X130867479Y-96009306D01*
X130889562Y-95967992D01*
X130919280Y-95931780D01*
X130955492Y-95902062D01*
X130996806Y-95879979D01*
X131041629Y-95866382D01*
X131091197Y-95861500D01*
X132108803Y-95861500D01*
X132158371Y-95866382D01*
G37*
G36*
X123983371Y-95391382D02*
G01*
X124028194Y-95404979D01*
X124069508Y-95427062D01*
X124105720Y-95456780D01*
X124135438Y-95492992D01*
X124157521Y-95534306D01*
X124171118Y-95579129D01*
X124176000Y-95628697D01*
X124176000Y-96221303D01*
X124171118Y-96270871D01*
X124157521Y-96315694D01*
X124135438Y-96357008D01*
X124105720Y-96393220D01*
X124069508Y-96422938D01*
X124028194Y-96445021D01*
X123983371Y-96458618D01*
X123933803Y-96463500D01*
X122916197Y-96463500D01*
X122866629Y-96458618D01*
X122821806Y-96445021D01*
X122780492Y-96422938D01*
X122744280Y-96393220D01*
X122714562Y-96357008D01*
X122692479Y-96315694D01*
X122678882Y-96270871D01*
X122674000Y-96221303D01*
X122674000Y-95628697D01*
X122678882Y-95579129D01*
X122692479Y-95534306D01*
X122714562Y-95492992D01*
X122744280Y-95456780D01*
X122780492Y-95427062D01*
X122821806Y-95404979D01*
X122866629Y-95391382D01*
X122916197Y-95386500D01*
X123933803Y-95386500D01*
X123983371Y-95391382D01*
G37*
G36*
X126258371Y-95366382D02*
G01*
X126303194Y-95379979D01*
X126344508Y-95402062D01*
X126380720Y-95431780D01*
X126410438Y-95467992D01*
X126432521Y-95509306D01*
X126446118Y-95554129D01*
X126451000Y-95603697D01*
X126451000Y-96196303D01*
X126446118Y-96245871D01*
X126432521Y-96290694D01*
X126410438Y-96332008D01*
X126380720Y-96368220D01*
X126344508Y-96397938D01*
X126303194Y-96420021D01*
X126258371Y-96433618D01*
X126208803Y-96438500D01*
X125191197Y-96438500D01*
X125141629Y-96433618D01*
X125096806Y-96420021D01*
X125055492Y-96397938D01*
X125019280Y-96368220D01*
X124989562Y-96332008D01*
X124967479Y-96290694D01*
X124953882Y-96245871D01*
X124949000Y-96196303D01*
X124949000Y-95603697D01*
X124953882Y-95554129D01*
X124967479Y-95509306D01*
X124989562Y-95467992D01*
X125019280Y-95431780D01*
X125055492Y-95402062D01*
X125096806Y-95379979D01*
X125141629Y-95366382D01*
X125191197Y-95361500D01*
X126208803Y-95361500D01*
X126258371Y-95366382D01*
G37*
G36*
X138262812Y-94053624D02*
G01*
X138426784Y-94121544D01*
X138426786Y-94121545D01*
X138445884Y-94134306D01*
X138574354Y-94220147D01*
X138699853Y-94345646D01*
X138798456Y-94493216D01*
X138866376Y-94657188D01*
X138901000Y-94831259D01*
X138901000Y-95008741D01*
X138866376Y-95182812D01*
X138798456Y-95346784D01*
X138798455Y-95346786D01*
X138759571Y-95404979D01*
X138699853Y-95494354D01*
X138574354Y-95619853D01*
X138561118Y-95628697D01*
X138426786Y-95718455D01*
X138426785Y-95718456D01*
X138426784Y-95718456D01*
X138262812Y-95786376D01*
X138088741Y-95821000D01*
X137911259Y-95821000D01*
X137737188Y-95786376D01*
X137573216Y-95718456D01*
X137573215Y-95718456D01*
X137573214Y-95718455D01*
X137438882Y-95628697D01*
X137425646Y-95619853D01*
X137300147Y-95494354D01*
X137240429Y-95404979D01*
X137201545Y-95346786D01*
X137201544Y-95346784D01*
X137133624Y-95182812D01*
X137099000Y-95008741D01*
X137099000Y-94831259D01*
X137133624Y-94657188D01*
X137201544Y-94493216D01*
X137300147Y-94345646D01*
X137425646Y-94220147D01*
X137554116Y-94134306D01*
X137573214Y-94121545D01*
X137573216Y-94121544D01*
X137737188Y-94053624D01*
X137911259Y-94019000D01*
X138088741Y-94019000D01*
X138262812Y-94053624D01*
G37*
G36*
X111658371Y-94191382D02*
G01*
X111703194Y-94204979D01*
X111744508Y-94227062D01*
X111780720Y-94256780D01*
X111810438Y-94292992D01*
X111832521Y-94334306D01*
X111846118Y-94379129D01*
X111851000Y-94428697D01*
X111851000Y-95021303D01*
X111846118Y-95070871D01*
X111832521Y-95115694D01*
X111810438Y-95157008D01*
X111780720Y-95193220D01*
X111744508Y-95222938D01*
X111703194Y-95245021D01*
X111658371Y-95258618D01*
X111608803Y-95263500D01*
X110591197Y-95263500D01*
X110541629Y-95258618D01*
X110496806Y-95245021D01*
X110455492Y-95222938D01*
X110419280Y-95193220D01*
X110389562Y-95157008D01*
X110367479Y-95115694D01*
X110353882Y-95070871D01*
X110349000Y-95021303D01*
X110349000Y-94428697D01*
X110353882Y-94379129D01*
X110367479Y-94334306D01*
X110389562Y-94292992D01*
X110419280Y-94256780D01*
X110455492Y-94227062D01*
X110496806Y-94204979D01*
X110541629Y-94191382D01*
X110591197Y-94186500D01*
X111608803Y-94186500D01*
X111658371Y-94191382D01*
G37*
G36*
X131933371Y-93991382D02*
G01*
X131978194Y-94004979D01*
X132019508Y-94027062D01*
X132055720Y-94056780D01*
X132085438Y-94092992D01*
X132107521Y-94134306D01*
X132121118Y-94179129D01*
X132126000Y-94228697D01*
X132126000Y-94821303D01*
X132121118Y-94870871D01*
X132107521Y-94915694D01*
X132085438Y-94957008D01*
X132055720Y-94993220D01*
X132019508Y-95022938D01*
X131978194Y-95045021D01*
X131933371Y-95058618D01*
X131883803Y-95063500D01*
X130866197Y-95063500D01*
X130816629Y-95058618D01*
X130771806Y-95045021D01*
X130730492Y-95022938D01*
X130694280Y-94993220D01*
X130664562Y-94957008D01*
X130642479Y-94915694D01*
X130628882Y-94870871D01*
X130624000Y-94821303D01*
X130624000Y-94228697D01*
X130628882Y-94179129D01*
X130642479Y-94134306D01*
X130664562Y-94092992D01*
X130694280Y-94056780D01*
X130730492Y-94027062D01*
X130771806Y-94004979D01*
X130816629Y-93991382D01*
X130866197Y-93986500D01*
X131883803Y-93986500D01*
X131933371Y-93991382D01*
G37*
G36*
X129758371Y-93991382D02*
G01*
X129803194Y-94004979D01*
X129844508Y-94027062D01*
X129880720Y-94056780D01*
X129910438Y-94092992D01*
X129932521Y-94134306D01*
X129946118Y-94179129D01*
X129951000Y-94228697D01*
X129951000Y-94821303D01*
X129946118Y-94870871D01*
X129932521Y-94915694D01*
X129910438Y-94957008D01*
X129880720Y-94993220D01*
X129844508Y-95022938D01*
X129803194Y-95045021D01*
X129758371Y-95058618D01*
X129708803Y-95063500D01*
X128691197Y-95063500D01*
X128641629Y-95058618D01*
X128596806Y-95045021D01*
X128555492Y-95022938D01*
X128519280Y-94993220D01*
X128489562Y-94957008D01*
X128467479Y-94915694D01*
X128453882Y-94870871D01*
X128449000Y-94821303D01*
X128449000Y-94228697D01*
X128453882Y-94179129D01*
X128467479Y-94134306D01*
X128489562Y-94092992D01*
X128519280Y-94056780D01*
X128555492Y-94027062D01*
X128596806Y-94004979D01*
X128641629Y-93991382D01*
X128691197Y-93986500D01*
X129708803Y-93986500D01*
X129758371Y-93991382D01*
G37*
G36*
X103945871Y-92253882D02*
G01*
X103990694Y-92267479D01*
X104032008Y-92289562D01*
X104068220Y-92319280D01*
X104097938Y-92355492D01*
X104120021Y-92396806D01*
X104133618Y-92441629D01*
X104138500Y-92491197D01*
X104138500Y-93508803D01*
X104133618Y-93558371D01*
X104120021Y-93603194D01*
X104097938Y-93644508D01*
X104068220Y-93680720D01*
X104032008Y-93710438D01*
X103990694Y-93732521D01*
X103945871Y-93746118D01*
X103896303Y-93751000D01*
X103303697Y-93751000D01*
X103254129Y-93746118D01*
X103209306Y-93732521D01*
X103167992Y-93710438D01*
X103131780Y-93680720D01*
X103102062Y-93644508D01*
X103079979Y-93603194D01*
X103066382Y-93558371D01*
X103061500Y-93508803D01*
X103061500Y-92491197D01*
X103066382Y-92441629D01*
X103079979Y-92396806D01*
X103102062Y-92355492D01*
X103131780Y-92319280D01*
X103167992Y-92289562D01*
X103209306Y-92267479D01*
X103254129Y-92253882D01*
X103303697Y-92249000D01*
X103896303Y-92249000D01*
X103945871Y-92253882D01*
G37*
G36*
X102070871Y-92253882D02*
G01*
X102115694Y-92267479D01*
X102157008Y-92289562D01*
X102193220Y-92319280D01*
X102222938Y-92355492D01*
X102245021Y-92396806D01*
X102258618Y-92441629D01*
X102263500Y-92491197D01*
X102263500Y-93508803D01*
X102258618Y-93558371D01*
X102245021Y-93603194D01*
X102222938Y-93644508D01*
X102193220Y-93680720D01*
X102157008Y-93710438D01*
X102115694Y-93732521D01*
X102070871Y-93746118D01*
X102021303Y-93751000D01*
X101428697Y-93751000D01*
X101379129Y-93746118D01*
X101334306Y-93732521D01*
X101292992Y-93710438D01*
X101256780Y-93680720D01*
X101227062Y-93644508D01*
X101204979Y-93603194D01*
X101191382Y-93558371D01*
X101186500Y-93508803D01*
X101186500Y-92491197D01*
X101191382Y-92441629D01*
X101204979Y-92396806D01*
X101227062Y-92355492D01*
X101256780Y-92319280D01*
X101292992Y-92289562D01*
X101334306Y-92267479D01*
X101379129Y-92253882D01*
X101428697Y-92249000D01*
X102021303Y-92249000D01*
X102070871Y-92253882D01*
G37*
G36*
X111658371Y-92316382D02*
G01*
X111703194Y-92329979D01*
X111744508Y-92352062D01*
X111780720Y-92381780D01*
X111810438Y-92417992D01*
X111832521Y-92459306D01*
X111846118Y-92504129D01*
X111851000Y-92553697D01*
X111851000Y-93146303D01*
X111846118Y-93195871D01*
X111832521Y-93240694D01*
X111810438Y-93282008D01*
X111780720Y-93318220D01*
X111744508Y-93347938D01*
X111703194Y-93370021D01*
X111658371Y-93383618D01*
X111608803Y-93388500D01*
X110591197Y-93388500D01*
X110541629Y-93383618D01*
X110496806Y-93370021D01*
X110455492Y-93347938D01*
X110419280Y-93318220D01*
X110389562Y-93282008D01*
X110367479Y-93240694D01*
X110353882Y-93195871D01*
X110349000Y-93146303D01*
X110349000Y-92553697D01*
X110353882Y-92504129D01*
X110367479Y-92459306D01*
X110389562Y-92417992D01*
X110419280Y-92381780D01*
X110455492Y-92352062D01*
X110496806Y-92329979D01*
X110541629Y-92316382D01*
X110591197Y-92311500D01*
X111608803Y-92311500D01*
X111658371Y-92316382D01*
G37*
G36*
X138262812Y-91513624D02*
G01*
X138426784Y-91581544D01*
X138426786Y-91581545D01*
X138500569Y-91630845D01*
X138574354Y-91680147D01*
X138699853Y-91805646D01*
X138798456Y-91953216D01*
X138866376Y-92117188D01*
X138901000Y-92291259D01*
X138901000Y-92468741D01*
X138866376Y-92642812D01*
X138798456Y-92806784D01*
X138699853Y-92954354D01*
X138574354Y-93079853D01*
X138529776Y-93109639D01*
X138426786Y-93178455D01*
X138426785Y-93178456D01*
X138426784Y-93178456D01*
X138262812Y-93246376D01*
X138088741Y-93281000D01*
X137911259Y-93281000D01*
X137737188Y-93246376D01*
X137573216Y-93178456D01*
X137573215Y-93178456D01*
X137573214Y-93178455D01*
X137470224Y-93109639D01*
X137425646Y-93079853D01*
X137300147Y-92954354D01*
X137201544Y-92806784D01*
X137133624Y-92642812D01*
X137099000Y-92468741D01*
X137099000Y-92291259D01*
X137133624Y-92117188D01*
X137201544Y-91953216D01*
X137300147Y-91805646D01*
X137425646Y-91680147D01*
X137499431Y-91630845D01*
X137573214Y-91581545D01*
X137573216Y-91581544D01*
X137737188Y-91513624D01*
X137911259Y-91479000D01*
X138088741Y-91479000D01*
X138262812Y-91513624D01*
G37*
G36*
X131933371Y-92116382D02*
G01*
X131978194Y-92129979D01*
X132019508Y-92152062D01*
X132055720Y-92181780D01*
X132085438Y-92217992D01*
X132107521Y-92259306D01*
X132121118Y-92304129D01*
X132126000Y-92353697D01*
X132126000Y-92946303D01*
X132121118Y-92995871D01*
X132107521Y-93040694D01*
X132085438Y-93082008D01*
X132055720Y-93118220D01*
X132019508Y-93147938D01*
X131978194Y-93170021D01*
X131933371Y-93183618D01*
X131883803Y-93188500D01*
X130866197Y-93188500D01*
X130816629Y-93183618D01*
X130771806Y-93170021D01*
X130730492Y-93147938D01*
X130694280Y-93118220D01*
X130664562Y-93082008D01*
X130642479Y-93040694D01*
X130628882Y-92995871D01*
X130624000Y-92946303D01*
X130624000Y-92353697D01*
X130628882Y-92304129D01*
X130642479Y-92259306D01*
X130664562Y-92217992D01*
X130694280Y-92181780D01*
X130730492Y-92152062D01*
X130771806Y-92129979D01*
X130816629Y-92116382D01*
X130866197Y-92111500D01*
X131883803Y-92111500D01*
X131933371Y-92116382D01*
G37*
G36*
X129758371Y-92116382D02*
G01*
X129803194Y-92129979D01*
X129844508Y-92152062D01*
X129880720Y-92181780D01*
X129910438Y-92217992D01*
X129932521Y-92259306D01*
X129946118Y-92304129D01*
X129951000Y-92353697D01*
X129951000Y-92946303D01*
X129946118Y-92995871D01*
X129932521Y-93040694D01*
X129910438Y-93082008D01*
X129880720Y-93118220D01*
X129844508Y-93147938D01*
X129803194Y-93170021D01*
X129758371Y-93183618D01*
X129708803Y-93188500D01*
X128691197Y-93188500D01*
X128641629Y-93183618D01*
X128596806Y-93170021D01*
X128555492Y-93147938D01*
X128519280Y-93118220D01*
X128489562Y-93082008D01*
X128467479Y-93040694D01*
X128453882Y-92995871D01*
X128449000Y-92946303D01*
X128449000Y-92353697D01*
X128453882Y-92304129D01*
X128467479Y-92259306D01*
X128489562Y-92217992D01*
X128519280Y-92181780D01*
X128555492Y-92152062D01*
X128596806Y-92129979D01*
X128641629Y-92116382D01*
X128691197Y-92111500D01*
X129708803Y-92111500D01*
X129758371Y-92116382D01*
G37*
G36*
X86301000Y-91301000D02*
G01*
X84499000Y-91301000D01*
X84499000Y-89499000D01*
X86301000Y-89499000D01*
X86301000Y-91301000D01*
G37*
G36*
X102251000Y-90626000D02*
G01*
X101149000Y-90626000D01*
X101149000Y-88524000D01*
X102251000Y-88524000D01*
X102251000Y-90626000D01*
G37*
G36*
X92251000Y-90626000D02*
G01*
X91149000Y-90626000D01*
X91149000Y-88524000D01*
X92251000Y-88524000D01*
X92251000Y-90626000D01*
G37*
G36*
X94251000Y-90626000D02*
G01*
X93149000Y-90626000D01*
X93149000Y-88524000D01*
X94251000Y-88524000D01*
X94251000Y-90626000D01*
G37*
G36*
X96251000Y-90626000D02*
G01*
X95149000Y-90626000D01*
X95149000Y-88524000D01*
X96251000Y-88524000D01*
X96251000Y-90626000D01*
G37*
G36*
X98251000Y-90626000D02*
G01*
X97149000Y-90626000D01*
X97149000Y-88524000D01*
X98251000Y-88524000D01*
X98251000Y-90626000D01*
G37*
G36*
X100251000Y-90626000D02*
G01*
X99149000Y-90626000D01*
X99149000Y-88524000D01*
X100251000Y-88524000D01*
X100251000Y-90626000D01*
G37*
G36*
X104251000Y-90626000D02*
G01*
X103149000Y-90626000D01*
X103149000Y-88524000D01*
X104251000Y-88524000D01*
X104251000Y-90626000D01*
G37*
G36*
X106251000Y-90626000D02*
G01*
X105149000Y-90626000D01*
X105149000Y-88524000D01*
X106251000Y-88524000D01*
X106251000Y-90626000D01*
G37*
G36*
X125103951Y-88276600D02*
G01*
X125126504Y-88283441D01*
X125147283Y-88294548D01*
X125165501Y-88309499D01*
X125180452Y-88327717D01*
X125191559Y-88348496D01*
X125198400Y-88371049D01*
X125201000Y-88397446D01*
X125201000Y-89752555D01*
X125198400Y-89778951D01*
X125191559Y-89801504D01*
X125180452Y-89822283D01*
X125165501Y-89840501D01*
X125147283Y-89855452D01*
X125126504Y-89866559D01*
X125103951Y-89873400D01*
X125077554Y-89876000D01*
X124722446Y-89876000D01*
X124696049Y-89873400D01*
X124673496Y-89866559D01*
X124652717Y-89855452D01*
X124634499Y-89840501D01*
X124619548Y-89822283D01*
X124608441Y-89801504D01*
X124601600Y-89778951D01*
X124599000Y-89752555D01*
X124599000Y-88397446D01*
X124601600Y-88371049D01*
X124608441Y-88348496D01*
X124619548Y-88327717D01*
X124634499Y-88309499D01*
X124652717Y-88294548D01*
X124673496Y-88283441D01*
X124696049Y-88276600D01*
X124722445Y-88274000D01*
X125077555Y-88274000D01*
X125103951Y-88276600D01*
G37*
G36*
X120303951Y-88276600D02*
G01*
X120326504Y-88283441D01*
X120347283Y-88294548D01*
X120365501Y-88309499D01*
X120380452Y-88327717D01*
X120391559Y-88348496D01*
X120398400Y-88371049D01*
X120401000Y-88397446D01*
X120401000Y-89752555D01*
X120398400Y-89778951D01*
X120391559Y-89801504D01*
X120380452Y-89822283D01*
X120365501Y-89840501D01*
X120347283Y-89855452D01*
X120326504Y-89866559D01*
X120303951Y-89873400D01*
X120277554Y-89876000D01*
X119922446Y-89876000D01*
X119896049Y-89873400D01*
X119873496Y-89866559D01*
X119852717Y-89855452D01*
X119834499Y-89840501D01*
X119819548Y-89822283D01*
X119808441Y-89801504D01*
X119801600Y-89778951D01*
X119799000Y-89752555D01*
X119799000Y-88397446D01*
X119801600Y-88371049D01*
X119808441Y-88348496D01*
X119819548Y-88327717D01*
X119834499Y-88309499D01*
X119852717Y-88294548D01*
X119873496Y-88283441D01*
X119896049Y-88276600D01*
X119922445Y-88274000D01*
X120277555Y-88274000D01*
X120303951Y-88276600D01*
G37*
G36*
X121103951Y-88276600D02*
G01*
X121126504Y-88283441D01*
X121147283Y-88294548D01*
X121165501Y-88309499D01*
X121180452Y-88327717D01*
X121191559Y-88348496D01*
X121198400Y-88371049D01*
X121201000Y-88397446D01*
X121201000Y-89752555D01*
X121198400Y-89778951D01*
X121191559Y-89801504D01*
X121180452Y-89822283D01*
X121165501Y-89840501D01*
X121147283Y-89855452D01*
X121126504Y-89866559D01*
X121103951Y-89873400D01*
X121077554Y-89876000D01*
X120722446Y-89876000D01*
X120696049Y-89873400D01*
X120673496Y-89866559D01*
X120652717Y-89855452D01*
X120634499Y-89840501D01*
X120619548Y-89822283D01*
X120608441Y-89801504D01*
X120601600Y-89778951D01*
X120599000Y-89752555D01*
X120599000Y-88397446D01*
X120601600Y-88371049D01*
X120608441Y-88348496D01*
X120619548Y-88327717D01*
X120634499Y-88309499D01*
X120652717Y-88294548D01*
X120673496Y-88283441D01*
X120696049Y-88276600D01*
X120722445Y-88274000D01*
X121077555Y-88274000D01*
X121103951Y-88276600D01*
G37*
G36*
X121903951Y-88276600D02*
G01*
X121926504Y-88283441D01*
X121947283Y-88294548D01*
X121965501Y-88309499D01*
X121980452Y-88327717D01*
X121991559Y-88348496D01*
X121998400Y-88371049D01*
X122001000Y-88397446D01*
X122001000Y-89752555D01*
X121998400Y-89778951D01*
X121991559Y-89801504D01*
X121980452Y-89822283D01*
X121965501Y-89840501D01*
X121947283Y-89855452D01*
X121926504Y-89866559D01*
X121903951Y-89873400D01*
X121877554Y-89876000D01*
X121522446Y-89876000D01*
X121496049Y-89873400D01*
X121473496Y-89866559D01*
X121452717Y-89855452D01*
X121434499Y-89840501D01*
X121419548Y-89822283D01*
X121408441Y-89801504D01*
X121401600Y-89778951D01*
X121399000Y-89752555D01*
X121399000Y-88397446D01*
X121401600Y-88371049D01*
X121408441Y-88348496D01*
X121419548Y-88327717D01*
X121434499Y-88309499D01*
X121452717Y-88294548D01*
X121473496Y-88283441D01*
X121496049Y-88276600D01*
X121522445Y-88274000D01*
X121877555Y-88274000D01*
X121903951Y-88276600D01*
G37*
G36*
X123503951Y-88276600D02*
G01*
X123526504Y-88283441D01*
X123547283Y-88294548D01*
X123565501Y-88309499D01*
X123580452Y-88327717D01*
X123591559Y-88348496D01*
X123598400Y-88371049D01*
X123601000Y-88397446D01*
X123601000Y-89752555D01*
X123598400Y-89778951D01*
X123591559Y-89801504D01*
X123580452Y-89822283D01*
X123565501Y-89840501D01*
X123547283Y-89855452D01*
X123526504Y-89866559D01*
X123503951Y-89873400D01*
X123477554Y-89876000D01*
X123122446Y-89876000D01*
X123096049Y-89873400D01*
X123073496Y-89866559D01*
X123052717Y-89855452D01*
X123034499Y-89840501D01*
X123019548Y-89822283D01*
X123008441Y-89801504D01*
X123001600Y-89778951D01*
X122999000Y-89752555D01*
X122999000Y-88397446D01*
X123001600Y-88371049D01*
X123008441Y-88348496D01*
X123019548Y-88327717D01*
X123034499Y-88309499D01*
X123052717Y-88294548D01*
X123073496Y-88283441D01*
X123096049Y-88276600D01*
X123122445Y-88274000D01*
X123477555Y-88274000D01*
X123503951Y-88276600D01*
G37*
G36*
X122703951Y-88276600D02*
G01*
X122726504Y-88283441D01*
X122747283Y-88294548D01*
X122765501Y-88309499D01*
X122780452Y-88327717D01*
X122791559Y-88348496D01*
X122798400Y-88371049D01*
X122801000Y-88397446D01*
X122801000Y-89752555D01*
X122798400Y-89778951D01*
X122791559Y-89801504D01*
X122780452Y-89822283D01*
X122765501Y-89840501D01*
X122747283Y-89855452D01*
X122726504Y-89866559D01*
X122703951Y-89873400D01*
X122677554Y-89876000D01*
X122322446Y-89876000D01*
X122296049Y-89873400D01*
X122273496Y-89866559D01*
X122252717Y-89855452D01*
X122234499Y-89840501D01*
X122219548Y-89822283D01*
X122208441Y-89801504D01*
X122201600Y-89778951D01*
X122199000Y-89752555D01*
X122199000Y-88397446D01*
X122201600Y-88371049D01*
X122208441Y-88348496D01*
X122219548Y-88327717D01*
X122234499Y-88309499D01*
X122252717Y-88294548D01*
X122273496Y-88283441D01*
X122296049Y-88276600D01*
X122322445Y-88274000D01*
X122677555Y-88274000D01*
X122703951Y-88276600D01*
G37*
G36*
X125903951Y-88276600D02*
G01*
X125926504Y-88283441D01*
X125947283Y-88294548D01*
X125965501Y-88309499D01*
X125980452Y-88327717D01*
X125991559Y-88348496D01*
X125998400Y-88371049D01*
X126001000Y-88397446D01*
X126001000Y-89752555D01*
X125998400Y-89778951D01*
X125991559Y-89801504D01*
X125980452Y-89822283D01*
X125965501Y-89840501D01*
X125947283Y-89855452D01*
X125926504Y-89866559D01*
X125903951Y-89873400D01*
X125877554Y-89876000D01*
X125522446Y-89876000D01*
X125496049Y-89873400D01*
X125473496Y-89866559D01*
X125452717Y-89855452D01*
X125434499Y-89840501D01*
X125419548Y-89822283D01*
X125408441Y-89801504D01*
X125401600Y-89778951D01*
X125399000Y-89752555D01*
X125399000Y-88397446D01*
X125401600Y-88371049D01*
X125408441Y-88348496D01*
X125419548Y-88327717D01*
X125434499Y-88309499D01*
X125452717Y-88294548D01*
X125473496Y-88283441D01*
X125496049Y-88276600D01*
X125522445Y-88274000D01*
X125877555Y-88274000D01*
X125903951Y-88276600D01*
G37*
G36*
X124303951Y-88276600D02*
G01*
X124326504Y-88283441D01*
X124347283Y-88294548D01*
X124365501Y-88309499D01*
X124380452Y-88327717D01*
X124391559Y-88348496D01*
X124398400Y-88371049D01*
X124401000Y-88397446D01*
X124401000Y-89752555D01*
X124398400Y-89778951D01*
X124391559Y-89801504D01*
X124380452Y-89822283D01*
X124365501Y-89840501D01*
X124347283Y-89855452D01*
X124326504Y-89866559D01*
X124303951Y-89873400D01*
X124277554Y-89876000D01*
X123922446Y-89876000D01*
X123896049Y-89873400D01*
X123873496Y-89866559D01*
X123852717Y-89855452D01*
X123834499Y-89840501D01*
X123819548Y-89822283D01*
X123808441Y-89801504D01*
X123801600Y-89778951D01*
X123799000Y-89752555D01*
X123799000Y-88397446D01*
X123801600Y-88371049D01*
X123808441Y-88348496D01*
X123819548Y-88327717D01*
X123834499Y-88309499D01*
X123852717Y-88294548D01*
X123873496Y-88283441D01*
X123896049Y-88276600D01*
X123922445Y-88274000D01*
X124277555Y-88274000D01*
X124303951Y-88276600D01*
G37*
G36*
X131908371Y-87478882D02*
G01*
X131953194Y-87492479D01*
X131994508Y-87514562D01*
X132030720Y-87544280D01*
X132060438Y-87580492D01*
X132082521Y-87621806D01*
X132096118Y-87666629D01*
X132101000Y-87716197D01*
X132101000Y-88733803D01*
X132096118Y-88783371D01*
X132082521Y-88828194D01*
X132060438Y-88869508D01*
X132030720Y-88905720D01*
X131994508Y-88935438D01*
X131953194Y-88957521D01*
X131908371Y-88971118D01*
X131858803Y-88976000D01*
X131266197Y-88976000D01*
X131216629Y-88971118D01*
X131171806Y-88957521D01*
X131130492Y-88935438D01*
X131094280Y-88905720D01*
X131064562Y-88869508D01*
X131042479Y-88828194D01*
X131028882Y-88783371D01*
X131024000Y-88733803D01*
X131024000Y-87716197D01*
X131028882Y-87666629D01*
X131042479Y-87621806D01*
X131064562Y-87580492D01*
X131094280Y-87544280D01*
X131130492Y-87514562D01*
X131171806Y-87492479D01*
X131216629Y-87478882D01*
X131266197Y-87474000D01*
X131858803Y-87474000D01*
X131908371Y-87478882D01*
G37*
G36*
X130033371Y-87478882D02*
G01*
X130078194Y-87492479D01*
X130119508Y-87514562D01*
X130155720Y-87544280D01*
X130185438Y-87580492D01*
X130207521Y-87621806D01*
X130221118Y-87666629D01*
X130226000Y-87716197D01*
X130226000Y-88733803D01*
X130221118Y-88783371D01*
X130207521Y-88828194D01*
X130185438Y-88869508D01*
X130155720Y-88905720D01*
X130119508Y-88935438D01*
X130078194Y-88957521D01*
X130033371Y-88971118D01*
X129983803Y-88976000D01*
X129391197Y-88976000D01*
X129341629Y-88971118D01*
X129296806Y-88957521D01*
X129255492Y-88935438D01*
X129219280Y-88905720D01*
X129189562Y-88869508D01*
X129167479Y-88828194D01*
X129153882Y-88783371D01*
X129149000Y-88733803D01*
X129149000Y-87716197D01*
X129153882Y-87666629D01*
X129167479Y-87621806D01*
X129189562Y-87580492D01*
X129219280Y-87544280D01*
X129255492Y-87514562D01*
X129296806Y-87492479D01*
X129341629Y-87478882D01*
X129391197Y-87474000D01*
X129983803Y-87474000D01*
X130033371Y-87478882D01*
G37*
G36*
X127778951Y-87401600D02*
G01*
X127801504Y-87408441D01*
X127822283Y-87419548D01*
X127840501Y-87434499D01*
X127855452Y-87452717D01*
X127866559Y-87473496D01*
X127873400Y-87496049D01*
X127876000Y-87522446D01*
X127876000Y-87877555D01*
X127873400Y-87903951D01*
X127866559Y-87926504D01*
X127855452Y-87947283D01*
X127840501Y-87965501D01*
X127822283Y-87980452D01*
X127801504Y-87991559D01*
X127778951Y-87998400D01*
X127752554Y-88001000D01*
X126397446Y-88001000D01*
X126371049Y-87998400D01*
X126348496Y-87991559D01*
X126327717Y-87980452D01*
X126309499Y-87965501D01*
X126294548Y-87947283D01*
X126283441Y-87926504D01*
X126276600Y-87903951D01*
X126274000Y-87877555D01*
X126274000Y-87522446D01*
X126276600Y-87496049D01*
X126283441Y-87473496D01*
X126294548Y-87452717D01*
X126309499Y-87434499D01*
X126327717Y-87419548D01*
X126348496Y-87408441D01*
X126371049Y-87401600D01*
X126397445Y-87399000D01*
X127752555Y-87399000D01*
X127778951Y-87401600D01*
G37*
G36*
X119428951Y-87401600D02*
G01*
X119451504Y-87408441D01*
X119472283Y-87419548D01*
X119490501Y-87434499D01*
X119505452Y-87452717D01*
X119516559Y-87473496D01*
X119523400Y-87496049D01*
X119526000Y-87522446D01*
X119526000Y-87877555D01*
X119523400Y-87903951D01*
X119516559Y-87926504D01*
X119505452Y-87947283D01*
X119490501Y-87965501D01*
X119472283Y-87980452D01*
X119451504Y-87991559D01*
X119428951Y-87998400D01*
X119402554Y-88001000D01*
X118047446Y-88001000D01*
X118021049Y-87998400D01*
X117998496Y-87991559D01*
X117977717Y-87980452D01*
X117959499Y-87965501D01*
X117944548Y-87947283D01*
X117933441Y-87926504D01*
X117926600Y-87903951D01*
X117924000Y-87877555D01*
X117924000Y-87522446D01*
X117926600Y-87496049D01*
X117933441Y-87473496D01*
X117944548Y-87452717D01*
X117959499Y-87434499D01*
X117977717Y-87419548D01*
X117998496Y-87408441D01*
X118021049Y-87401600D01*
X118047445Y-87399000D01*
X119402555Y-87399000D01*
X119428951Y-87401600D01*
G37*
G36*
X86301000Y-87301000D02*
G01*
X84499000Y-87301000D01*
X84499000Y-85499000D01*
X86301000Y-85499000D01*
X86301000Y-87301000D01*
G37*
G36*
X127778951Y-86601600D02*
G01*
X127801504Y-86608441D01*
X127822283Y-86619548D01*
X127840501Y-86634499D01*
X127855452Y-86652717D01*
X127866559Y-86673496D01*
X127873400Y-86696049D01*
X127876000Y-86722446D01*
X127876000Y-87077555D01*
X127873400Y-87103951D01*
X127866559Y-87126504D01*
X127855452Y-87147283D01*
X127840501Y-87165501D01*
X127822283Y-87180452D01*
X127801504Y-87191559D01*
X127778951Y-87198400D01*
X127752554Y-87201000D01*
X126397446Y-87201000D01*
X126371049Y-87198400D01*
X126348496Y-87191559D01*
X126327717Y-87180452D01*
X126309499Y-87165501D01*
X126294548Y-87147283D01*
X126283441Y-87126504D01*
X126276600Y-87103951D01*
X126274000Y-87077555D01*
X126274000Y-86722446D01*
X126276600Y-86696049D01*
X126283441Y-86673496D01*
X126294548Y-86652717D01*
X126309499Y-86634499D01*
X126327717Y-86619548D01*
X126348496Y-86608441D01*
X126371049Y-86601600D01*
X126397445Y-86599000D01*
X127752555Y-86599000D01*
X127778951Y-86601600D01*
G37*
G36*
X119428951Y-86601600D02*
G01*
X119451504Y-86608441D01*
X119472283Y-86619548D01*
X119490501Y-86634499D01*
X119505452Y-86652717D01*
X119516559Y-86673496D01*
X119523400Y-86696049D01*
X119526000Y-86722446D01*
X119526000Y-87077555D01*
X119523400Y-87103951D01*
X119516559Y-87126504D01*
X119505452Y-87147283D01*
X119490501Y-87165501D01*
X119472283Y-87180452D01*
X119451504Y-87191559D01*
X119428951Y-87198400D01*
X119402554Y-87201000D01*
X118047446Y-87201000D01*
X118021049Y-87198400D01*
X117998496Y-87191559D01*
X117977717Y-87180452D01*
X117959499Y-87165501D01*
X117944548Y-87147283D01*
X117933441Y-87126504D01*
X117926600Y-87103951D01*
X117924000Y-87077555D01*
X117924000Y-86722446D01*
X117926600Y-86696049D01*
X117933441Y-86673496D01*
X117944548Y-86652717D01*
X117959499Y-86634499D01*
X117977717Y-86619548D01*
X117998496Y-86608441D01*
X118021049Y-86601600D01*
X118047445Y-86599000D01*
X119402555Y-86599000D01*
X119428951Y-86601600D01*
G37*
G36*
X138901000Y-86901000D02*
G01*
X137099000Y-86901000D01*
X137099000Y-85099000D01*
X138901000Y-85099000D01*
X138901000Y-86901000D01*
G37*
G36*
X115820871Y-85253882D02*
G01*
X115865694Y-85267479D01*
X115907008Y-85289562D01*
X115943220Y-85319280D01*
X115972938Y-85355492D01*
X115995021Y-85396806D01*
X116008618Y-85441629D01*
X116013500Y-85491197D01*
X116013500Y-86508803D01*
X116008618Y-86558371D01*
X115995021Y-86603194D01*
X115972938Y-86644508D01*
X115943220Y-86680720D01*
X115907008Y-86710438D01*
X115865694Y-86732521D01*
X115820871Y-86746118D01*
X115771303Y-86751000D01*
X115178697Y-86751000D01*
X115129129Y-86746118D01*
X115084306Y-86732521D01*
X115042992Y-86710438D01*
X115006780Y-86680720D01*
X114977062Y-86644508D01*
X114954979Y-86603194D01*
X114941382Y-86558371D01*
X114936500Y-86508803D01*
X114936500Y-85491197D01*
X114941382Y-85441629D01*
X114954979Y-85396806D01*
X114977062Y-85355492D01*
X115006780Y-85319280D01*
X115042992Y-85289562D01*
X115084306Y-85267479D01*
X115129129Y-85253882D01*
X115178697Y-85249000D01*
X115771303Y-85249000D01*
X115820871Y-85253882D01*
G37*
G36*
X113945871Y-85253882D02*
G01*
X113990694Y-85267479D01*
X114032008Y-85289562D01*
X114068220Y-85319280D01*
X114097938Y-85355492D01*
X114120021Y-85396806D01*
X114133618Y-85441629D01*
X114138500Y-85491197D01*
X114138500Y-86508803D01*
X114133618Y-86558371D01*
X114120021Y-86603194D01*
X114097938Y-86644508D01*
X114068220Y-86680720D01*
X114032008Y-86710438D01*
X113990694Y-86732521D01*
X113945871Y-86746118D01*
X113896303Y-86751000D01*
X113303697Y-86751000D01*
X113254129Y-86746118D01*
X113209306Y-86732521D01*
X113167992Y-86710438D01*
X113131780Y-86680720D01*
X113102062Y-86644508D01*
X113079979Y-86603194D01*
X113066382Y-86558371D01*
X113061500Y-86508803D01*
X113061500Y-85491197D01*
X113066382Y-85441629D01*
X113079979Y-85396806D01*
X113102062Y-85355492D01*
X113131780Y-85319280D01*
X113167992Y-85289562D01*
X113209306Y-85267479D01*
X113254129Y-85253882D01*
X113303697Y-85249000D01*
X113896303Y-85249000D01*
X113945871Y-85253882D01*
G37*
G36*
X127778951Y-85801600D02*
G01*
X127801504Y-85808441D01*
X127822283Y-85819548D01*
X127840501Y-85834499D01*
X127855452Y-85852717D01*
X127866559Y-85873496D01*
X127873400Y-85896049D01*
X127876000Y-85922446D01*
X127876000Y-86277555D01*
X127873400Y-86303951D01*
X127866559Y-86326504D01*
X127855452Y-86347283D01*
X127840501Y-86365501D01*
X127822283Y-86380452D01*
X127801504Y-86391559D01*
X127778951Y-86398400D01*
X127752554Y-86401000D01*
X126397446Y-86401000D01*
X126371049Y-86398400D01*
X126348496Y-86391559D01*
X126327717Y-86380452D01*
X126309499Y-86365501D01*
X126294548Y-86347283D01*
X126283441Y-86326504D01*
X126276600Y-86303951D01*
X126274000Y-86277555D01*
X126274000Y-85922446D01*
X126276600Y-85896049D01*
X126283441Y-85873496D01*
X126294548Y-85852717D01*
X126309499Y-85834499D01*
X126327717Y-85819548D01*
X126348496Y-85808441D01*
X126371049Y-85801600D01*
X126397445Y-85799000D01*
X127752555Y-85799000D01*
X127778951Y-85801600D01*
G37*
G36*
X119428951Y-85801600D02*
G01*
X119451504Y-85808441D01*
X119472283Y-85819548D01*
X119490501Y-85834499D01*
X119505452Y-85852717D01*
X119516559Y-85873496D01*
X119523400Y-85896049D01*
X119526000Y-85922446D01*
X119526000Y-86277555D01*
X119523400Y-86303951D01*
X119516559Y-86326504D01*
X119505452Y-86347283D01*
X119490501Y-86365501D01*
X119472283Y-86380452D01*
X119451504Y-86391559D01*
X119428951Y-86398400D01*
X119402554Y-86401000D01*
X118047446Y-86401000D01*
X118021049Y-86398400D01*
X117998496Y-86391559D01*
X117977717Y-86380452D01*
X117959499Y-86365501D01*
X117944548Y-86347283D01*
X117933441Y-86326504D01*
X117926600Y-86303951D01*
X117924000Y-86277555D01*
X117924000Y-85922446D01*
X117926600Y-85896049D01*
X117933441Y-85873496D01*
X117944548Y-85852717D01*
X117959499Y-85834499D01*
X117977717Y-85819548D01*
X117998496Y-85808441D01*
X118021049Y-85801600D01*
X118047445Y-85799000D01*
X119402555Y-85799000D01*
X119428951Y-85801600D01*
G37*
G36*
X110411921Y-83115666D02*
G01*
X110579488Y-83148997D01*
X110816255Y-83247069D01*
X110816257Y-83247070D01*
X110896969Y-83301000D01*
X111029339Y-83389447D01*
X111210553Y-83570661D01*
X111210554Y-83570663D01*
X111304325Y-83711000D01*
X111352931Y-83783745D01*
X111451003Y-84020512D01*
X111501000Y-84271863D01*
X111501000Y-84528137D01*
X111451003Y-84779488D01*
X111355333Y-85010456D01*
X111352930Y-85016257D01*
X111297643Y-85099000D01*
X111210553Y-85229339D01*
X111029339Y-85410553D01*
X111022366Y-85415212D01*
X110816257Y-85552930D01*
X110816256Y-85552931D01*
X110816255Y-85552931D01*
X110579488Y-85651003D01*
X110411921Y-85684334D01*
X110328138Y-85701000D01*
X110071862Y-85701000D01*
X109988079Y-85684334D01*
X109820512Y-85651003D01*
X109583745Y-85552931D01*
X109583744Y-85552931D01*
X109583743Y-85552930D01*
X109377634Y-85415212D01*
X109370661Y-85410553D01*
X109189447Y-85229339D01*
X109102357Y-85099000D01*
X109047070Y-85016257D01*
X109044667Y-85010456D01*
X108948997Y-84779488D01*
X108899000Y-84528137D01*
X108899000Y-84271863D01*
X108948997Y-84020512D01*
X109047069Y-83783745D01*
X109095676Y-83711000D01*
X109189446Y-83570663D01*
X109189447Y-83570661D01*
X109370661Y-83389447D01*
X109503031Y-83301000D01*
X109583743Y-83247070D01*
X109583745Y-83247069D01*
X109820512Y-83148997D01*
X109988079Y-83115666D01*
X110071862Y-83099000D01*
X110328138Y-83099000D01*
X110411921Y-83115666D01*
G37*
G36*
X127778951Y-85001600D02*
G01*
X127801504Y-85008441D01*
X127822283Y-85019548D01*
X127840501Y-85034499D01*
X127855452Y-85052717D01*
X127866559Y-85073496D01*
X127873400Y-85096049D01*
X127876000Y-85122446D01*
X127876000Y-85477555D01*
X127873400Y-85503951D01*
X127866559Y-85526504D01*
X127855452Y-85547283D01*
X127840501Y-85565501D01*
X127822283Y-85580452D01*
X127801504Y-85591559D01*
X127778951Y-85598400D01*
X127752554Y-85601000D01*
X126397446Y-85601000D01*
X126371049Y-85598400D01*
X126348496Y-85591559D01*
X126327717Y-85580452D01*
X126309499Y-85565501D01*
X126294548Y-85547283D01*
X126283441Y-85526504D01*
X126276600Y-85503951D01*
X126274000Y-85477555D01*
X126274000Y-85122446D01*
X126276600Y-85096049D01*
X126283441Y-85073496D01*
X126294548Y-85052717D01*
X126309499Y-85034499D01*
X126327717Y-85019548D01*
X126348496Y-85008441D01*
X126371049Y-85001600D01*
X126397445Y-84999000D01*
X127752555Y-84999000D01*
X127778951Y-85001600D01*
G37*
G36*
X119428951Y-85001600D02*
G01*
X119451504Y-85008441D01*
X119472283Y-85019548D01*
X119490501Y-85034499D01*
X119505452Y-85052717D01*
X119516559Y-85073496D01*
X119523400Y-85096049D01*
X119526000Y-85122446D01*
X119526000Y-85477555D01*
X119523400Y-85503951D01*
X119516559Y-85526504D01*
X119505452Y-85547283D01*
X119490501Y-85565501D01*
X119472283Y-85580452D01*
X119451504Y-85591559D01*
X119428951Y-85598400D01*
X119402554Y-85601000D01*
X118047446Y-85601000D01*
X118021049Y-85598400D01*
X117998496Y-85591559D01*
X117977717Y-85580452D01*
X117959499Y-85565501D01*
X117944548Y-85547283D01*
X117933441Y-85526504D01*
X117926600Y-85503951D01*
X117924000Y-85477555D01*
X117924000Y-85122446D01*
X117926600Y-85096049D01*
X117933441Y-85073496D01*
X117944548Y-85052717D01*
X117959499Y-85034499D01*
X117977717Y-85019548D01*
X117998496Y-85008441D01*
X118021049Y-85001600D01*
X118047445Y-84999000D01*
X119402555Y-84999000D01*
X119428951Y-85001600D01*
G37*
G36*
X119428951Y-84201600D02*
G01*
X119451504Y-84208441D01*
X119472283Y-84219548D01*
X119490501Y-84234499D01*
X119505452Y-84252717D01*
X119516559Y-84273496D01*
X119523400Y-84296049D01*
X119526000Y-84322446D01*
X119526000Y-84677555D01*
X119523400Y-84703951D01*
X119516559Y-84726504D01*
X119505452Y-84747283D01*
X119490501Y-84765501D01*
X119472283Y-84780452D01*
X119451504Y-84791559D01*
X119428951Y-84798400D01*
X119402554Y-84801000D01*
X118047446Y-84801000D01*
X118021049Y-84798400D01*
X117998496Y-84791559D01*
X117977717Y-84780452D01*
X117959499Y-84765501D01*
X117944548Y-84747283D01*
X117933441Y-84726504D01*
X117926600Y-84703951D01*
X117924000Y-84677555D01*
X117924000Y-84322446D01*
X117926600Y-84296049D01*
X117933441Y-84273496D01*
X117944548Y-84252717D01*
X117959499Y-84234499D01*
X117977717Y-84219548D01*
X117998496Y-84208441D01*
X118021049Y-84201600D01*
X118047445Y-84199000D01*
X119402555Y-84199000D01*
X119428951Y-84201600D01*
G37*
G36*
X127778951Y-84201600D02*
G01*
X127801504Y-84208441D01*
X127822283Y-84219548D01*
X127840501Y-84234499D01*
X127855452Y-84252717D01*
X127866559Y-84273496D01*
X127873400Y-84296049D01*
X127876000Y-84322446D01*
X127876000Y-84677555D01*
X127873400Y-84703951D01*
X127866559Y-84726504D01*
X127855452Y-84747283D01*
X127840501Y-84765501D01*
X127822283Y-84780452D01*
X127801504Y-84791559D01*
X127778951Y-84798400D01*
X127752554Y-84801000D01*
X126397446Y-84801000D01*
X126371049Y-84798400D01*
X126348496Y-84791559D01*
X126327717Y-84780452D01*
X126309499Y-84765501D01*
X126294548Y-84747283D01*
X126283441Y-84726504D01*
X126276600Y-84703951D01*
X126274000Y-84677555D01*
X126274000Y-84322446D01*
X126276600Y-84296049D01*
X126283441Y-84273496D01*
X126294548Y-84252717D01*
X126309499Y-84234499D01*
X126327717Y-84219548D01*
X126348496Y-84208441D01*
X126371049Y-84201600D01*
X126397445Y-84199000D01*
X127752555Y-84199000D01*
X127778951Y-84201600D01*
G37*
G36*
X138262812Y-82593624D02*
G01*
X138426784Y-82661544D01*
X138426786Y-82661545D01*
X138500569Y-82710846D01*
X138574354Y-82760147D01*
X138699853Y-82885646D01*
X138798456Y-83033216D01*
X138866376Y-83197188D01*
X138901000Y-83371259D01*
X138901000Y-83548741D01*
X138866376Y-83722812D01*
X138798456Y-83886784D01*
X138798455Y-83886786D01*
X138784217Y-83908094D01*
X138699853Y-84034354D01*
X138574354Y-84159853D01*
X138501637Y-84208441D01*
X138426786Y-84258455D01*
X138426785Y-84258456D01*
X138426784Y-84258456D01*
X138262812Y-84326376D01*
X138088741Y-84361000D01*
X137911259Y-84361000D01*
X137737188Y-84326376D01*
X137573216Y-84258456D01*
X137573215Y-84258456D01*
X137573214Y-84258455D01*
X137498363Y-84208441D01*
X137425646Y-84159853D01*
X137300147Y-84034354D01*
X137215783Y-83908094D01*
X137201545Y-83886786D01*
X137201544Y-83886784D01*
X137133624Y-83722812D01*
X137099000Y-83548741D01*
X137099000Y-83371259D01*
X137133624Y-83197188D01*
X137201544Y-83033216D01*
X137300147Y-82885646D01*
X137425646Y-82760147D01*
X137499431Y-82710846D01*
X137573214Y-82661545D01*
X137573216Y-82661544D01*
X137737188Y-82593624D01*
X137911259Y-82559000D01*
X138088741Y-82559000D01*
X138262812Y-82593624D01*
G37*
G36*
X113895871Y-82853882D02*
G01*
X113940694Y-82867479D01*
X113982008Y-82889562D01*
X114018220Y-82919280D01*
X114047938Y-82955492D01*
X114070021Y-82996806D01*
X114083618Y-83041629D01*
X114088500Y-83091197D01*
X114088500Y-84108803D01*
X114083618Y-84158371D01*
X114070021Y-84203194D01*
X114047938Y-84244508D01*
X114018220Y-84280720D01*
X113982008Y-84310438D01*
X113940694Y-84332521D01*
X113895871Y-84346118D01*
X113846303Y-84351000D01*
X113253697Y-84351000D01*
X113204129Y-84346118D01*
X113159306Y-84332521D01*
X113117992Y-84310438D01*
X113081780Y-84280720D01*
X113052062Y-84244508D01*
X113029979Y-84203194D01*
X113016382Y-84158371D01*
X113011500Y-84108803D01*
X113011500Y-83091197D01*
X113016382Y-83041629D01*
X113029979Y-82996806D01*
X113052062Y-82955492D01*
X113081780Y-82919280D01*
X113117992Y-82889562D01*
X113159306Y-82867479D01*
X113204129Y-82853882D01*
X113253697Y-82849000D01*
X113846303Y-82849000D01*
X113895871Y-82853882D01*
G37*
G36*
X115770871Y-82853882D02*
G01*
X115815694Y-82867479D01*
X115857008Y-82889562D01*
X115893220Y-82919280D01*
X115922938Y-82955492D01*
X115945021Y-82996806D01*
X115958618Y-83041629D01*
X115963500Y-83091197D01*
X115963500Y-84108803D01*
X115958618Y-84158371D01*
X115945021Y-84203194D01*
X115922938Y-84244508D01*
X115893220Y-84280720D01*
X115857008Y-84310438D01*
X115815694Y-84332521D01*
X115770871Y-84346118D01*
X115721303Y-84351000D01*
X115128697Y-84351000D01*
X115079129Y-84346118D01*
X115034306Y-84332521D01*
X114992992Y-84310438D01*
X114956780Y-84280720D01*
X114927062Y-84244508D01*
X114904979Y-84203194D01*
X114891382Y-84158371D01*
X114886500Y-84108803D01*
X114886500Y-83091197D01*
X114891382Y-83041629D01*
X114904979Y-82996806D01*
X114927062Y-82955492D01*
X114956780Y-82919280D01*
X114992992Y-82889562D01*
X115034306Y-82867479D01*
X115079129Y-82853882D01*
X115128697Y-82849000D01*
X115721303Y-82849000D01*
X115770871Y-82853882D01*
G37*
G36*
X119428951Y-83401600D02*
G01*
X119451504Y-83408441D01*
X119472283Y-83419548D01*
X119490501Y-83434499D01*
X119505452Y-83452717D01*
X119516559Y-83473496D01*
X119523400Y-83496049D01*
X119526000Y-83522446D01*
X119526000Y-83877555D01*
X119523400Y-83903951D01*
X119516559Y-83926504D01*
X119505452Y-83947283D01*
X119490501Y-83965501D01*
X119472283Y-83980452D01*
X119451504Y-83991559D01*
X119428951Y-83998400D01*
X119402554Y-84001000D01*
X118047446Y-84001000D01*
X118021049Y-83998400D01*
X117998496Y-83991559D01*
X117977717Y-83980452D01*
X117959499Y-83965501D01*
X117944548Y-83947283D01*
X117933441Y-83926504D01*
X117926600Y-83903951D01*
X117924000Y-83877555D01*
X117924000Y-83522446D01*
X117926600Y-83496049D01*
X117933441Y-83473496D01*
X117944548Y-83452717D01*
X117959499Y-83434499D01*
X117977717Y-83419548D01*
X117998496Y-83408441D01*
X118021049Y-83401600D01*
X118047445Y-83399000D01*
X119402555Y-83399000D01*
X119428951Y-83401600D01*
G37*
G36*
X127778951Y-83401600D02*
G01*
X127801504Y-83408441D01*
X127822283Y-83419548D01*
X127840501Y-83434499D01*
X127855452Y-83452717D01*
X127866559Y-83473496D01*
X127873400Y-83496049D01*
X127876000Y-83522446D01*
X127876000Y-83877555D01*
X127873400Y-83903951D01*
X127866559Y-83926504D01*
X127855452Y-83947283D01*
X127840501Y-83965501D01*
X127822283Y-83980452D01*
X127801504Y-83991559D01*
X127778951Y-83998400D01*
X127752554Y-84001000D01*
X126397446Y-84001000D01*
X126371049Y-83998400D01*
X126348496Y-83991559D01*
X126327717Y-83980452D01*
X126309499Y-83965501D01*
X126294548Y-83947283D01*
X126283441Y-83926504D01*
X126276600Y-83903951D01*
X126274000Y-83877555D01*
X126274000Y-83522446D01*
X126276600Y-83496049D01*
X126283441Y-83473496D01*
X126294548Y-83452717D01*
X126309499Y-83434499D01*
X126327717Y-83419548D01*
X126348496Y-83408441D01*
X126371049Y-83401600D01*
X126397445Y-83399000D01*
X127752555Y-83399000D01*
X127778951Y-83401600D01*
G37*
G36*
X105261162Y-80374368D02*
G01*
X105570727Y-80502594D01*
X105849323Y-80688746D01*
X106086254Y-80925677D01*
X106272406Y-81204273D01*
X106400632Y-81513838D01*
X106466000Y-81842465D01*
X106466000Y-82177535D01*
X106400632Y-82506162D01*
X106272406Y-82815727D01*
X106086254Y-83094323D01*
X105849323Y-83331254D01*
X105570727Y-83517406D01*
X105261162Y-83645632D01*
X104932535Y-83711000D01*
X104597465Y-83711000D01*
X104268838Y-83645632D01*
X103959273Y-83517406D01*
X103680677Y-83331254D01*
X103443746Y-83094323D01*
X103257594Y-82815727D01*
X103129368Y-82506162D01*
X103064000Y-82177535D01*
X103064000Y-81842465D01*
X103129368Y-81513838D01*
X103257594Y-81204273D01*
X103443746Y-80925677D01*
X103680677Y-80688746D01*
X103959273Y-80502594D01*
X104268838Y-80374368D01*
X104597465Y-80309000D01*
X104932535Y-80309000D01*
X105261162Y-80374368D01*
G37*
G36*
X86301000Y-83301000D02*
G01*
X84499000Y-83301000D01*
X84499000Y-81499000D01*
X86301000Y-81499000D01*
X86301000Y-83301000D01*
G37*
G36*
X127778951Y-82601600D02*
G01*
X127801504Y-82608441D01*
X127822283Y-82619548D01*
X127840501Y-82634499D01*
X127855452Y-82652717D01*
X127866559Y-82673496D01*
X127873400Y-82696049D01*
X127876000Y-82722446D01*
X127876000Y-83077555D01*
X127873400Y-83103951D01*
X127866559Y-83126504D01*
X127855452Y-83147283D01*
X127840501Y-83165501D01*
X127822283Y-83180452D01*
X127801504Y-83191559D01*
X127778951Y-83198400D01*
X127752554Y-83201000D01*
X126397446Y-83201000D01*
X126371049Y-83198400D01*
X126348496Y-83191559D01*
X126327717Y-83180452D01*
X126309499Y-83165501D01*
X126294548Y-83147283D01*
X126283441Y-83126504D01*
X126276600Y-83103951D01*
X126274000Y-83077555D01*
X126274000Y-82722446D01*
X126276600Y-82696049D01*
X126283441Y-82673496D01*
X126294548Y-82652717D01*
X126309499Y-82634499D01*
X126327717Y-82619548D01*
X126348496Y-82608441D01*
X126371049Y-82601600D01*
X126397445Y-82599000D01*
X127752555Y-82599000D01*
X127778951Y-82601600D01*
G37*
G36*
X119428951Y-82601600D02*
G01*
X119451504Y-82608441D01*
X119472283Y-82619548D01*
X119490501Y-82634499D01*
X119505452Y-82652717D01*
X119516559Y-82673496D01*
X119523400Y-82696049D01*
X119526000Y-82722446D01*
X119526000Y-83077555D01*
X119523400Y-83103951D01*
X119516559Y-83126504D01*
X119505452Y-83147283D01*
X119490501Y-83165501D01*
X119472283Y-83180452D01*
X119451504Y-83191559D01*
X119428951Y-83198400D01*
X119402554Y-83201000D01*
X118047446Y-83201000D01*
X118021049Y-83198400D01*
X117998496Y-83191559D01*
X117977717Y-83180452D01*
X117959499Y-83165501D01*
X117944548Y-83147283D01*
X117933441Y-83126504D01*
X117926600Y-83103951D01*
X117924000Y-83077555D01*
X117924000Y-82722446D01*
X117926600Y-82696049D01*
X117933441Y-82673496D01*
X117944548Y-82652717D01*
X117959499Y-82634499D01*
X117977717Y-82619548D01*
X117998496Y-82608441D01*
X118021049Y-82601600D01*
X118047445Y-82599000D01*
X119402555Y-82599000D01*
X119428951Y-82601600D01*
G37*
G36*
X77906564Y-80999389D02*
G01*
X78097838Y-81078616D01*
X78269972Y-81193633D01*
X78416367Y-81340028D01*
X78531384Y-81512162D01*
X78610611Y-81703436D01*
X78651000Y-81906484D01*
X78651000Y-82113516D01*
X78610611Y-82316564D01*
X78531384Y-82507838D01*
X78416367Y-82679972D01*
X78269972Y-82826367D01*
X78097838Y-82941384D01*
X77906564Y-83020611D01*
X77703516Y-83061000D01*
X77496484Y-83061000D01*
X77293436Y-83020611D01*
X77102162Y-82941384D01*
X76930028Y-82826367D01*
X76783633Y-82679972D01*
X76668616Y-82507838D01*
X76589389Y-82316564D01*
X76549000Y-82113516D01*
X76549000Y-81906484D01*
X76589389Y-81703436D01*
X76668616Y-81512162D01*
X76783633Y-81340028D01*
X76930028Y-81193633D01*
X77102162Y-81078616D01*
X77293436Y-80999389D01*
X77496484Y-80959000D01*
X77703516Y-80959000D01*
X77906564Y-80999389D01*
G37*
G36*
X127778951Y-81801600D02*
G01*
X127801504Y-81808441D01*
X127822283Y-81819548D01*
X127840501Y-81834499D01*
X127855452Y-81852717D01*
X127866559Y-81873496D01*
X127873400Y-81896049D01*
X127876000Y-81922446D01*
X127876000Y-82277555D01*
X127873400Y-82303951D01*
X127866559Y-82326504D01*
X127855452Y-82347283D01*
X127840501Y-82365501D01*
X127822283Y-82380452D01*
X127801504Y-82391559D01*
X127778951Y-82398400D01*
X127752554Y-82401000D01*
X126397446Y-82401000D01*
X126371049Y-82398400D01*
X126348496Y-82391559D01*
X126327717Y-82380452D01*
X126309499Y-82365501D01*
X126294548Y-82347283D01*
X126283441Y-82326504D01*
X126276600Y-82303951D01*
X126274000Y-82277555D01*
X126274000Y-81922446D01*
X126276600Y-81896049D01*
X126283441Y-81873496D01*
X126294548Y-81852717D01*
X126309499Y-81834499D01*
X126327717Y-81819548D01*
X126348496Y-81808441D01*
X126371049Y-81801600D01*
X126397445Y-81799000D01*
X127752555Y-81799000D01*
X127778951Y-81801600D01*
G37*
G36*
X119428951Y-81801600D02*
G01*
X119451504Y-81808441D01*
X119472283Y-81819548D01*
X119490501Y-81834499D01*
X119505452Y-81852717D01*
X119516559Y-81873496D01*
X119523400Y-81896049D01*
X119526000Y-81922446D01*
X119526000Y-82277555D01*
X119523400Y-82303951D01*
X119516559Y-82326504D01*
X119505452Y-82347283D01*
X119490501Y-82365501D01*
X119472283Y-82380452D01*
X119451504Y-82391559D01*
X119428951Y-82398400D01*
X119402554Y-82401000D01*
X118047446Y-82401000D01*
X118021049Y-82398400D01*
X117998496Y-82391559D01*
X117977717Y-82380452D01*
X117959499Y-82365501D01*
X117944548Y-82347283D01*
X117933441Y-82326504D01*
X117926600Y-82303951D01*
X117924000Y-82277555D01*
X117924000Y-81922446D01*
X117926600Y-81896049D01*
X117933441Y-81873496D01*
X117944548Y-81852717D01*
X117959499Y-81834499D01*
X117977717Y-81819548D01*
X117998496Y-81808441D01*
X118021049Y-81801600D01*
X118047445Y-81799000D01*
X119402555Y-81799000D01*
X119428951Y-81801600D01*
G37*
G36*
X113870871Y-80453882D02*
G01*
X113915694Y-80467479D01*
X113957008Y-80489562D01*
X113993220Y-80519280D01*
X114022938Y-80555492D01*
X114045021Y-80596806D01*
X114058618Y-80641629D01*
X114063500Y-80691197D01*
X114063500Y-81708803D01*
X114058618Y-81758371D01*
X114045021Y-81803194D01*
X114022938Y-81844508D01*
X113993220Y-81880720D01*
X113957008Y-81910438D01*
X113915694Y-81932521D01*
X113870871Y-81946118D01*
X113821303Y-81951000D01*
X113228697Y-81951000D01*
X113179129Y-81946118D01*
X113134306Y-81932521D01*
X113092992Y-81910438D01*
X113056780Y-81880720D01*
X113027062Y-81844508D01*
X113004979Y-81803194D01*
X112991382Y-81758371D01*
X112986500Y-81708803D01*
X112986500Y-80691197D01*
X112991382Y-80641629D01*
X113004979Y-80596806D01*
X113027062Y-80555492D01*
X113056780Y-80519280D01*
X113092992Y-80489562D01*
X113134306Y-80467479D01*
X113179129Y-80453882D01*
X113228697Y-80449000D01*
X113821303Y-80449000D01*
X113870871Y-80453882D01*
G37*
G36*
X115745871Y-80453882D02*
G01*
X115790694Y-80467479D01*
X115832008Y-80489562D01*
X115868220Y-80519280D01*
X115897938Y-80555492D01*
X115920021Y-80596806D01*
X115933618Y-80641629D01*
X115938500Y-80691197D01*
X115938500Y-81708803D01*
X115933618Y-81758371D01*
X115920021Y-81803194D01*
X115897938Y-81844508D01*
X115868220Y-81880720D01*
X115832008Y-81910438D01*
X115790694Y-81932521D01*
X115745871Y-81946118D01*
X115696303Y-81951000D01*
X115103697Y-81951000D01*
X115054129Y-81946118D01*
X115009306Y-81932521D01*
X114967992Y-81910438D01*
X114931780Y-81880720D01*
X114902062Y-81844508D01*
X114879979Y-81803194D01*
X114866382Y-81758371D01*
X114861500Y-81708803D01*
X114861500Y-80691197D01*
X114866382Y-80641629D01*
X114879979Y-80596806D01*
X114902062Y-80555492D01*
X114931780Y-80519280D01*
X114967992Y-80489562D01*
X115009306Y-80467479D01*
X115054129Y-80453882D01*
X115103697Y-80449000D01*
X115696303Y-80449000D01*
X115745871Y-80453882D01*
G37*
G36*
X138262812Y-80053624D02*
G01*
X138426784Y-80121544D01*
X138426786Y-80121545D01*
X138500569Y-80170846D01*
X138574354Y-80220147D01*
X138699853Y-80345646D01*
X138699854Y-80345648D01*
X138796015Y-80489562D01*
X138798456Y-80493216D01*
X138866376Y-80657188D01*
X138901000Y-80831259D01*
X138901000Y-81008741D01*
X138866376Y-81182812D01*
X138798456Y-81346784D01*
X138699853Y-81494354D01*
X138574354Y-81619853D01*
X138500569Y-81669155D01*
X138426786Y-81718455D01*
X138426785Y-81718456D01*
X138426784Y-81718456D01*
X138262812Y-81786376D01*
X138088741Y-81821000D01*
X137911259Y-81821000D01*
X137737188Y-81786376D01*
X137573216Y-81718456D01*
X137573215Y-81718456D01*
X137573214Y-81718455D01*
X137499431Y-81669154D01*
X137425646Y-81619853D01*
X137300147Y-81494354D01*
X137201544Y-81346784D01*
X137133624Y-81182812D01*
X137099000Y-81008741D01*
X137099000Y-80831259D01*
X137133624Y-80657188D01*
X137201544Y-80493216D01*
X137203986Y-80489562D01*
X137300146Y-80345648D01*
X137300147Y-80345646D01*
X137425646Y-80220147D01*
X137499431Y-80170846D01*
X137573214Y-80121545D01*
X137573216Y-80121544D01*
X137737188Y-80053624D01*
X137911259Y-80019000D01*
X138088741Y-80019000D01*
X138262812Y-80053624D01*
G37*
G36*
X120303951Y-79926600D02*
G01*
X120326504Y-79933441D01*
X120347283Y-79944548D01*
X120365501Y-79959499D01*
X120380452Y-79977717D01*
X120391559Y-79998496D01*
X120398400Y-80021049D01*
X120401000Y-80047446D01*
X120401000Y-81402555D01*
X120398400Y-81428951D01*
X120391559Y-81451504D01*
X120380452Y-81472283D01*
X120365501Y-81490501D01*
X120347283Y-81505452D01*
X120326504Y-81516559D01*
X120303951Y-81523400D01*
X120277554Y-81526000D01*
X119922446Y-81526000D01*
X119896049Y-81523400D01*
X119873496Y-81516559D01*
X119852717Y-81505452D01*
X119834499Y-81490501D01*
X119819548Y-81472283D01*
X119808441Y-81451504D01*
X119801600Y-81428951D01*
X119799000Y-81402555D01*
X119799000Y-80047446D01*
X119801600Y-80021049D01*
X119808441Y-79998496D01*
X119819548Y-79977717D01*
X119834499Y-79959499D01*
X119852717Y-79944548D01*
X119873496Y-79933441D01*
X119896049Y-79926600D01*
X119922445Y-79924000D01*
X120277555Y-79924000D01*
X120303951Y-79926600D01*
G37*
G36*
X125903951Y-79926600D02*
G01*
X125926504Y-79933441D01*
X125947283Y-79944548D01*
X125965501Y-79959499D01*
X125980452Y-79977717D01*
X125991559Y-79998496D01*
X125998400Y-80021049D01*
X126001000Y-80047446D01*
X126001000Y-81402555D01*
X125998400Y-81428951D01*
X125991559Y-81451504D01*
X125980452Y-81472283D01*
X125965501Y-81490501D01*
X125947283Y-81505452D01*
X125926504Y-81516559D01*
X125903951Y-81523400D01*
X125877554Y-81526000D01*
X125522446Y-81526000D01*
X125496049Y-81523400D01*
X125473496Y-81516559D01*
X125452717Y-81505452D01*
X125434499Y-81490501D01*
X125419548Y-81472283D01*
X125408441Y-81451504D01*
X125401600Y-81428951D01*
X125399000Y-81402555D01*
X125399000Y-80047446D01*
X125401600Y-80021049D01*
X125408441Y-79998496D01*
X125419548Y-79977717D01*
X125434499Y-79959499D01*
X125452717Y-79944548D01*
X125473496Y-79933441D01*
X125496049Y-79926600D01*
X125522445Y-79924000D01*
X125877555Y-79924000D01*
X125903951Y-79926600D01*
G37*
G36*
X125103951Y-79926600D02*
G01*
X125126504Y-79933441D01*
X125147283Y-79944548D01*
X125165501Y-79959499D01*
X125180452Y-79977717D01*
X125191559Y-79998496D01*
X125198400Y-80021049D01*
X125201000Y-80047446D01*
X125201000Y-81402555D01*
X125198400Y-81428951D01*
X125191559Y-81451504D01*
X125180452Y-81472283D01*
X125165501Y-81490501D01*
X125147283Y-81505452D01*
X125126504Y-81516559D01*
X125103951Y-81523400D01*
X125077554Y-81526000D01*
X124722446Y-81526000D01*
X124696049Y-81523400D01*
X124673496Y-81516559D01*
X124652717Y-81505452D01*
X124634499Y-81490501D01*
X124619548Y-81472283D01*
X124608441Y-81451504D01*
X124601600Y-81428951D01*
X124599000Y-81402555D01*
X124599000Y-80047446D01*
X124601600Y-80021049D01*
X124608441Y-79998496D01*
X124619548Y-79977717D01*
X124634499Y-79959499D01*
X124652717Y-79944548D01*
X124673496Y-79933441D01*
X124696049Y-79926600D01*
X124722445Y-79924000D01*
X125077555Y-79924000D01*
X125103951Y-79926600D01*
G37*
G36*
X124303951Y-79926600D02*
G01*
X124326504Y-79933441D01*
X124347283Y-79944548D01*
X124365501Y-79959499D01*
X124380452Y-79977717D01*
X124391559Y-79998496D01*
X124398400Y-80021049D01*
X124401000Y-80047446D01*
X124401000Y-81402555D01*
X124398400Y-81428951D01*
X124391559Y-81451504D01*
X124380452Y-81472283D01*
X124365501Y-81490501D01*
X124347283Y-81505452D01*
X124326504Y-81516559D01*
X124303951Y-81523400D01*
X124277554Y-81526000D01*
X123922446Y-81526000D01*
X123896049Y-81523400D01*
X123873496Y-81516559D01*
X123852717Y-81505452D01*
X123834499Y-81490501D01*
X123819548Y-81472283D01*
X123808441Y-81451504D01*
X123801600Y-81428951D01*
X123799000Y-81402555D01*
X123799000Y-80047446D01*
X123801600Y-80021049D01*
X123808441Y-79998496D01*
X123819548Y-79977717D01*
X123834499Y-79959499D01*
X123852717Y-79944548D01*
X123873496Y-79933441D01*
X123896049Y-79926600D01*
X123922445Y-79924000D01*
X124277555Y-79924000D01*
X124303951Y-79926600D01*
G37*
G36*
X123503951Y-79926600D02*
G01*
X123526504Y-79933441D01*
X123547283Y-79944548D01*
X123565501Y-79959499D01*
X123580452Y-79977717D01*
X123591559Y-79998496D01*
X123598400Y-80021049D01*
X123601000Y-80047446D01*
X123601000Y-81402555D01*
X123598400Y-81428951D01*
X123591559Y-81451504D01*
X123580452Y-81472283D01*
X123565501Y-81490501D01*
X123547283Y-81505452D01*
X123526504Y-81516559D01*
X123503951Y-81523400D01*
X123477554Y-81526000D01*
X123122446Y-81526000D01*
X123096049Y-81523400D01*
X123073496Y-81516559D01*
X123052717Y-81505452D01*
X123034499Y-81490501D01*
X123019548Y-81472283D01*
X123008441Y-81451504D01*
X123001600Y-81428951D01*
X122999000Y-81402555D01*
X122999000Y-80047446D01*
X123001600Y-80021049D01*
X123008441Y-79998496D01*
X123019548Y-79977717D01*
X123034499Y-79959499D01*
X123052717Y-79944548D01*
X123073496Y-79933441D01*
X123096049Y-79926600D01*
X123122445Y-79924000D01*
X123477555Y-79924000D01*
X123503951Y-79926600D01*
G37*
G36*
X122703951Y-79926600D02*
G01*
X122726504Y-79933441D01*
X122747283Y-79944548D01*
X122765501Y-79959499D01*
X122780452Y-79977717D01*
X122791559Y-79998496D01*
X122798400Y-80021049D01*
X122801000Y-80047446D01*
X122801000Y-81402555D01*
X122798400Y-81428951D01*
X122791559Y-81451504D01*
X122780452Y-81472283D01*
X122765501Y-81490501D01*
X122747283Y-81505452D01*
X122726504Y-81516559D01*
X122703951Y-81523400D01*
X122677554Y-81526000D01*
X122322446Y-81526000D01*
X122296049Y-81523400D01*
X122273496Y-81516559D01*
X122252717Y-81505452D01*
X122234499Y-81490501D01*
X122219548Y-81472283D01*
X122208441Y-81451504D01*
X122201600Y-81428951D01*
X122199000Y-81402555D01*
X122199000Y-80047446D01*
X122201600Y-80021049D01*
X122208441Y-79998496D01*
X122219548Y-79977717D01*
X122234499Y-79959499D01*
X122252717Y-79944548D01*
X122273496Y-79933441D01*
X122296049Y-79926600D01*
X122322445Y-79924000D01*
X122677555Y-79924000D01*
X122703951Y-79926600D01*
G37*
G36*
X121903951Y-79926600D02*
G01*
X121926504Y-79933441D01*
X121947283Y-79944548D01*
X121965501Y-79959499D01*
X121980452Y-79977717D01*
X121991559Y-79998496D01*
X121998400Y-80021049D01*
X122001000Y-80047446D01*
X122001000Y-81402555D01*
X121998400Y-81428951D01*
X121991559Y-81451504D01*
X121980452Y-81472283D01*
X121965501Y-81490501D01*
X121947283Y-81505452D01*
X121926504Y-81516559D01*
X121903951Y-81523400D01*
X121877554Y-81526000D01*
X121522446Y-81526000D01*
X121496049Y-81523400D01*
X121473496Y-81516559D01*
X121452717Y-81505452D01*
X121434499Y-81490501D01*
X121419548Y-81472283D01*
X121408441Y-81451504D01*
X121401600Y-81428951D01*
X121399000Y-81402555D01*
X121399000Y-80047446D01*
X121401600Y-80021049D01*
X121408441Y-79998496D01*
X121419548Y-79977717D01*
X121434499Y-79959499D01*
X121452717Y-79944548D01*
X121473496Y-79933441D01*
X121496049Y-79926600D01*
X121522445Y-79924000D01*
X121877555Y-79924000D01*
X121903951Y-79926600D01*
G37*
G36*
X121103951Y-79926600D02*
G01*
X121126504Y-79933441D01*
X121147283Y-79944548D01*
X121165501Y-79959499D01*
X121180452Y-79977717D01*
X121191559Y-79998496D01*
X121198400Y-80021049D01*
X121201000Y-80047446D01*
X121201000Y-81402555D01*
X121198400Y-81428951D01*
X121191559Y-81451504D01*
X121180452Y-81472283D01*
X121165501Y-81490501D01*
X121147283Y-81505452D01*
X121126504Y-81516559D01*
X121103951Y-81523400D01*
X121077554Y-81526000D01*
X120722446Y-81526000D01*
X120696049Y-81523400D01*
X120673496Y-81516559D01*
X120652717Y-81505452D01*
X120634499Y-81490501D01*
X120619548Y-81472283D01*
X120608441Y-81451504D01*
X120601600Y-81428951D01*
X120599000Y-81402555D01*
X120599000Y-80047446D01*
X120601600Y-80021049D01*
X120608441Y-79998496D01*
X120619548Y-79977717D01*
X120634499Y-79959499D01*
X120652717Y-79944548D01*
X120673496Y-79933441D01*
X120696049Y-79926600D01*
X120722445Y-79924000D01*
X121077555Y-79924000D01*
X121103951Y-79926600D01*
G37*
G36*
X86301000Y-79301000D02*
G01*
X84499000Y-79301000D01*
X84499000Y-77499000D01*
X86301000Y-77499000D01*
X86301000Y-79301000D01*
G37*
G36*
X138262812Y-77513624D02*
G01*
X138426784Y-77581544D01*
X138426786Y-77581545D01*
X138500569Y-77630846D01*
X138574354Y-77680147D01*
X138699853Y-77805646D01*
X138798456Y-77953216D01*
X138866376Y-78117188D01*
X138901000Y-78291259D01*
X138901000Y-78468741D01*
X138866376Y-78642812D01*
X138798456Y-78806784D01*
X138699853Y-78954354D01*
X138574354Y-79079853D01*
X138500569Y-79129155D01*
X138426786Y-79178455D01*
X138426785Y-79178456D01*
X138426784Y-79178456D01*
X138262812Y-79246376D01*
X138088741Y-79281000D01*
X137911259Y-79281000D01*
X137737188Y-79246376D01*
X137573216Y-79178456D01*
X137573215Y-79178456D01*
X137573214Y-79178455D01*
X137499431Y-79129155D01*
X137425646Y-79079853D01*
X137300147Y-78954354D01*
X137201544Y-78806784D01*
X137133624Y-78642812D01*
X137099000Y-78468741D01*
X137099000Y-78291259D01*
X137133624Y-78117188D01*
X137201544Y-77953216D01*
X137300147Y-77805646D01*
X137425646Y-77680147D01*
X137499431Y-77630846D01*
X137573214Y-77581545D01*
X137573216Y-77581544D01*
X137737188Y-77513624D01*
X137911259Y-77479000D01*
X138088741Y-77479000D01*
X138262812Y-77513624D01*
G37*
G36*
X121133371Y-77303882D02*
G01*
X121178194Y-77317479D01*
X121219508Y-77339562D01*
X121255720Y-77369280D01*
X121285438Y-77405492D01*
X121307521Y-77446806D01*
X121321118Y-77491629D01*
X121326000Y-77541197D01*
X121326000Y-78133803D01*
X121321118Y-78183371D01*
X121307521Y-78228194D01*
X121285438Y-78269508D01*
X121255720Y-78305720D01*
X121219508Y-78335438D01*
X121178194Y-78357521D01*
X121133371Y-78371118D01*
X121083803Y-78376000D01*
X120066197Y-78376000D01*
X120016629Y-78371118D01*
X119971806Y-78357521D01*
X119930492Y-78335438D01*
X119894280Y-78305720D01*
X119864562Y-78269508D01*
X119842479Y-78228194D01*
X119828882Y-78183371D01*
X119824000Y-78133803D01*
X119824000Y-77541197D01*
X119828882Y-77491629D01*
X119842479Y-77446806D01*
X119864562Y-77405492D01*
X119894280Y-77369280D01*
X119930492Y-77339562D01*
X119971806Y-77317479D01*
X120016629Y-77303882D01*
X120066197Y-77299000D01*
X121083803Y-77299000D01*
X121133371Y-77303882D01*
G37*
G36*
X138262812Y-74973624D02*
G01*
X138426784Y-75041544D01*
X138426786Y-75041545D01*
X138500569Y-75090846D01*
X138574354Y-75140147D01*
X138699853Y-75265646D01*
X138798456Y-75413216D01*
X138866376Y-75577188D01*
X138901000Y-75751259D01*
X138901000Y-75928741D01*
X138866376Y-76102812D01*
X138801762Y-76258803D01*
X138798455Y-76266786D01*
X138753017Y-76334788D01*
X138699853Y-76414354D01*
X138574354Y-76539853D01*
X138500569Y-76589154D01*
X138426786Y-76638455D01*
X138426785Y-76638456D01*
X138426784Y-76638456D01*
X138262812Y-76706376D01*
X138088741Y-76741000D01*
X137911259Y-76741000D01*
X137737188Y-76706376D01*
X137573216Y-76638456D01*
X137573215Y-76638456D01*
X137573214Y-76638455D01*
X137499431Y-76589155D01*
X137425646Y-76539853D01*
X137300147Y-76414354D01*
X137246983Y-76334788D01*
X137201545Y-76266786D01*
X137198238Y-76258803D01*
X137133624Y-76102812D01*
X137099000Y-75928741D01*
X137099000Y-75751259D01*
X137133624Y-75577188D01*
X137201544Y-75413216D01*
X137300147Y-75265646D01*
X137425646Y-75140147D01*
X137499431Y-75090846D01*
X137573214Y-75041545D01*
X137573216Y-75041544D01*
X137737188Y-74973624D01*
X137911259Y-74939000D01*
X138088741Y-74939000D01*
X138262812Y-74973624D01*
G37*
G36*
X121133371Y-75428882D02*
G01*
X121178194Y-75442479D01*
X121219508Y-75464562D01*
X121255720Y-75494280D01*
X121285438Y-75530492D01*
X121307521Y-75571806D01*
X121321118Y-75616629D01*
X121326000Y-75666197D01*
X121326000Y-76258803D01*
X121321118Y-76308371D01*
X121307521Y-76353194D01*
X121285438Y-76394508D01*
X121255720Y-76430720D01*
X121219508Y-76460438D01*
X121178194Y-76482521D01*
X121133371Y-76496118D01*
X121083803Y-76501000D01*
X120066197Y-76501000D01*
X120016629Y-76496118D01*
X119971806Y-76482521D01*
X119930492Y-76460438D01*
X119894280Y-76430720D01*
X119864562Y-76394508D01*
X119842479Y-76353194D01*
X119828882Y-76308371D01*
X119824000Y-76258803D01*
X119824000Y-75666197D01*
X119828882Y-75616629D01*
X119842479Y-75571806D01*
X119864562Y-75530492D01*
X119894280Y-75494280D01*
X119930492Y-75464562D01*
X119971806Y-75442479D01*
X120016629Y-75428882D01*
X120066197Y-75424000D01*
X121083803Y-75424000D01*
X121133371Y-75428882D01*
G37*
G36*
X132611921Y-73315666D02*
G01*
X132779488Y-73348997D01*
X133016255Y-73447069D01*
X133016257Y-73447070D01*
X133122797Y-73518258D01*
X133229339Y-73589447D01*
X133410553Y-73770661D01*
X133552931Y-73983745D01*
X133651003Y-74220512D01*
X133701000Y-74471863D01*
X133701000Y-74728137D01*
X133651003Y-74979488D01*
X133552931Y-75216255D01*
X133410553Y-75429339D01*
X133229339Y-75610553D01*
X133184188Y-75640722D01*
X133016257Y-75752930D01*
X133016256Y-75752931D01*
X133016255Y-75752931D01*
X132779488Y-75851003D01*
X132611921Y-75884334D01*
X132528138Y-75901000D01*
X132271862Y-75901000D01*
X132188079Y-75884334D01*
X132020512Y-75851003D01*
X131783745Y-75752931D01*
X131783744Y-75752931D01*
X131783743Y-75752930D01*
X131615812Y-75640722D01*
X131570661Y-75610553D01*
X131389447Y-75429339D01*
X131247069Y-75216255D01*
X131148997Y-74979488D01*
X131099000Y-74728137D01*
X131099000Y-74471863D01*
X131148997Y-74220512D01*
X131247069Y-73983745D01*
X131389447Y-73770661D01*
X131570661Y-73589447D01*
X131677203Y-73518258D01*
X131783743Y-73447070D01*
X131783745Y-73447069D01*
X132020512Y-73348997D01*
X132188079Y-73315666D01*
X132271862Y-73299000D01*
X132528138Y-73299000D01*
X132611921Y-73315666D01*
G37*
G36*
X92251000Y-74626000D02*
G01*
X91149000Y-74626000D01*
X91149000Y-72524000D01*
X92251000Y-72524000D01*
X92251000Y-74626000D01*
G37*
G36*
X106251000Y-74626000D02*
G01*
X105149000Y-74626000D01*
X105149000Y-72524000D01*
X106251000Y-72524000D01*
X106251000Y-74626000D01*
G37*
G36*
X96251000Y-74626000D02*
G01*
X95149000Y-74626000D01*
X95149000Y-72524000D01*
X96251000Y-72524000D01*
X96251000Y-74626000D01*
G37*
G36*
X98251000Y-74626000D02*
G01*
X97149000Y-74626000D01*
X97149000Y-72524000D01*
X98251000Y-72524000D01*
X98251000Y-74626000D01*
G37*
G36*
X100251000Y-74626000D02*
G01*
X99149000Y-74626000D01*
X99149000Y-72524000D01*
X100251000Y-72524000D01*
X100251000Y-74626000D01*
G37*
G36*
X102251000Y-74626000D02*
G01*
X101149000Y-74626000D01*
X101149000Y-72524000D01*
X102251000Y-72524000D01*
X102251000Y-74626000D01*
G37*
G36*
X94251000Y-74626000D02*
G01*
X93149000Y-74626000D01*
X93149000Y-72524000D01*
X94251000Y-72524000D01*
X94251000Y-74626000D01*
G37*
G36*
X104251000Y-74626000D02*
G01*
X103149000Y-74626000D01*
X103149000Y-72524000D01*
X104251000Y-72524000D01*
X104251000Y-74626000D01*
G37*
G36*
X98070871Y-70053882D02*
G01*
X98115694Y-70067479D01*
X98157008Y-70089562D01*
X98193220Y-70119280D01*
X98222938Y-70155492D01*
X98245021Y-70196806D01*
X98258618Y-70241629D01*
X98263500Y-70291197D01*
X98263500Y-71308803D01*
X98258618Y-71358371D01*
X98245021Y-71403194D01*
X98222938Y-71444508D01*
X98193220Y-71480720D01*
X98157008Y-71510438D01*
X98115694Y-71532521D01*
X98070871Y-71546118D01*
X98021303Y-71551000D01*
X97428697Y-71551000D01*
X97379129Y-71546118D01*
X97334306Y-71532521D01*
X97292992Y-71510438D01*
X97256780Y-71480720D01*
X97227062Y-71444508D01*
X97204979Y-71403194D01*
X97191382Y-71358371D01*
X97186500Y-71308803D01*
X97186500Y-70291197D01*
X97191382Y-70241629D01*
X97204979Y-70196806D01*
X97227062Y-70155492D01*
X97256780Y-70119280D01*
X97292992Y-70089562D01*
X97334306Y-70067479D01*
X97379129Y-70053882D01*
X97428697Y-70049000D01*
X98021303Y-70049000D01*
X98070871Y-70053882D01*
G37*
G36*
X99945871Y-70053882D02*
G01*
X99990694Y-70067479D01*
X100032008Y-70089562D01*
X100068220Y-70119280D01*
X100097938Y-70155492D01*
X100120021Y-70196806D01*
X100133618Y-70241629D01*
X100138500Y-70291197D01*
X100138500Y-71308803D01*
X100133618Y-71358371D01*
X100120021Y-71403194D01*
X100097938Y-71444508D01*
X100068220Y-71480720D01*
X100032008Y-71510438D01*
X99990694Y-71532521D01*
X99945871Y-71546118D01*
X99896303Y-71551000D01*
X99303697Y-71551000D01*
X99254129Y-71546118D01*
X99209306Y-71532521D01*
X99167992Y-71510438D01*
X99131780Y-71480720D01*
X99102062Y-71444508D01*
X99079979Y-71403194D01*
X99066382Y-71358371D01*
X99061500Y-71308803D01*
X99061500Y-70291197D01*
X99066382Y-70241629D01*
X99079979Y-70196806D01*
X99102062Y-70155492D01*
X99131780Y-70119280D01*
X99167992Y-70089562D01*
X99209306Y-70067479D01*
X99254129Y-70053882D01*
X99303697Y-70049000D01*
X99896303Y-70049000D01*
X99945871Y-70053882D01*
G37*
G36*
X106930840Y-70132033D02*
G01*
X106957614Y-70140154D01*
X106982287Y-70153343D01*
X107003911Y-70171089D01*
X107021657Y-70192713D01*
X107034846Y-70217386D01*
X107042967Y-70244160D01*
X107046000Y-70274948D01*
X107046000Y-70725052D01*
X107042967Y-70755840D01*
X107034846Y-70782614D01*
X107021657Y-70807287D01*
X107003911Y-70828911D01*
X106982287Y-70846657D01*
X106957614Y-70859846D01*
X106930840Y-70867967D01*
X106900052Y-70871000D01*
X106499948Y-70871000D01*
X106469160Y-70867967D01*
X106442386Y-70859846D01*
X106417713Y-70846657D01*
X106396089Y-70828911D01*
X106378343Y-70807287D01*
X106365154Y-70782614D01*
X106357033Y-70755840D01*
X106354000Y-70725052D01*
X106354000Y-70274948D01*
X106357033Y-70244160D01*
X106365154Y-70217386D01*
X106378343Y-70192713D01*
X106396089Y-70171089D01*
X106417713Y-70153343D01*
X106442386Y-70140154D01*
X106469160Y-70132033D01*
X106499948Y-70129000D01*
X106900052Y-70129000D01*
X106930840Y-70132033D01*
G37*
G36*
X105960840Y-70132033D02*
G01*
X105987614Y-70140154D01*
X106012287Y-70153343D01*
X106033911Y-70171089D01*
X106051657Y-70192713D01*
X106064846Y-70217386D01*
X106072967Y-70244160D01*
X106076000Y-70274948D01*
X106076000Y-70725052D01*
X106072967Y-70755840D01*
X106064846Y-70782614D01*
X106051657Y-70807287D01*
X106033911Y-70828911D01*
X106012287Y-70846657D01*
X105987614Y-70859846D01*
X105960840Y-70867967D01*
X105930052Y-70871000D01*
X105529948Y-70871000D01*
X105499160Y-70867967D01*
X105472386Y-70859846D01*
X105447713Y-70846657D01*
X105426089Y-70828911D01*
X105408343Y-70807287D01*
X105395154Y-70782614D01*
X105387033Y-70755840D01*
X105384000Y-70725052D01*
X105384000Y-70274948D01*
X105387033Y-70244160D01*
X105395154Y-70217386D01*
X105408343Y-70192713D01*
X105426089Y-70171089D01*
X105447713Y-70153343D01*
X105472386Y-70140154D01*
X105499160Y-70132033D01*
X105529948Y-70129000D01*
X105930052Y-70129000D01*
X105960840Y-70132033D01*
G37*
G36*
X105955840Y-69127033D02*
G01*
X105982614Y-69135154D01*
X106007287Y-69148343D01*
X106028911Y-69166089D01*
X106046657Y-69187713D01*
X106059846Y-69212386D01*
X106067967Y-69239160D01*
X106071000Y-69269948D01*
X106071000Y-69670052D01*
X106067967Y-69700840D01*
X106059846Y-69727614D01*
X106046657Y-69752287D01*
X106028911Y-69773911D01*
X106007287Y-69791657D01*
X105982614Y-69804846D01*
X105955840Y-69812967D01*
X105925052Y-69816000D01*
X105474948Y-69816000D01*
X105444160Y-69812967D01*
X105417386Y-69804846D01*
X105392713Y-69791657D01*
X105371089Y-69773911D01*
X105353343Y-69752287D01*
X105340154Y-69727614D01*
X105332033Y-69700840D01*
X105329000Y-69670052D01*
X105329000Y-69269948D01*
X105332033Y-69239160D01*
X105340154Y-69212386D01*
X105353343Y-69187713D01*
X105371089Y-69166089D01*
X105392713Y-69148343D01*
X105417386Y-69135154D01*
X105444160Y-69127033D01*
X105474948Y-69124000D01*
X105925052Y-69124000D01*
X105955840Y-69127033D01*
G37*
G36*
X105955840Y-68157033D02*
G01*
X105982614Y-68165154D01*
X106007287Y-68178343D01*
X106028911Y-68196089D01*
X106046657Y-68217713D01*
X106059846Y-68242386D01*
X106067967Y-68269160D01*
X106071000Y-68299948D01*
X106071000Y-68700052D01*
X106067967Y-68730840D01*
X106059846Y-68757614D01*
X106046657Y-68782287D01*
X106028911Y-68803911D01*
X106007287Y-68821657D01*
X105982614Y-68834846D01*
X105955840Y-68842967D01*
X105925052Y-68846000D01*
X105474948Y-68846000D01*
X105444160Y-68842967D01*
X105417386Y-68834846D01*
X105392713Y-68821657D01*
X105371089Y-68803911D01*
X105353343Y-68782287D01*
X105340154Y-68757614D01*
X105332033Y-68730840D01*
X105329000Y-68700052D01*
X105329000Y-68299948D01*
X105332033Y-68269160D01*
X105340154Y-68242386D01*
X105353343Y-68217713D01*
X105371089Y-68196089D01*
X105392713Y-68178343D01*
X105417386Y-68165154D01*
X105444160Y-68157033D01*
X105474948Y-68154000D01*
X105925052Y-68154000D01*
X105955840Y-68157033D01*
G37*
G36*
X105945840Y-67132033D02*
G01*
X105972614Y-67140154D01*
X105997287Y-67153343D01*
X106018911Y-67171089D01*
X106036657Y-67192713D01*
X106049846Y-67217386D01*
X106057967Y-67244160D01*
X106061000Y-67274948D01*
X106061000Y-67725052D01*
X106057967Y-67755840D01*
X106049846Y-67782614D01*
X106036657Y-67807287D01*
X106018911Y-67828911D01*
X105997287Y-67846657D01*
X105972614Y-67859846D01*
X105945840Y-67867967D01*
X105915052Y-67871000D01*
X105514948Y-67871000D01*
X105484160Y-67867967D01*
X105457386Y-67859846D01*
X105432713Y-67846657D01*
X105411089Y-67828911D01*
X105393343Y-67807287D01*
X105380154Y-67782614D01*
X105372033Y-67755840D01*
X105369000Y-67725052D01*
X105369000Y-67274948D01*
X105372033Y-67244160D01*
X105380154Y-67217386D01*
X105393343Y-67192713D01*
X105411089Y-67171089D01*
X105432713Y-67153343D01*
X105457386Y-67140154D01*
X105484160Y-67132033D01*
X105514948Y-67129000D01*
X105915052Y-67129000D01*
X105945840Y-67132033D01*
G37*
G36*
X106915840Y-67132033D02*
G01*
X106942614Y-67140154D01*
X106967287Y-67153343D01*
X106988911Y-67171089D01*
X107006657Y-67192713D01*
X107019846Y-67217386D01*
X107027967Y-67244160D01*
X107031000Y-67274948D01*
X107031000Y-67725052D01*
X107027967Y-67755840D01*
X107019846Y-67782614D01*
X107006657Y-67807287D01*
X106988911Y-67828911D01*
X106967287Y-67846657D01*
X106942614Y-67859846D01*
X106915840Y-67867967D01*
X106885052Y-67871000D01*
X106484948Y-67871000D01*
X106454160Y-67867967D01*
X106427386Y-67859846D01*
X106402713Y-67846657D01*
X106381089Y-67828911D01*
X106363343Y-67807287D01*
X106350154Y-67782614D01*
X106342033Y-67755840D01*
X106339000Y-67725052D01*
X106339000Y-67274948D01*
X106342033Y-67244160D01*
X106350154Y-67217386D01*
X106363343Y-67192713D01*
X106381089Y-67171089D01*
X106402713Y-67153343D01*
X106427386Y-67140154D01*
X106454160Y-67132033D01*
X106484948Y-67129000D01*
X106885052Y-67129000D01*
X106915840Y-67132033D01*
G37*
G36*
X71858523Y-42327194D02*
G01*
X72142008Y-42383583D01*
X72542565Y-42549499D01*
X72542567Y-42549500D01*
X72722810Y-42669935D01*
X72903056Y-42790371D01*
X73209629Y-43096944D01*
X73450501Y-43457435D01*
X73616417Y-43857992D01*
X73701000Y-44283220D01*
X73701000Y-44716780D01*
X73616417Y-45142008D01*
X73450501Y-45542565D01*
X73209629Y-45903056D01*
X72903056Y-46209629D01*
X72722810Y-46330065D01*
X72542567Y-46450500D01*
X72542566Y-46450501D01*
X72542565Y-46450501D01*
X72142008Y-46616417D01*
X71858523Y-46672806D01*
X71716781Y-46701000D01*
X71283219Y-46701000D01*
X71141477Y-46672806D01*
X70857992Y-46616417D01*
X70457435Y-46450501D01*
X70457434Y-46450501D01*
X70457433Y-46450500D01*
X70277190Y-46330065D01*
X70096944Y-46209629D01*
X69790371Y-45903056D01*
X69549499Y-45542565D01*
X69383583Y-45142008D01*
X69299000Y-44716780D01*
X69299000Y-44283220D01*
X69383583Y-43857992D01*
X69549499Y-43457435D01*
X69790371Y-43096944D01*
X70096944Y-42790371D01*
X70277189Y-42669935D01*
X70457433Y-42549500D01*
X70457435Y-42549499D01*
X70857992Y-42383583D01*
X71141477Y-42327194D01*
X71283219Y-42299000D01*
X71716781Y-42299000D01*
X71858523Y-42327194D01*
G37*
G36*
X139858523Y-42327194D02*
G01*
X140142008Y-42383583D01*
X140542565Y-42549499D01*
X140542567Y-42549500D01*
X140722811Y-42669935D01*
X140903056Y-42790371D01*
X141209629Y-43096944D01*
X141450501Y-43457435D01*
X141616417Y-43857992D01*
X141701000Y-44283220D01*
X141701000Y-44716780D01*
X141616417Y-45142008D01*
X141450501Y-45542565D01*
X141209629Y-45903056D01*
X140903056Y-46209629D01*
X140722810Y-46330065D01*
X140542567Y-46450500D01*
X140542566Y-46450501D01*
X140542565Y-46450501D01*
X140142008Y-46616417D01*
X139858523Y-46672806D01*
X139716781Y-46701000D01*
X139283219Y-46701000D01*
X139141477Y-46672806D01*
X138857992Y-46616417D01*
X138457435Y-46450501D01*
X138457434Y-46450501D01*
X138457433Y-46450500D01*
X138277190Y-46330065D01*
X138096944Y-46209629D01*
X137790371Y-45903056D01*
X137549499Y-45542565D01*
X137383583Y-45142008D01*
X137299000Y-44716780D01*
X137299000Y-44283220D01*
X137383583Y-43857992D01*
X137549499Y-43457435D01*
X137790371Y-43096944D01*
X138096944Y-42790371D01*
X138277189Y-42669935D01*
X138457433Y-42549500D01*
X138457435Y-42549499D01*
X138857992Y-42383583D01*
X139141477Y-42327194D01*
X139283219Y-42299000D01*
X139716781Y-42299000D01*
X139858523Y-42327194D01*
G37*
M02*
