M48
; DRILL file {KiCad 5.1.5} date Do 13 Feb 2020 13:25:48 CET
; FORMAT={-:-/ absolute / metric / decimal}
; #@! TF.CreationDate,2020-02-13T13:25:48+01:00
; #@! TF.GenerationSoftware,Kicad,Pcbnew,5.1.5
; #@! TF.FileFunction,Plated,1,2,PTH
FMAT,2
METRIC
T1C0.400
T2C1.000
T3C1.020
T4C1.200
T5C1.400
%
G90
G05
T1
X70.0Y-67.5
X70.0Y-70.0
X70.0Y-72.5
X70.0Y-75.0
X70.0Y-77.5
X70.0Y-80.0
X70.0Y-82.5
X70.0Y-85.0
X70.0Y-87.5
X70.0Y-90.0
X70.0Y-92.5
X70.0Y-95.0
X70.0Y-97.5
X70.0Y-100.0
X70.0Y-102.5
X70.0Y-105.0
X72.5Y-67.5
X72.5Y-70.0
X72.5Y-72.5
X72.5Y-77.5
X72.5Y-82.5
X72.5Y-87.5
X72.5Y-92.5
X72.5Y-97.5
X72.5Y-105.0
X75.0Y-67.5
X75.0Y-70.0
X75.0Y-105.0
X77.5Y-67.5
X77.5Y-70.0
X77.5Y-75.0
X77.5Y-87.5
X77.5Y-105.0
X80.0Y-67.5
X80.0Y-70.0
X80.0Y-80.0
X80.0Y-92.5
X80.0Y-105.0
X82.4Y-102.6
X82.5Y-67.5
X82.5Y-70.0
X82.5Y-105.0
X85.0Y-67.5
X85.0Y-70.0
X85.0Y-105.0
X87.2Y-101.0
X87.5Y-67.5
X87.5Y-70.0
X87.5Y-105.0
X90.0Y-67.5
X90.0Y-70.0
X90.0Y-77.5
X90.0Y-86.0
X90.0Y-87.6
X90.0Y-105.0
X90.2Y-84.6
X91.4Y-83.8
X91.6Y-91.0
X91.8Y-88.2
X92.2Y-94.0
X92.5Y-67.5
X92.5Y-70.0
X92.5Y-100.0
X92.5Y-105.0
X94.0Y-77.4
X95.0Y-67.5
X95.0Y-70.0
X95.0Y-76.6
X95.0Y-105.0
X95.8Y-75.6
X96.4Y-78.6
X97.2Y-77.8
X97.5Y-67.5
X97.5Y-82.5
X97.5Y-105.0
X98.0Y-77.0
X99.349Y-94.627
X99.602Y-93.539
X100.0Y-67.5
X100.0Y-85.0
X100.0Y-100.0
X100.0Y-105.0
X100.6Y-70.8
X101.15Y-96.861
X101.178Y-94.361
X102.5Y-67.5
X102.5Y-105.0
X102.656Y-95.776
X103.6Y-75.2
X103.8Y-68.8
X103.8Y-70.4
X103.8Y-72.2
X104.2Y-94.4
X105.0Y-105.0
X105.8Y-88.2
X105.8Y-91.2
X106.796Y-78.768
X107.2Y-80.2
X107.8Y-78.2
X108.2Y-67.6
X108.2Y-69.2
X108.2Y-71.0
X108.844Y-77.607
X109.0Y-82.2
X109.525Y-76.874
X109.8Y-81.2
X110.0Y-67.5
X110.0Y-70.0
X110.0Y-72.5
X110.0Y-90.0
X110.0Y-97.5
X110.217Y-76.122
X110.97Y-80.45
X111.2Y-95.6
X111.291Y-79.067
X112.4Y-84.8
X112.5Y-67.5
X112.5Y-70.0
X112.5Y-105.0
X112.626Y-81.234
X112.8Y-86.2
X112.8Y-89.6
X113.776Y-79.639
X114.2Y-91.0
X114.284Y-78.777
X115.0Y-67.5
X115.0Y-70.0
X115.0Y-105.0
X116.4Y-94.4
X116.6Y-84.4
X117.2Y-91.8
X117.5Y-67.5
X117.5Y-70.0
X117.5Y-105.0
X117.907Y-92.55
X118.8Y-93.6
X119.4Y-76.0
X120.0Y-67.5
X120.0Y-70.0
X120.0Y-79.4
X120.6Y-95.4
X120.8Y-102.2
X121.0Y-100.0
X121.4Y-105.0
X121.6Y-90.6
X121.63Y-91.63
X122.339Y-92.339
X122.5Y-67.5
X122.5Y-70.0
X123.37Y-92.37
X124.8Y-92.0
X125.0Y-67.5
X125.0Y-70.0
X125.637Y-75.961
X125.8Y-90.6
X126.994Y-76.919
X127.5Y-67.5
X127.5Y-70.0
X128.8Y-90.6
X129.2Y-99.2
X129.4Y-105.4
X130.0Y-67.5
X130.0Y-70.0
X130.0Y-75.0
X131.2Y-81.0
X131.4Y-84.45
X131.4Y-91.8
X131.8Y-105.4
X132.4Y-81.0
X132.4Y-90.4
X132.5Y-67.5
X132.5Y-70.0
X132.6Y-88.2
X133.2Y-83.8
X134.4Y-105.0
X135.0Y-67.5
X135.0Y-70.0
X137.5Y-67.5
X137.5Y-70.0
X137.5Y-72.5
X137.5Y-105.0
X140.0Y-67.5
X140.0Y-70.0
X140.0Y-72.5
X140.0Y-105.0
X141.2Y-77.6
X142.5Y-67.5
X142.5Y-70.0
X142.5Y-72.5
X142.5Y-75.0
X142.5Y-77.5
X142.5Y-80.0
X142.5Y-82.5
X142.5Y-85.0
X142.5Y-87.5
X142.5Y-90.0
X142.5Y-92.5
X142.5Y-95.0
X142.5Y-97.5
X142.5Y-100.0
X142.5Y-102.5
X142.5Y-105.0
T2
X85.4Y-90.4
X85.4Y-82.4
X85.4Y-78.4
X138.0Y-75.84
X138.0Y-78.38
X138.0Y-80.92
X138.0Y-83.46
X138.0Y-86.0
X85.4Y-86.4
X126.4Y-100.725
X138.0Y-92.38
X138.0Y-94.92
X138.0Y-97.46
X138.0Y-100.0
T3
X77.6Y-82.01
X77.6Y-97.0
T4
X83.519Y-120.819
X105.0Y-113.0
X106.519Y-120.819
X128.0Y-113.0
X132.4Y-74.6
X110.2Y-84.4
X109.0Y-104.0
T5
X133.0Y-113.0
X138.0Y-113.0
X75.0Y-113.0
X80.0Y-113.0
T0
M30
