G04 #@! TF.GenerationSoftware,KiCad,Pcbnew,5.1.5*
G04 #@! TF.CreationDate,2020-02-13T13:25:46+01:00*
G04 #@! TF.ProjectId,lora_fence_monitor,6c6f7261-5f66-4656-9e63-655f6d6f6e69,rev?*
G04 #@! TF.SameCoordinates,Original*
G04 #@! TF.FileFunction,Soldermask,Bot*
G04 #@! TF.FilePolarity,Negative*
%FSLAX46Y46*%
G04 Gerber Fmt 4.6, Leading zero omitted, Abs format (unit mm)*
G04 Created by KiCad (PCBNEW 5.1.5) date 2020-02-13 13:25:46*
%MOMM*%
%LPD*%
G04 APERTURE LIST*
%ADD10C,0.100000*%
G04 APERTURE END LIST*
D10*
G36*
X139858523Y-119327194D02*
G01*
X140142008Y-119383583D01*
X140542565Y-119549499D01*
X140542567Y-119549500D01*
X140641575Y-119615655D01*
X140903056Y-119790371D01*
X141209629Y-120096944D01*
X141209630Y-120096946D01*
X141447992Y-120453679D01*
X141450501Y-120457435D01*
X141616417Y-120857992D01*
X141701000Y-121283220D01*
X141701000Y-121716780D01*
X141616417Y-122142008D01*
X141450501Y-122542565D01*
X141209629Y-122903056D01*
X140903056Y-123209629D01*
X140722811Y-123330065D01*
X140542567Y-123450500D01*
X140542566Y-123450501D01*
X140542565Y-123450501D01*
X140142008Y-123616417D01*
X139858523Y-123672806D01*
X139716781Y-123701000D01*
X139283219Y-123701000D01*
X139141477Y-123672806D01*
X138857992Y-123616417D01*
X138457435Y-123450501D01*
X138457434Y-123450501D01*
X138457433Y-123450500D01*
X138277190Y-123330065D01*
X138096944Y-123209629D01*
X137790371Y-122903056D01*
X137549499Y-122542565D01*
X137383583Y-122142008D01*
X137299000Y-121716780D01*
X137299000Y-121283220D01*
X137383583Y-120857992D01*
X137549499Y-120457435D01*
X137552009Y-120453679D01*
X137790370Y-120096946D01*
X137790371Y-120096944D01*
X138096944Y-119790371D01*
X138358425Y-119615655D01*
X138457433Y-119549500D01*
X138457435Y-119549499D01*
X138857992Y-119383583D01*
X139141477Y-119327194D01*
X139283219Y-119299000D01*
X139716781Y-119299000D01*
X139858523Y-119327194D01*
G37*
G36*
X71858523Y-119327194D02*
G01*
X72142008Y-119383583D01*
X72542565Y-119549499D01*
X72542567Y-119549500D01*
X72641575Y-119615655D01*
X72903056Y-119790371D01*
X73209629Y-120096944D01*
X73209630Y-120096946D01*
X73447992Y-120453679D01*
X73450501Y-120457435D01*
X73616417Y-120857992D01*
X73701000Y-121283220D01*
X73701000Y-121716780D01*
X73616417Y-122142008D01*
X73450501Y-122542565D01*
X73209629Y-122903056D01*
X72903056Y-123209629D01*
X72722810Y-123330065D01*
X72542567Y-123450500D01*
X72542566Y-123450501D01*
X72542565Y-123450501D01*
X72142008Y-123616417D01*
X71858523Y-123672806D01*
X71716781Y-123701000D01*
X71283219Y-123701000D01*
X71141477Y-123672806D01*
X70857992Y-123616417D01*
X70457435Y-123450501D01*
X70457434Y-123450501D01*
X70457433Y-123450500D01*
X70277190Y-123330065D01*
X70096944Y-123209629D01*
X69790371Y-122903056D01*
X69549499Y-122542565D01*
X69383583Y-122142008D01*
X69299000Y-121716780D01*
X69299000Y-121283220D01*
X69383583Y-120857992D01*
X69549499Y-120457435D01*
X69552009Y-120453679D01*
X69790370Y-120096946D01*
X69790371Y-120096944D01*
X70096944Y-119790371D01*
X70358425Y-119615655D01*
X70457433Y-119549500D01*
X70457435Y-119549499D01*
X70857992Y-119383583D01*
X71141477Y-119327194D01*
X71283219Y-119299000D01*
X71716781Y-119299000D01*
X71858523Y-119327194D01*
G37*
G36*
X106722403Y-119583605D02*
G01*
X106883530Y-119615655D01*
X107111198Y-119709958D01*
X107316093Y-119846865D01*
X107490342Y-120021114D01*
X107627249Y-120226009D01*
X107721552Y-120453677D01*
X107769627Y-120695367D01*
X107769627Y-120941793D01*
X107721552Y-121183483D01*
X107627249Y-121411151D01*
X107490342Y-121616046D01*
X107316093Y-121790295D01*
X107111198Y-121927202D01*
X106883530Y-122021505D01*
X106722403Y-122053555D01*
X106641841Y-122069580D01*
X106395413Y-122069580D01*
X106314851Y-122053555D01*
X106153724Y-122021505D01*
X105926056Y-121927202D01*
X105721161Y-121790295D01*
X105546912Y-121616046D01*
X105410005Y-121411151D01*
X105315702Y-121183483D01*
X105267627Y-120941793D01*
X105267627Y-120695367D01*
X105315702Y-120453677D01*
X105410005Y-120226009D01*
X105546912Y-120021114D01*
X105721161Y-119846865D01*
X105926056Y-119709958D01*
X106153724Y-119615655D01*
X106314851Y-119583605D01*
X106395413Y-119567580D01*
X106641841Y-119567580D01*
X106722403Y-119583605D01*
G37*
G36*
X83722403Y-119583605D02*
G01*
X83883530Y-119615655D01*
X84111198Y-119709958D01*
X84316093Y-119846865D01*
X84490342Y-120021114D01*
X84627249Y-120226009D01*
X84721552Y-120453677D01*
X84769627Y-120695367D01*
X84769627Y-120941793D01*
X84721552Y-121183483D01*
X84627249Y-121411151D01*
X84490342Y-121616046D01*
X84316093Y-121790295D01*
X84111198Y-121927202D01*
X83883530Y-122021505D01*
X83722403Y-122053555D01*
X83641841Y-122069580D01*
X83395413Y-122069580D01*
X83314851Y-122053555D01*
X83153724Y-122021505D01*
X82926056Y-121927202D01*
X82721161Y-121790295D01*
X82546912Y-121616046D01*
X82410005Y-121411151D01*
X82315702Y-121183483D01*
X82267627Y-120941793D01*
X82267627Y-120695367D01*
X82315702Y-120453677D01*
X82410005Y-120226009D01*
X82546912Y-120021114D01*
X82721161Y-119846865D01*
X82926056Y-119709958D01*
X83153724Y-119615655D01*
X83314851Y-119583605D01*
X83395413Y-119567580D01*
X83641841Y-119567580D01*
X83722403Y-119583605D01*
G37*
G36*
X138206031Y-111164207D02*
G01*
X138301874Y-111193281D01*
X138404146Y-111224305D01*
X138514949Y-111283530D01*
X138586729Y-111321897D01*
X138746765Y-111453235D01*
X138878103Y-111613271D01*
X138878104Y-111613273D01*
X138975695Y-111795853D01*
X139001864Y-111882120D01*
X139035793Y-111993968D01*
X139051000Y-112148370D01*
X139051000Y-113851630D01*
X139035793Y-114006032D01*
X139035792Y-114006034D01*
X138975695Y-114204147D01*
X138889264Y-114365848D01*
X138878103Y-114386729D01*
X138746765Y-114546765D01*
X138586729Y-114678103D01*
X138586727Y-114678104D01*
X138404147Y-114775695D01*
X138366823Y-114787017D01*
X138206032Y-114835793D01*
X138000000Y-114856085D01*
X137793969Y-114835793D01*
X137633178Y-114787017D01*
X137595854Y-114775695D01*
X137413274Y-114678104D01*
X137413272Y-114678103D01*
X137253236Y-114546765D01*
X137121898Y-114386729D01*
X137110737Y-114365848D01*
X137024306Y-114204147D01*
X136964208Y-114006034D01*
X136949000Y-113851626D01*
X136949000Y-112148370D01*
X136964207Y-111993969D01*
X137024305Y-111795855D01*
X137024305Y-111795854D01*
X137121896Y-111613273D01*
X137121897Y-111613271D01*
X137253235Y-111453235D01*
X137413271Y-111321897D01*
X137518270Y-111265774D01*
X137595853Y-111224305D01*
X137698125Y-111193281D01*
X137793968Y-111164207D01*
X138000000Y-111143915D01*
X138206031Y-111164207D01*
G37*
G36*
X75206032Y-111164207D02*
G01*
X75301875Y-111193281D01*
X75404147Y-111224305D01*
X75481730Y-111265774D01*
X75586729Y-111321897D01*
X75746765Y-111453235D01*
X75878103Y-111613271D01*
X75878104Y-111613273D01*
X75975695Y-111795853D01*
X76001864Y-111882120D01*
X76035793Y-111993968D01*
X76051000Y-112148370D01*
X76051000Y-113851630D01*
X76035793Y-114006032D01*
X76035792Y-114006034D01*
X75975695Y-114204147D01*
X75889264Y-114365848D01*
X75878103Y-114386729D01*
X75746765Y-114546765D01*
X75586729Y-114678103D01*
X75586727Y-114678104D01*
X75404146Y-114775695D01*
X75366822Y-114787017D01*
X75206031Y-114835793D01*
X75000000Y-114856085D01*
X74793968Y-114835793D01*
X74633177Y-114787017D01*
X74595853Y-114775695D01*
X74413273Y-114678104D01*
X74413271Y-114678103D01*
X74253235Y-114546765D01*
X74121897Y-114386729D01*
X74024306Y-114204147D01*
X74024305Y-114204146D01*
X73964208Y-114006033D01*
X73964207Y-114006031D01*
X73949000Y-113851629D01*
X73949000Y-112148370D01*
X73964208Y-111993968D01*
X73964208Y-111993966D01*
X74024306Y-111795853D01*
X74121897Y-111613273D01*
X74121898Y-111613271D01*
X74253236Y-111453235D01*
X74413272Y-111321897D01*
X74518271Y-111265774D01*
X74595854Y-111224305D01*
X74698126Y-111193281D01*
X74793969Y-111164207D01*
X75000000Y-111143915D01*
X75206032Y-111164207D01*
G37*
G36*
X133875673Y-111153469D02*
G01*
X133916470Y-111165844D01*
X133954063Y-111185938D01*
X133987017Y-111212983D01*
X134014062Y-111245937D01*
X134034156Y-111283530D01*
X134046531Y-111324327D01*
X134051000Y-111369697D01*
X134051000Y-114630303D01*
X134046531Y-114675673D01*
X134034156Y-114716470D01*
X134014062Y-114754063D01*
X133987017Y-114787017D01*
X133954063Y-114814062D01*
X133916470Y-114834156D01*
X133875673Y-114846531D01*
X133830303Y-114851000D01*
X132169697Y-114851000D01*
X132124327Y-114846531D01*
X132083530Y-114834156D01*
X132045937Y-114814062D01*
X132012983Y-114787017D01*
X131985938Y-114754063D01*
X131965844Y-114716470D01*
X131953469Y-114675673D01*
X131949000Y-114630303D01*
X131949000Y-111369697D01*
X131953469Y-111324327D01*
X131965844Y-111283530D01*
X131985938Y-111245937D01*
X132012983Y-111212983D01*
X132045937Y-111185938D01*
X132083530Y-111165844D01*
X132124327Y-111153469D01*
X132169697Y-111149000D01*
X133830303Y-111149000D01*
X133875673Y-111153469D01*
G37*
G36*
X80875673Y-111153469D02*
G01*
X80916470Y-111165844D01*
X80954063Y-111185938D01*
X80987017Y-111212983D01*
X81014062Y-111245937D01*
X81034156Y-111283530D01*
X81046531Y-111324327D01*
X81051000Y-111369697D01*
X81051000Y-114630303D01*
X81046531Y-114675673D01*
X81034156Y-114716470D01*
X81014062Y-114754063D01*
X80987017Y-114787017D01*
X80954063Y-114814062D01*
X80916470Y-114834156D01*
X80875673Y-114846531D01*
X80830303Y-114851000D01*
X79169697Y-114851000D01*
X79124327Y-114846531D01*
X79083530Y-114834156D01*
X79045937Y-114814062D01*
X79012983Y-114787017D01*
X78985938Y-114754063D01*
X78965844Y-114716470D01*
X78953469Y-114675673D01*
X78949000Y-114630303D01*
X78949000Y-111369697D01*
X78953469Y-111324327D01*
X78965844Y-111283530D01*
X78985938Y-111245937D01*
X79012983Y-111212983D01*
X79045937Y-111185938D01*
X79083530Y-111165844D01*
X79124327Y-111153469D01*
X79169697Y-111149000D01*
X80830303Y-111149000D01*
X80875673Y-111153469D01*
G37*
G36*
X128203776Y-111765025D02*
G01*
X128364903Y-111797075D01*
X128592571Y-111891378D01*
X128797466Y-112028285D01*
X128971715Y-112202534D01*
X129108622Y-112407429D01*
X129202925Y-112635097D01*
X129251000Y-112876787D01*
X129251000Y-113123213D01*
X129202925Y-113364903D01*
X129108622Y-113592571D01*
X128971715Y-113797466D01*
X128797466Y-113971715D01*
X128592571Y-114108622D01*
X128364903Y-114202925D01*
X128203776Y-114234975D01*
X128123214Y-114251000D01*
X127876786Y-114251000D01*
X127796224Y-114234975D01*
X127635097Y-114202925D01*
X127407429Y-114108622D01*
X127202534Y-113971715D01*
X127028285Y-113797466D01*
X126891378Y-113592571D01*
X126797075Y-113364903D01*
X126749000Y-113123213D01*
X126749000Y-112876787D01*
X126797075Y-112635097D01*
X126891378Y-112407429D01*
X127028285Y-112202534D01*
X127202534Y-112028285D01*
X127407429Y-111891378D01*
X127635097Y-111797075D01*
X127796224Y-111765025D01*
X127876786Y-111749000D01*
X128123214Y-111749000D01*
X128203776Y-111765025D01*
G37*
G36*
X105203776Y-111765025D02*
G01*
X105364903Y-111797075D01*
X105592571Y-111891378D01*
X105797466Y-112028285D01*
X105971715Y-112202534D01*
X106108622Y-112407429D01*
X106202925Y-112635097D01*
X106251000Y-112876787D01*
X106251000Y-113123213D01*
X106202925Y-113364903D01*
X106108622Y-113592571D01*
X105971715Y-113797466D01*
X105797466Y-113971715D01*
X105592571Y-114108622D01*
X105364903Y-114202925D01*
X105203776Y-114234975D01*
X105123214Y-114251000D01*
X104876786Y-114251000D01*
X104796224Y-114234975D01*
X104635097Y-114202925D01*
X104407429Y-114108622D01*
X104202534Y-113971715D01*
X104028285Y-113797466D01*
X103891378Y-113592571D01*
X103797075Y-113364903D01*
X103749000Y-113123213D01*
X103749000Y-112876787D01*
X103797075Y-112635097D01*
X103891378Y-112407429D01*
X104028285Y-112202534D01*
X104202534Y-112028285D01*
X104407429Y-111891378D01*
X104635097Y-111797075D01*
X104796224Y-111765025D01*
X104876786Y-111749000D01*
X105123214Y-111749000D01*
X105203776Y-111765025D01*
G37*
G36*
X109211921Y-102715666D02*
G01*
X109379488Y-102748997D01*
X109616255Y-102847069D01*
X109616257Y-102847070D01*
X109722797Y-102918258D01*
X109829339Y-102989447D01*
X110010553Y-103170661D01*
X110152931Y-103383745D01*
X110251003Y-103620512D01*
X110301000Y-103871863D01*
X110301000Y-104128137D01*
X110251003Y-104379488D01*
X110152931Y-104616255D01*
X110010553Y-104829339D01*
X109829339Y-105010553D01*
X109722797Y-105081742D01*
X109616257Y-105152930D01*
X109616256Y-105152931D01*
X109616255Y-105152931D01*
X109379488Y-105251003D01*
X109211921Y-105284334D01*
X109128138Y-105301000D01*
X108871862Y-105301000D01*
X108788079Y-105284334D01*
X108620512Y-105251003D01*
X108383745Y-105152931D01*
X108383744Y-105152931D01*
X108383743Y-105152930D01*
X108277203Y-105081742D01*
X108170661Y-105010553D01*
X107989447Y-104829339D01*
X107847069Y-104616255D01*
X107748997Y-104379488D01*
X107699000Y-104128137D01*
X107699000Y-103871863D01*
X107748997Y-103620512D01*
X107847069Y-103383745D01*
X107989447Y-103170661D01*
X108170661Y-102989447D01*
X108277203Y-102918258D01*
X108383743Y-102847070D01*
X108383745Y-102847069D01*
X108620512Y-102748997D01*
X108788079Y-102715666D01*
X108871862Y-102699000D01*
X109128138Y-102699000D01*
X109211921Y-102715666D01*
G37*
G36*
X127301000Y-101626000D02*
G01*
X125499000Y-101626000D01*
X125499000Y-99824000D01*
X127301000Y-99824000D01*
X127301000Y-101626000D01*
G37*
G36*
X138901000Y-100901000D02*
G01*
X137099000Y-100901000D01*
X137099000Y-99099000D01*
X138901000Y-99099000D01*
X138901000Y-100901000D01*
G37*
G36*
X105261162Y-95364368D02*
G01*
X105570727Y-95492594D01*
X105849323Y-95678746D01*
X106086254Y-95915677D01*
X106272406Y-96194273D01*
X106400632Y-96503838D01*
X106466000Y-96832465D01*
X106466000Y-97167535D01*
X106400632Y-97496162D01*
X106272406Y-97805727D01*
X106086254Y-98084323D01*
X105849323Y-98321254D01*
X105570727Y-98507406D01*
X105261162Y-98635632D01*
X104932535Y-98701000D01*
X104597465Y-98701000D01*
X104268838Y-98635632D01*
X103959273Y-98507406D01*
X103680677Y-98321254D01*
X103443746Y-98084323D01*
X103257594Y-97805727D01*
X103129368Y-97496162D01*
X103064000Y-97167535D01*
X103064000Y-96832465D01*
X103129368Y-96503838D01*
X103257594Y-96194273D01*
X103443746Y-95915677D01*
X103680677Y-95678746D01*
X103959273Y-95492594D01*
X104268838Y-95364368D01*
X104597465Y-95299000D01*
X104932535Y-95299000D01*
X105261162Y-95364368D01*
G37*
G36*
X138262812Y-96593624D02*
G01*
X138426784Y-96661544D01*
X138426786Y-96661545D01*
X138500569Y-96710845D01*
X138574354Y-96760147D01*
X138699853Y-96885646D01*
X138798456Y-97033216D01*
X138866376Y-97197188D01*
X138901000Y-97371259D01*
X138901000Y-97548741D01*
X138866376Y-97722812D01*
X138798456Y-97886784D01*
X138699853Y-98034354D01*
X138574354Y-98159853D01*
X138500569Y-98209154D01*
X138426786Y-98258455D01*
X138426785Y-98258456D01*
X138426784Y-98258456D01*
X138262812Y-98326376D01*
X138088741Y-98361000D01*
X137911259Y-98361000D01*
X137737188Y-98326376D01*
X137573216Y-98258456D01*
X137573215Y-98258456D01*
X137573214Y-98258455D01*
X137499431Y-98209154D01*
X137425646Y-98159853D01*
X137300147Y-98034354D01*
X137201544Y-97886784D01*
X137133624Y-97722812D01*
X137099000Y-97548741D01*
X137099000Y-97371259D01*
X137133624Y-97197188D01*
X137201544Y-97033216D01*
X137300147Y-96885646D01*
X137425646Y-96760147D01*
X137499431Y-96710845D01*
X137573214Y-96661545D01*
X137573216Y-96661544D01*
X137737188Y-96593624D01*
X137911259Y-96559000D01*
X138088741Y-96559000D01*
X138262812Y-96593624D01*
G37*
G36*
X78651000Y-98051000D02*
G01*
X76549000Y-98051000D01*
X76549000Y-95949000D01*
X78651000Y-95949000D01*
X78651000Y-98051000D01*
G37*
G36*
X138262812Y-94053624D02*
G01*
X138426784Y-94121544D01*
X138426786Y-94121545D01*
X138500569Y-94170846D01*
X138574354Y-94220147D01*
X138699853Y-94345646D01*
X138798456Y-94493216D01*
X138866376Y-94657188D01*
X138901000Y-94831259D01*
X138901000Y-95008741D01*
X138866376Y-95182812D01*
X138798456Y-95346784D01*
X138699853Y-95494354D01*
X138574354Y-95619853D01*
X138500569Y-95669155D01*
X138426786Y-95718455D01*
X138426785Y-95718456D01*
X138426784Y-95718456D01*
X138262812Y-95786376D01*
X138088741Y-95821000D01*
X137911259Y-95821000D01*
X137737188Y-95786376D01*
X137573216Y-95718456D01*
X137573215Y-95718456D01*
X137573214Y-95718455D01*
X137499431Y-95669154D01*
X137425646Y-95619853D01*
X137300147Y-95494354D01*
X137201544Y-95346784D01*
X137133624Y-95182812D01*
X137099000Y-95008741D01*
X137099000Y-94831259D01*
X137133624Y-94657188D01*
X137201544Y-94493216D01*
X137300147Y-94345646D01*
X137425646Y-94220147D01*
X137499431Y-94170845D01*
X137573214Y-94121545D01*
X137573216Y-94121544D01*
X137737188Y-94053624D01*
X137911259Y-94019000D01*
X138088741Y-94019000D01*
X138262812Y-94053624D01*
G37*
G36*
X138262812Y-91513624D02*
G01*
X138426784Y-91581544D01*
X138426786Y-91581545D01*
X138500569Y-91630845D01*
X138574354Y-91680147D01*
X138699853Y-91805646D01*
X138798456Y-91953216D01*
X138866376Y-92117188D01*
X138901000Y-92291259D01*
X138901000Y-92468741D01*
X138866376Y-92642812D01*
X138798456Y-92806784D01*
X138699853Y-92954354D01*
X138574354Y-93079853D01*
X138500569Y-93129155D01*
X138426786Y-93178455D01*
X138426785Y-93178456D01*
X138426784Y-93178456D01*
X138262812Y-93246376D01*
X138088741Y-93281000D01*
X137911259Y-93281000D01*
X137737188Y-93246376D01*
X137573216Y-93178456D01*
X137573215Y-93178456D01*
X137573214Y-93178455D01*
X137499431Y-93129154D01*
X137425646Y-93079853D01*
X137300147Y-92954354D01*
X137201544Y-92806784D01*
X137133624Y-92642812D01*
X137099000Y-92468741D01*
X137099000Y-92291259D01*
X137133624Y-92117188D01*
X137201544Y-91953216D01*
X137300147Y-91805646D01*
X137425646Y-91680147D01*
X137499431Y-91630845D01*
X137573214Y-91581545D01*
X137573216Y-91581544D01*
X137737188Y-91513624D01*
X137911259Y-91479000D01*
X138088741Y-91479000D01*
X138262812Y-91513624D01*
G37*
G36*
X86301000Y-91301000D02*
G01*
X84499000Y-91301000D01*
X84499000Y-89499000D01*
X86301000Y-89499000D01*
X86301000Y-91301000D01*
G37*
G36*
X86301000Y-87301000D02*
G01*
X84499000Y-87301000D01*
X84499000Y-85499000D01*
X86301000Y-85499000D01*
X86301000Y-87301000D01*
G37*
G36*
X138901000Y-86901000D02*
G01*
X137099000Y-86901000D01*
X137099000Y-85099000D01*
X138901000Y-85099000D01*
X138901000Y-86901000D01*
G37*
G36*
X110411921Y-83115666D02*
G01*
X110579488Y-83148997D01*
X110816255Y-83247069D01*
X110816257Y-83247070D01*
X110896969Y-83301000D01*
X111029339Y-83389447D01*
X111210553Y-83570661D01*
X111210554Y-83570663D01*
X111304325Y-83711000D01*
X111352931Y-83783745D01*
X111451003Y-84020512D01*
X111501000Y-84271863D01*
X111501000Y-84528137D01*
X111451003Y-84779488D01*
X111352931Y-85016255D01*
X111210553Y-85229339D01*
X111029339Y-85410553D01*
X110922797Y-85481742D01*
X110816257Y-85552930D01*
X110816256Y-85552931D01*
X110816255Y-85552931D01*
X110579488Y-85651003D01*
X110411921Y-85684334D01*
X110328138Y-85701000D01*
X110071862Y-85701000D01*
X109988079Y-85684334D01*
X109820512Y-85651003D01*
X109583745Y-85552931D01*
X109583744Y-85552931D01*
X109583743Y-85552930D01*
X109477203Y-85481742D01*
X109370661Y-85410553D01*
X109189447Y-85229339D01*
X109047069Y-85016255D01*
X108948997Y-84779488D01*
X108899000Y-84528137D01*
X108899000Y-84271863D01*
X108948997Y-84020512D01*
X109047069Y-83783745D01*
X109095676Y-83711000D01*
X109189446Y-83570663D01*
X109189447Y-83570661D01*
X109370661Y-83389447D01*
X109503031Y-83301000D01*
X109583743Y-83247070D01*
X109583745Y-83247069D01*
X109820512Y-83148997D01*
X109988079Y-83115666D01*
X110071862Y-83099000D01*
X110328138Y-83099000D01*
X110411921Y-83115666D01*
G37*
G36*
X138262812Y-82593624D02*
G01*
X138426784Y-82661544D01*
X138426786Y-82661545D01*
X138454365Y-82679973D01*
X138574354Y-82760147D01*
X138699853Y-82885646D01*
X138798456Y-83033216D01*
X138866376Y-83197188D01*
X138901000Y-83371259D01*
X138901000Y-83548741D01*
X138866376Y-83722812D01*
X138798456Y-83886784D01*
X138699853Y-84034354D01*
X138574354Y-84159853D01*
X138500569Y-84209155D01*
X138426786Y-84258455D01*
X138426785Y-84258456D01*
X138426784Y-84258456D01*
X138262812Y-84326376D01*
X138088741Y-84361000D01*
X137911259Y-84361000D01*
X137737188Y-84326376D01*
X137573216Y-84258456D01*
X137573215Y-84258456D01*
X137573214Y-84258455D01*
X137499431Y-84209155D01*
X137425646Y-84159853D01*
X137300147Y-84034354D01*
X137201544Y-83886784D01*
X137133624Y-83722812D01*
X137099000Y-83548741D01*
X137099000Y-83371259D01*
X137133624Y-83197188D01*
X137201544Y-83033216D01*
X137300147Y-82885646D01*
X137425646Y-82760147D01*
X137545635Y-82679973D01*
X137573214Y-82661545D01*
X137573216Y-82661544D01*
X137737188Y-82593624D01*
X137911259Y-82559000D01*
X138088741Y-82559000D01*
X138262812Y-82593624D01*
G37*
G36*
X105261162Y-80374368D02*
G01*
X105570727Y-80502594D01*
X105849323Y-80688746D01*
X106086254Y-80925677D01*
X106272406Y-81204273D01*
X106400632Y-81513838D01*
X106466000Y-81842465D01*
X106466000Y-82177535D01*
X106400632Y-82506162D01*
X106272406Y-82815727D01*
X106086254Y-83094323D01*
X105849323Y-83331254D01*
X105570727Y-83517406D01*
X105261162Y-83645632D01*
X104932535Y-83711000D01*
X104597465Y-83711000D01*
X104268838Y-83645632D01*
X103959273Y-83517406D01*
X103680677Y-83331254D01*
X103443746Y-83094323D01*
X103257594Y-82815727D01*
X103129368Y-82506162D01*
X103064000Y-82177535D01*
X103064000Y-81842465D01*
X103129368Y-81513838D01*
X103257594Y-81204273D01*
X103443746Y-80925677D01*
X103680677Y-80688746D01*
X103959273Y-80502594D01*
X104268838Y-80374368D01*
X104597465Y-80309000D01*
X104932535Y-80309000D01*
X105261162Y-80374368D01*
G37*
G36*
X86301000Y-83301000D02*
G01*
X84499000Y-83301000D01*
X84499000Y-81499000D01*
X86301000Y-81499000D01*
X86301000Y-83301000D01*
G37*
G36*
X77906564Y-80999389D02*
G01*
X78097838Y-81078616D01*
X78269972Y-81193633D01*
X78416367Y-81340028D01*
X78531384Y-81512162D01*
X78610611Y-81703436D01*
X78651000Y-81906484D01*
X78651000Y-82113516D01*
X78610611Y-82316564D01*
X78531384Y-82507838D01*
X78416367Y-82679972D01*
X78269972Y-82826367D01*
X78097838Y-82941384D01*
X77906564Y-83020611D01*
X77703516Y-83061000D01*
X77496484Y-83061000D01*
X77293436Y-83020611D01*
X77102162Y-82941384D01*
X76930028Y-82826367D01*
X76783633Y-82679972D01*
X76668616Y-82507838D01*
X76589389Y-82316564D01*
X76549000Y-82113516D01*
X76549000Y-81906484D01*
X76589389Y-81703436D01*
X76668616Y-81512162D01*
X76783633Y-81340028D01*
X76930028Y-81193633D01*
X77102162Y-81078616D01*
X77293436Y-80999389D01*
X77496484Y-80959000D01*
X77703516Y-80959000D01*
X77906564Y-80999389D01*
G37*
G36*
X138262812Y-80053624D02*
G01*
X138426784Y-80121544D01*
X138426786Y-80121545D01*
X138500569Y-80170846D01*
X138574354Y-80220147D01*
X138699853Y-80345646D01*
X138798456Y-80493216D01*
X138866376Y-80657188D01*
X138901000Y-80831259D01*
X138901000Y-81008741D01*
X138866376Y-81182812D01*
X138798456Y-81346784D01*
X138699853Y-81494354D01*
X138574354Y-81619853D01*
X138500569Y-81669155D01*
X138426786Y-81718455D01*
X138426785Y-81718456D01*
X138426784Y-81718456D01*
X138262812Y-81786376D01*
X138088741Y-81821000D01*
X137911259Y-81821000D01*
X137737188Y-81786376D01*
X137573216Y-81718456D01*
X137573215Y-81718456D01*
X137573214Y-81718455D01*
X137499431Y-81669154D01*
X137425646Y-81619853D01*
X137300147Y-81494354D01*
X137201544Y-81346784D01*
X137133624Y-81182812D01*
X137099000Y-81008741D01*
X137099000Y-80831259D01*
X137133624Y-80657188D01*
X137201544Y-80493216D01*
X137300147Y-80345646D01*
X137425646Y-80220147D01*
X137499431Y-80170846D01*
X137573214Y-80121545D01*
X137573216Y-80121544D01*
X137737188Y-80053624D01*
X137911259Y-80019000D01*
X138088741Y-80019000D01*
X138262812Y-80053624D01*
G37*
G36*
X86301000Y-79301000D02*
G01*
X84499000Y-79301000D01*
X84499000Y-77499000D01*
X86301000Y-77499000D01*
X86301000Y-79301000D01*
G37*
G36*
X138262812Y-77513624D02*
G01*
X138426784Y-77581544D01*
X138426786Y-77581545D01*
X138500569Y-77630846D01*
X138574354Y-77680147D01*
X138699853Y-77805646D01*
X138798456Y-77953216D01*
X138866376Y-78117188D01*
X138901000Y-78291259D01*
X138901000Y-78468741D01*
X138866376Y-78642812D01*
X138798456Y-78806784D01*
X138699853Y-78954354D01*
X138574354Y-79079853D01*
X138500569Y-79129155D01*
X138426786Y-79178455D01*
X138426785Y-79178456D01*
X138426784Y-79178456D01*
X138262812Y-79246376D01*
X138088741Y-79281000D01*
X137911259Y-79281000D01*
X137737188Y-79246376D01*
X137573216Y-79178456D01*
X137573215Y-79178456D01*
X137573214Y-79178455D01*
X137499431Y-79129155D01*
X137425646Y-79079853D01*
X137300147Y-78954354D01*
X137201544Y-78806784D01*
X137133624Y-78642812D01*
X137099000Y-78468741D01*
X137099000Y-78291259D01*
X137133624Y-78117188D01*
X137201544Y-77953216D01*
X137300147Y-77805646D01*
X137425646Y-77680147D01*
X137499431Y-77630846D01*
X137573214Y-77581545D01*
X137573216Y-77581544D01*
X137737188Y-77513624D01*
X137911259Y-77479000D01*
X138088741Y-77479000D01*
X138262812Y-77513624D01*
G37*
G36*
X138262812Y-74973624D02*
G01*
X138426784Y-75041544D01*
X138426786Y-75041545D01*
X138500569Y-75090846D01*
X138574354Y-75140147D01*
X138699853Y-75265646D01*
X138798456Y-75413216D01*
X138866376Y-75577188D01*
X138901000Y-75751259D01*
X138901000Y-75928741D01*
X138866376Y-76102812D01*
X138798456Y-76266784D01*
X138699853Y-76414354D01*
X138574354Y-76539853D01*
X138500569Y-76589154D01*
X138426786Y-76638455D01*
X138426785Y-76638456D01*
X138426784Y-76638456D01*
X138262812Y-76706376D01*
X138088741Y-76741000D01*
X137911259Y-76741000D01*
X137737188Y-76706376D01*
X137573216Y-76638456D01*
X137573215Y-76638456D01*
X137573214Y-76638455D01*
X137499431Y-76589155D01*
X137425646Y-76539853D01*
X137300147Y-76414354D01*
X137201544Y-76266784D01*
X137133624Y-76102812D01*
X137099000Y-75928741D01*
X137099000Y-75751259D01*
X137133624Y-75577188D01*
X137201544Y-75413216D01*
X137300147Y-75265646D01*
X137425646Y-75140147D01*
X137499431Y-75090846D01*
X137573214Y-75041545D01*
X137573216Y-75041544D01*
X137737188Y-74973624D01*
X137911259Y-74939000D01*
X138088741Y-74939000D01*
X138262812Y-74973624D01*
G37*
G36*
X132611921Y-73315666D02*
G01*
X132779488Y-73348997D01*
X133016255Y-73447069D01*
X133016257Y-73447070D01*
X133122797Y-73518258D01*
X133229339Y-73589447D01*
X133410553Y-73770661D01*
X133552931Y-73983745D01*
X133651003Y-74220512D01*
X133701000Y-74471863D01*
X133701000Y-74728137D01*
X133651003Y-74979488D01*
X133552931Y-75216255D01*
X133410553Y-75429339D01*
X133229339Y-75610553D01*
X133122797Y-75681742D01*
X133016257Y-75752930D01*
X133016256Y-75752931D01*
X133016255Y-75752931D01*
X132779488Y-75851003D01*
X132611921Y-75884334D01*
X132528138Y-75901000D01*
X132271862Y-75901000D01*
X132188079Y-75884334D01*
X132020512Y-75851003D01*
X131783745Y-75752931D01*
X131783744Y-75752931D01*
X131783743Y-75752930D01*
X131677203Y-75681742D01*
X131570661Y-75610553D01*
X131389447Y-75429339D01*
X131247069Y-75216255D01*
X131148997Y-74979488D01*
X131099000Y-74728137D01*
X131099000Y-74471863D01*
X131148997Y-74220512D01*
X131247069Y-73983745D01*
X131389447Y-73770661D01*
X131570661Y-73589447D01*
X131677203Y-73518258D01*
X131783743Y-73447070D01*
X131783745Y-73447069D01*
X132020512Y-73348997D01*
X132188079Y-73315666D01*
X132271862Y-73299000D01*
X132528138Y-73299000D01*
X132611921Y-73315666D01*
G37*
G36*
X71858523Y-42327194D02*
G01*
X72142008Y-42383583D01*
X72542565Y-42549499D01*
X72542567Y-42549500D01*
X72722810Y-42669935D01*
X72903056Y-42790371D01*
X73209629Y-43096944D01*
X73450501Y-43457435D01*
X73616417Y-43857992D01*
X73701000Y-44283220D01*
X73701000Y-44716780D01*
X73616417Y-45142008D01*
X73450501Y-45542565D01*
X73209629Y-45903056D01*
X72903056Y-46209629D01*
X72722810Y-46330065D01*
X72542567Y-46450500D01*
X72542566Y-46450501D01*
X72542565Y-46450501D01*
X72142008Y-46616417D01*
X71858523Y-46672806D01*
X71716781Y-46701000D01*
X71283219Y-46701000D01*
X71141477Y-46672806D01*
X70857992Y-46616417D01*
X70457435Y-46450501D01*
X70457434Y-46450501D01*
X70457433Y-46450500D01*
X70277190Y-46330065D01*
X70096944Y-46209629D01*
X69790371Y-45903056D01*
X69549499Y-45542565D01*
X69383583Y-45142008D01*
X69299000Y-44716780D01*
X69299000Y-44283220D01*
X69383583Y-43857992D01*
X69549499Y-43457435D01*
X69790371Y-43096944D01*
X70096944Y-42790371D01*
X70277189Y-42669935D01*
X70457433Y-42549500D01*
X70457435Y-42549499D01*
X70857992Y-42383583D01*
X71141477Y-42327194D01*
X71283219Y-42299000D01*
X71716781Y-42299000D01*
X71858523Y-42327194D01*
G37*
G36*
X139858523Y-42327194D02*
G01*
X140142008Y-42383583D01*
X140542565Y-42549499D01*
X140542567Y-42549500D01*
X140722811Y-42669935D01*
X140903056Y-42790371D01*
X141209629Y-43096944D01*
X141450501Y-43457435D01*
X141616417Y-43857992D01*
X141701000Y-44283220D01*
X141701000Y-44716780D01*
X141616417Y-45142008D01*
X141450501Y-45542565D01*
X141209629Y-45903056D01*
X140903056Y-46209629D01*
X140722810Y-46330065D01*
X140542567Y-46450500D01*
X140542566Y-46450501D01*
X140542565Y-46450501D01*
X140142008Y-46616417D01*
X139858523Y-46672806D01*
X139716781Y-46701000D01*
X139283219Y-46701000D01*
X139141477Y-46672806D01*
X138857992Y-46616417D01*
X138457435Y-46450501D01*
X138457434Y-46450501D01*
X138457433Y-46450500D01*
X138277190Y-46330065D01*
X138096944Y-46209629D01*
X137790371Y-45903056D01*
X137549499Y-45542565D01*
X137383583Y-45142008D01*
X137299000Y-44716780D01*
X137299000Y-44283220D01*
X137383583Y-43857992D01*
X137549499Y-43457435D01*
X137790371Y-43096944D01*
X138096944Y-42790371D01*
X138277189Y-42669935D01*
X138457433Y-42549500D01*
X138457435Y-42549499D01*
X138857992Y-42383583D01*
X139141477Y-42327194D01*
X139283219Y-42299000D01*
X139716781Y-42299000D01*
X139858523Y-42327194D01*
G37*
M02*
